<svg width="120" height="115" viewBox="0 0 120 115" fill="none" xmlns="http://www.w3.org/2000/svg">
<path d="M58.1239 95.2344H31.8739L28.1239 52.1094H61.8739L58.1239 95.2344Z" fill="#88C791"/>
<path d="M114.375 90.9358C114.375 92.3655 113.782 93.7366 112.727 94.7475C111.673 95.7585 110.242 96.3264 108.75 96.3264H95.625V85.5452H108.75C110.242 85.5452 111.673 86.1131 112.727 87.124C113.782 88.135 114.375 89.5061 114.375 90.9358Z" fill="#35A872"/>
<path d="M104.645 108.031C103.591 109.042 102.16 109.61 100.669 109.61C99.177 109.61 97.7464 109.042 96.6917 108.031L87.4123 99.1384L95.3661 91.5161L104.645 100.409C105.7 101.42 106.293 102.791 106.293 104.22C106.293 105.649 105.7 107.02 104.645 108.031Z" fill="#35A872"/>
<path d="M94.6227 89.6824L86.669 82.06L95.9484 73.1673C97.0031 72.1565 98.4336 71.5887 99.9252 71.5887C101.417 71.5887 102.847 72.1565 103.902 73.1673C104.957 74.1781 105.549 75.549 105.549 76.9785C105.549 78.4079 104.957 79.7789 103.902 80.7896L94.6227 89.6824Z" fill="#35A872"/>
<path d="M81.6108 105.171L19.5398 96.3005C16.9373 95.9286 15 93.6398 15 90.9355C15 88.2321 16.9373 85.9424 19.5398 85.5705L81.6108 76.6998C90.0084 75.4997 97.5 82.2117 97.5 90.9355C97.5 99.6593 90.0084 106.371 81.6108 105.171Z" fill="#F78A25"/>
<path d="M74.5266 29.9068C74.9061 28.5528 75.0982 27.1569 75.0977 25.7549C75.0977 16.7573 67.3216 9.46308 57.7305 9.46308C54.8615 9.45805 52.0348 10.1257 49.4967 11.4077C47.85 9.51673 45.7884 7.99702 43.4588 6.9569C41.1291 5.91679 38.5888 5.38186 36.0187 5.39023C26.4265 5.39023 18.6516 12.6842 18.6516 21.6818C18.65 24.5499 19.4554 27.3653 20.9831 29.8316C20.9295 29.8316 20.8765 29.8277 20.8226 29.8277C12.4282 29.8277 5.625 36.21 5.625 44.083C5.625 51.956 12.4291 58.3381 20.8223 58.3381C23.5597 58.3432 26.2488 57.6477 28.6118 56.3233C29.9481 59.3498 32.1892 61.9296 35.0527 63.7377C37.9161 65.5458 41.2739 66.5014 44.703 66.484C53.025 66.484 59.9766 60.9925 61.6718 53.6626C63.1099 55.1435 64.852 56.3234 66.7888 57.128C68.7256 57.9326 70.8151 58.3446 72.926 58.3381C81.3192 58.3381 88.1234 51.9558 88.1234 44.083C88.125 36.717 82.1677 30.6568 74.5266 29.9068Z" fill="#35A872"/>
<path d="M39.003 99.0825L35.274 98.5488L35.627 90.8571C35.6488 90.3809 35.867 89.9324 36.2338 89.6105C36.6005 89.2885 37.0857 89.1193 37.5826 89.1401C38.0795 89.161 38.5475 89.3702 38.8834 89.7216C39.2194 90.0731 39.396 90.5381 39.3742 91.0143L39.003 99.0825Z" fill="#D46109"/>
<path d="M26.2123 92.7324C25.7151 92.7225 25.2423 92.5238 24.8978 92.1801C24.5533 91.8363 24.3653 91.3756 24.3751 90.8991L24.5058 84.8623L28.268 84.3232L28.1251 90.9726C28.1149 91.449 27.9077 91.9021 27.549 92.2321C27.1903 92.5621 26.7095 92.7421 26.2123 92.7324Z" fill="#D46109"/>
<path d="M24.3739 109.609C34.7292 109.609 43.1239 101.564 43.1239 91.6406C43.1239 81.7168 34.7292 73.6719 24.3739 73.6719C14.0186 73.6719 5.6239 81.7168 5.6239 91.6406C5.6239 101.564 14.0186 109.609 24.3739 109.609Z" fill="#EB423F"/>
<path d="M31.875 84.4531L33.75 91.6406L24.375 88.0469L15 91.6406L16.875 84.4531C15 80.8594 9.375 80.8594 9.375 80.8594V80.8571C11.1219 78.6261 13.3868 76.8153 15.9903 75.5682C18.5938 74.3211 21.4644 73.6719 24.375 73.6719C27.2856 73.6719 30.1562 74.3211 32.7597 75.5682C35.3632 76.8153 37.6281 78.6261 39.375 80.8571V80.8594C39.375 80.8594 33.75 80.8594 31.875 84.4531Z" fill="#EB423F"/>
<path d="M31.875 84.4531L33.75 91.6406L24.375 88.0469L15 91.6406L16.875 84.4531C15 80.8594 9.375 80.8594 9.375 80.8594V80.8571C11.1219 78.6261 13.3868 76.8153 15.9903 75.5682C18.5938 74.3211 21.4644 73.6719 24.375 73.6719C27.2856 73.6719 30.1562 74.3211 32.7597 75.5682C35.3632 76.8153 37.6281 78.6261 39.375 80.8571V80.8594C39.375 80.8594 33.75 80.8594 31.875 84.4531Z" fill="#35A872"/>
<path d="M3.75 91.6398C3.74917 96.0054 5.25682 100.249 8.03756 103.707C10.8183 107.164 14.7156 109.643 19.1209 110.754C23.5263 111.866 28.1918 111.548 32.3889 109.851C36.586 108.154 40.0785 105.172 42.3211 101.372L81.3342 106.948C82.0797 107.054 82.8325 107.108 83.5863 107.109C86.206 107.107 88.7786 106.441 91.0423 105.177L95.3438 109.3C96.0392 109.972 96.8662 110.505 97.7773 110.87C98.6884 111.234 99.6656 111.423 100.653 111.425C101.64 111.427 102.618 111.242 103.531 110.88C104.443 110.519 105.273 109.989 105.971 109.32C106.669 108.651 107.222 107.856 107.599 106.982C107.976 106.107 108.169 105.17 108.167 104.224C108.166 103.277 107.969 102.341 107.588 101.468C107.208 100.595 106.651 99.8021 105.95 99.1356L104.893 98.122H108.75C110.739 98.122 112.647 97.3647 114.053 96.0168C115.46 94.6689 116.25 92.8407 116.25 90.9345C116.25 89.0282 115.46 87.2001 114.053 85.8521C112.647 84.5042 110.739 83.747 108.75 83.747H103.447L105.228 82.04C106.626 80.6903 107.408 78.8649 107.404 76.9634C107.401 75.062 106.611 73.2394 105.208 71.8949C103.805 70.5503 101.903 69.7933 99.919 69.7896C97.9348 69.786 96.03 70.5359 94.6216 71.8753L90.0996 76.2091C87.383 74.9336 84.3245 74.4845 81.334 74.9219L61.5262 77.7519L63.3019 57.3336C66.1511 59.1583 69.5006 60.1329 72.9274 60.1342C82.3411 60.1342 89.9998 52.9333 89.9998 44.0823C89.9998 36.4948 84.4373 30.0781 76.7618 28.4358C76.9024 27.5483 76.9729 26.6519 76.9727 25.7542C76.9727 15.78 68.3402 7.6655 57.7305 7.6655C55.0554 7.66594 52.4086 8.19035 49.9526 9.20654C48.1422 7.42257 45.9756 6.00616 43.5819 5.04171C41.1882 4.07726 38.6163 3.58453 36.0197 3.59288C25.4088 3.59288 16.7775 11.7073 16.7775 21.6813C16.7784 23.9259 17.2225 26.1501 18.0865 28.2363C9.96797 29.4715 3.75 36.1069 3.75 44.0825C3.75 52.9335 11.4087 60.1345 20.8223 60.1345C22.8801 60.1344 24.9216 59.784 26.8514 59.0995L27.9886 72.1783C26.7957 71.9755 25.5865 71.8738 24.375 71.8741C24.2578 71.8741 24.139 71.8766 24.0211 71.8784C22.4714 69.0535 20.1982 67.2245 17.3297 66.5372C16.8487 66.4255 16.341 66.5005 15.9175 66.746C15.494 66.9916 15.189 67.3876 15.069 67.8477C14.949 68.3079 15.0237 68.7949 15.2768 69.2025C15.53 69.6101 15.941 69.9053 16.4203 70.0236C17.8339 70.3779 19.072 71.1982 19.9172 72.3404C15.3355 73.3187 11.2379 75.7631 8.29931 79.271C5.3607 82.7789 3.75619 87.1413 3.75 91.6398ZM41.4865 80.6164C39.1309 77.2675 35.7667 74.6857 31.8417 73.215L30.9401 62.8448C32.8445 64.6786 35.1321 66.1059 37.6526 67.0329L37.5963 67.0509L39.4587 72.4056L39.461 72.4123L39.4713 72.4415C39.5436 72.6718 39.6633 72.8858 39.8234 73.071C39.9836 73.2561 40.1809 73.4086 40.4036 73.5193C40.6264 73.63 40.87 73.6968 41.1202 73.7156C41.3703 73.7344 41.6219 73.7049 41.86 73.6289C42.098 73.5528 42.3177 73.4317 42.506 73.2728C42.6944 73.1139 42.8475 72.9204 42.9563 72.7037C43.0652 72.4871 43.1276 72.2516 43.1397 72.0115C43.1519 71.7713 43.1137 71.5312 43.0273 71.3054L41.9088 68.0897C42.8343 68.216 43.7678 68.2795 44.7026 68.2799C45.8499 68.279 46.995 68.1813 48.1245 67.9879L46.9706 71.3056C46.8842 71.5314 46.846 71.7715 46.8581 72.0117C46.8703 72.2519 46.9327 72.4873 47.0415 72.7039C47.1504 72.9206 47.3035 73.1141 47.4919 73.273C47.6802 73.432 47.8999 73.553 48.1379 73.6291C48.376 73.7051 48.6275 73.7346 48.8777 73.7158C49.1279 73.697 49.3715 73.6302 49.5943 73.5195C49.817 73.4088 50.0143 73.2563 50.1744 73.0712C50.3346 72.8861 50.4543 72.672 50.5266 72.4417L50.5369 72.4125L50.5392 72.4058L52.4016 67.0511C52.4374 66.9471 52.4632 66.8402 52.4787 66.7317C55.0105 65.6892 57.2757 64.1317 59.1173 62.1672L57.7148 78.2964L41.4865 80.6164ZM103.299 106.759C102.596 107.433 101.642 107.812 100.647 107.812C99.6528 107.812 98.699 107.433 97.9957 106.759L94.0746 103.001C95.9477 101.291 97.3848 99.19 98.2746 96.8617L103.299 101.677C104.001 102.351 104.395 103.265 104.395 104.218C104.395 105.171 104.001 106.085 103.299 106.759ZM108.75 87.3407C109.745 87.3407 110.698 87.7194 111.402 88.3933C112.105 89.0673 112.5 89.9814 112.5 90.9345C112.5 91.8876 112.105 92.8017 111.402 93.4756C110.698 94.1496 109.745 94.5282 108.75 94.5282H101.143L99.277 92.7399C99.453 91.1323 99.3917 89.5089 99.0947 87.9178L99.6968 87.3407H108.75ZM97.2724 74.4169C97.9757 73.743 98.9295 73.3643 99.9241 73.3643C100.919 73.3643 101.872 73.7429 102.576 74.4168C103.279 75.0908 103.674 76.0049 103.674 76.958C103.674 77.9111 103.279 78.8252 102.576 79.4992L97.8595 84.0192C96.8597 81.8475 95.3695 79.9154 93.4964 78.3622C93.435 78.3114 93.371 78.2649 93.3089 78.2151L97.2724 74.4169ZM80.625 78.6573V89.8429C80.625 90.3194 80.8225 90.7765 81.1742 91.1135C81.5258 91.4504 82.0027 91.6398 82.5 91.6398C82.9973 91.6398 83.4742 91.4504 83.8258 91.1135C84.1775 90.7765 84.375 90.3194 84.375 89.8429V78.3844C86.8456 78.5686 89.1872 79.5159 91.0481 81.0842C93.9567 83.4864 95.625 87.0773 95.625 90.9345C95.625 94.7917 93.9567 98.3821 91.0481 100.785C89.8124 101.834 88.352 102.611 86.7695 103.062C85.1869 103.512 83.5206 103.625 81.8876 103.393L69.3764 101.605L69.375 93.4366C69.375 92.9601 69.1775 92.503 68.8258 92.166C68.4742 91.8291 67.9973 91.6398 67.5 91.6398C67.0027 91.6398 66.5258 91.8291 66.1742 92.166C65.8225 92.503 65.625 92.9601 65.625 93.4366L65.6264 101.069L43.9165 97.9663C45.5254 93.3976 45.3372 88.423 43.3873 83.9779L50.625 82.9438V95.2335C50.625 95.7101 50.8225 96.1671 51.1742 96.5041C51.5258 96.8411 52.0027 97.0304 52.5 97.0304C52.9973 97.0304 53.4742 96.8411 53.8258 96.5041C54.1775 96.1671 54.375 95.7101 54.375 95.2335V82.4083L80.625 78.6573ZM27.6645 54.7721C25.5879 55.933 23.2264 56.5434 20.8223 56.5407C13.4766 56.5407 7.5 50.952 7.5 44.0825C7.5 37.2131 13.4766 31.6241 20.8153 31.6241H20.8444C20.8837 31.6255 20.9234 31.6264 20.963 31.6268C21.2954 31.6302 21.6229 31.5488 21.9117 31.391C22.2005 31.2331 22.4404 31.0045 22.6066 30.7286C22.7729 30.4527 22.8596 30.1393 22.8579 29.8207C22.8562 29.5021 22.7661 29.1896 22.5968 28.9153C21.2433 26.7248 20.5283 24.2262 20.5263 21.6804C20.5263 13.6891 27.4767 7.18663 36.0197 7.18663C38.3145 7.17737 40.5831 7.65386 42.6635 8.58205C44.7439 9.51025 46.5848 10.8673 48.0546 12.5561C48.3296 12.8731 48.7099 13.0898 49.1318 13.17C49.5537 13.2501 49.9915 13.1888 50.3719 12.9964C52.6418 11.8542 55.1675 11.2581 57.7313 11.2595C66.2742 11.2595 73.2234 17.7619 73.2234 25.7544C73.2235 26.999 73.0531 28.2382 72.7165 29.4403C72.6461 29.6916 72.6334 29.9545 72.6795 30.211C72.7256 30.4675 72.8292 30.7113 72.9832 30.9256C73.1372 31.1399 73.338 31.3195 73.5716 31.4522C73.8052 31.5848 74.0661 31.6672 74.3363 31.6938C81.1282 32.3606 86.25 37.6866 86.25 44.0825C86.25 50.952 80.2734 56.5407 72.9277 56.5407C71.0754 56.5432 69.2425 56.1804 67.5429 55.4749C65.8432 54.7695 64.3132 53.7364 63.048 52.44C62.8154 52.1997 62.5187 52.025 62.1899 51.9347C61.8611 51.8445 61.5128 51.8421 61.1827 51.9279C60.8526 52.0137 60.5533 52.1844 60.3171 52.4215C60.081 52.6586 59.917 52.9531 59.843 53.2731C58.3125 59.8865 51.9459 64.6866 44.704 64.6866C38.3644 64.6866 32.7274 61.1331 30.3434 55.6335C30.2407 55.3966 30.0862 55.1835 29.8904 55.0086C29.6946 54.8336 29.462 54.7009 29.2082 54.6193C28.9544 54.5377 28.6853 54.5091 28.4191 54.5354C28.1528 54.5618 27.8955 54.6425 27.6645 54.7721ZM21.6206 75.6869C22.1493 77.367 22.445 79.1065 22.5 80.8605C22.5003 81.3371 22.6981 81.794 23.0499 82.1308C23.4017 82.4676 23.8788 82.6567 24.3761 82.6564C24.8733 82.6561 25.3501 82.4666 25.7016 82.1294C26.053 81.7922 26.2503 81.3351 26.25 80.8585C26.2067 79.0508 25.943 77.2542 25.4644 75.5052C29.2516 75.7372 32.8455 77.1906 35.6611 79.629C33.6752 80.2 31.3995 81.3457 30.198 83.6495C29.9979 84.0331 29.9475 84.4728 30.056 84.8889L31.0404 88.6671L25.0702 86.3785C24.6231 86.2073 24.1245 86.2073 23.6775 86.3785L17.7084 88.6662L18.6928 84.888C18.8013 84.4719 18.751 84.0322 18.5508 83.6486C17.3494 81.3457 15.0736 80.2 13.0877 79.6281C15.4795 77.5583 18.4412 76.1904 21.6206 75.6869ZM14.8657 84.7454L13.181 91.204C13.0973 91.5251 13.1077 91.8621 13.2111 92.1778C13.3145 92.4936 13.5069 92.7758 13.767 92.9935C14.0272 93.2111 14.345 93.3556 14.6854 93.4112C15.0259 93.4667 15.3757 93.4311 15.6963 93.3082L24.375 89.9812L33.0537 93.3082C33.3743 93.4311 33.7241 93.4667 34.0646 93.4112C34.405 93.3556 34.7228 93.2111 34.983 92.9935C35.2431 92.7758 35.4355 92.4936 35.5389 92.1778C35.6423 91.8621 35.6527 91.5251 35.569 91.204L33.8843 84.7454C34.4768 83.9981 35.442 83.4319 36.7634 83.0579C37.314 82.9041 37.8767 82.7933 38.4459 82.7264C40.1294 85.1634 41.0923 87.9921 41.2321 90.9117C41.372 93.8313 40.6836 96.7326 39.2402 99.3072C37.7969 101.882 35.6524 104.033 33.0349 105.533C30.4174 107.033 27.4246 107.825 24.3749 107.825C21.3251 107.825 18.3324 107.033 15.7149 105.533C13.0974 104.033 10.9529 101.882 9.50952 99.3072C8.06613 96.7326 7.37778 93.8313 7.51764 90.9117C7.6575 87.9921 8.62036 85.1634 10.3038 82.7264C11.5547 82.8762 13.748 83.3353 14.8657 84.7454Z" fill="black"/>
<path d="M82.5 98.8281C83.5355 98.8281 84.375 98.0236 84.375 97.0312C84.375 96.0389 83.5355 95.2344 82.5 95.2344C81.4645 95.2344 80.625 96.0389 80.625 97.0312C80.625 98.0236 81.4645 98.8281 82.5 98.8281Z" fill="black"/>
<path d="M67.1327 88.0138C67.5276 88.0893 67.9373 88.0411 68.3014 87.8763C68.6654 87.7115 68.9645 87.4388 69.1544 87.0986C69.3444 86.7583 69.415 86.3686 69.356 85.9869C69.297 85.6052 69.1115 85.2518 68.8268 84.9789C68.5421 84.7061 68.1734 84.5282 67.7751 84.4716C67.3768 84.415 66.9701 84.4827 66.6151 84.6646C66.26 84.8466 65.9754 85.1332 65.8034 85.482C65.6313 85.8309 65.581 86.2235 65.6597 86.6019C65.7324 86.9503 65.9111 87.2703 66.1732 87.5216C66.4353 87.7728 66.7692 87.9441 67.1327 88.0138Z" fill="black"/>
</svg>
