<svg width="120" height="115" viewBox="0 0 120 115" fill="none" xmlns="http://www.w3.org/2000/svg">
<g clip-path="url(#clip0)">
<path d="M77.0277 76.7092C77.5839 75.464 78.1422 74.2338 78.7014 73.0191C77.9462 67.1355 75.2465 61.4428 71.0838 56.6794C68.1349 53.3049 66.2299 49.093 66.2299 43.8428C66.2299 31.7852 75.1593 25.6372 85.7984 22.5916C96.248 19.6 95.4605 5.19143 84.7665 3.14166C47.4526 -4.01029 6.30866 14.284 2.43518 51.7614C0.484723 70.6324 9.08434 86.3112 20.8705 98.6428C33.3309 111.68 54.0512 112.089 67.2068 101.33C69.7249 94.0228 73.0635 85.5841 77.0277 76.7092Z" fill="#DBEDFF"/>
<path d="M38.3358 98.6427C26.5496 86.3111 17.95 70.6323 19.9004 51.7613C22.918 22.5652 48.5549 5.01211 77.3788 2.06122C42.2104 -1.52419 6.05437 16.7445 2.43518 51.7613C0.484723 70.6323 9.08434 86.3111 20.8705 98.6427C29.6982 107.879 42.6712 110.775 54.1634 107.854C48.3133 106.356 42.7954 103.309 38.3358 98.6427Z" fill="#B5DCFF"/>
<path d="M49.8087 29.0616C54.068 29.0616 57.5208 25.7526 57.5208 21.6708C57.5208 17.589 54.068 14.28 49.8087 14.28C45.5494 14.28 42.0966 17.589 42.0966 21.6708C42.0966 25.7526 45.5494 29.0616 49.8087 29.0616Z" fill="#F4DD45"/>
<path d="M46.325 96.393C51.3395 96.393 55.4045 92.4973 55.4045 87.6918C55.4045 82.8863 51.3395 78.9907 46.325 78.9907C41.3106 78.9907 37.2456 82.8863 37.2456 87.6918C37.2456 92.4973 41.3106 96.393 46.325 96.393Z" fill="#64D465"/>
<path d="M30.8041 49.8251C36.1788 49.8251 40.5359 45.6496 40.5359 40.4988C40.5359 35.3481 36.1788 31.1726 30.8041 31.1726C25.4295 31.1726 21.0724 35.3481 21.0724 40.4988C21.0724 45.6496 25.4295 49.8251 30.8041 49.8251Z" fill="#F87C68"/>
<path d="M27.5135 76.5648C32.8882 76.5648 37.2453 72.3893 37.2453 67.2386C37.2453 62.0879 32.8882 57.9124 27.5135 57.9124C22.1389 57.9124 17.7818 62.0879 17.7818 67.2386C17.7818 72.3893 22.1389 76.5648 27.5135 76.5648Z" fill="#7FB3FA"/>
<path d="M50.7703 21.6706C50.7703 19.13 52.1084 16.8893 54.1456 15.5592C52.9097 14.7522 51.417 14.28 49.8087 14.28C45.5494 14.28 42.0966 17.589 42.0966 21.6708C42.0966 25.7526 45.5494 29.0616 49.8087 29.0616C51.417 29.0616 52.9097 28.5892 54.1456 27.7822C52.1084 26.4518 50.7703 24.2111 50.7703 21.6706Z" fill="#FCC101"/>
<path d="M45.9191 87.6921C45.9191 84.3919 47.8365 81.5209 50.6619 80.0459C49.3733 79.3732 47.8958 78.9907 46.325 78.9907C41.3106 78.9907 37.2456 82.8863 37.2456 87.6918C37.2456 92.4974 41.3106 96.3932 46.325 96.3932C47.8958 96.3932 49.3733 96.0107 50.6619 95.338C47.8365 93.8632 45.9191 90.9922 45.9191 87.6921Z" fill="#40C140"/>
<path d="M29.7459 40.4993C29.7459 36.8424 31.9434 33.6788 35.141 32.1504C33.8348 31.5259 32.363 31.1729 30.8041 31.1729C25.4295 31.1729 21.0724 35.3483 21.0724 40.4991C21.0724 45.6498 25.4295 49.8253 30.8041 49.8253C32.363 49.8253 33.8348 49.4722 35.141 48.8478C31.9434 47.3198 29.7459 44.1564 29.7459 40.4993Z" fill="#EC625E"/>
<path d="M26.4553 67.2378C26.4553 63.5807 28.6528 60.4173 31.8504 58.8889C30.5442 58.2645 29.0724 57.9114 27.5135 57.9114C22.1388 57.9114 17.7818 62.0869 17.7818 67.2376C17.7818 72.3883 22.1388 76.5638 27.5135 76.5638C29.0724 76.5638 30.5442 76.2108 31.8504 75.5863C28.6528 74.0583 26.4553 70.8947 26.4553 67.2378Z" fill="#64A6F4"/>
<path d="M97.3454 62.8944L86.7986 58.7017L85.2906 59.0622C82.5002 64.4226 79.6205 70.3792 76.7934 76.7085C71.9426 87.5685 68.0269 97.7773 65.4076 106.057C64.576 108.685 65.8759 111.501 68.4591 112.691C71.2222 113.963 74.539 112.964 76.0474 110.406C80.4883 102.876 85.4903 93.1174 90.3381 82.2648C93.1651 75.9354 95.6748 69.8269 97.7959 64.192L97.3454 62.8944Z" fill="#CE775F"/>
<path d="M72.0872 106.898C74.7066 98.6188 78.6223 88.4099 83.4731 77.5499C86.1766 71.4976 88.9276 65.7877 91.603 60.6125L86.7986 58.7026L85.2906 59.0631C82.5002 64.4236 79.6204 70.3802 76.7934 76.7094C71.9426 87.5694 68.0269 97.7783 65.4076 106.058C64.576 108.686 65.8759 111.502 68.4591 112.692C70.1836 113.486 72.1238 113.395 73.7056 112.593C72.1109 111.177 71.4284 108.98 72.0872 106.898Z" fill="#C0694E"/>
<path d="M98.2719 36.5465L105.836 39.6495C106.18 39.7907 106.467 40.0052 106.69 40.2647C109.389 38.7897 114.187 35.5825 116.473 30.4653C118.991 24.8272 117.068 14.5954 116.04 10.1506C115.788 9.05835 114.498 8.5294 113.499 9.10822C109.434 11.4635 100.381 17.1927 97.8629 22.8308C95.5771 27.9481 96.4677 33.4887 97.2172 36.3785C97.5674 36.354 97.9276 36.4052 98.2719 36.5465Z" fill="#FFE97B"/>
<path d="M103.801 26.3498C105.871 21.7145 112.356 17.0193 116.857 14.1864C116.582 12.606 116.286 11.2121 116.04 10.1506C115.788 9.05835 114.498 8.5294 113.5 9.10822C109.434 11.4635 100.382 17.1927 97.8631 22.8308C95.5772 27.9481 96.4678 33.4887 97.2174 36.3785C97.5673 36.354 97.9275 36.4052 98.2718 36.5465L102.816 38.4107C102.208 35.337 101.861 30.6914 103.801 26.3498Z" fill="#F4DD45"/>
<path d="M94.4458 43.0576C91.6618 47.362 88.5374 52.8138 85.2906 59.0633L97.7959 64.1934C100.273 57.628 102.232 51.6983 103.561 46.7967C103.279 46.7913 102.995 46.7367 102.72 46.6242L95.1566 43.5212C94.8819 43.4087 94.6443 43.249 94.4458 43.0576Z" fill="#477B9E"/>
<path d="M91.9701 59.904C94.8168 54.4246 97.5693 49.5589 100.081 45.5418L95.1561 43.5214C94.8819 43.4089 94.6443 43.2492 94.4458 43.0576C91.6618 47.362 88.5374 52.8137 85.2906 59.0633L91.161 61.4715C91.4315 60.9444 91.7012 60.4206 91.9701 59.904Z" fill="#3F6D8E"/>
<path d="M105.936 39.4253L98.3721 36.3223C97.2146 35.8475 95.8744 36.3619 95.3789 37.4712L93.8576 40.8772C93.3621 41.9865 93.8989 43.2709 95.0564 43.7457L102.62 46.8487C103.778 47.3235 105.118 46.8091 105.613 45.6998L107.135 42.2938C107.63 41.1845 107.093 39.9001 105.936 39.4253Z" fill="#DBEDFF"/>
<path d="M99.5004 43.2053L101.134 39.5479C101.461 38.8155 102.132 38.3258 102.889 38.1751L98.3721 36.3223C97.2146 35.8475 95.8744 36.3619 95.3789 37.4712L93.8576 40.8772C93.3621 41.9865 93.8989 43.2708 95.0564 43.7457L100.012 45.7786C99.3321 45.1198 99.0966 44.1089 99.5004 43.2053Z" fill="#B5DCFF"/>
<path d="M49.852 30.8231C55.0737 30.8231 59.3219 26.752 59.3219 21.7479C59.3219 16.7439 55.0737 12.6726 49.852 12.6726C44.6304 12.6726 40.3824 16.7439 40.3824 21.7479C40.3824 26.752 44.6304 30.8231 49.852 30.8231ZM49.852 16.0417C53.1354 16.0417 55.8063 18.6014 55.8063 21.7479C55.8063 24.8943 53.1354 27.4539 49.852 27.4539C46.5689 27.4539 43.898 24.8943 43.898 21.7479C43.898 18.6016 46.5689 16.0417 49.852 16.0417Z" fill="black"/>
<path d="M46.3684 98.1548C52.344 98.1548 57.2057 93.4957 57.2057 87.769C57.2057 82.0424 52.344 77.3833 46.3684 77.3833C40.3928 77.3833 35.5311 82.0424 35.5311 87.769C35.5311 93.4957 40.3928 98.1548 46.3684 98.1548ZM46.3684 80.7524C50.4058 80.7524 53.69 83.9001 53.69 87.769C53.69 91.6379 50.4055 94.7856 46.3684 94.7856C42.3313 94.7856 39.0468 91.6379 39.0468 87.769C39.0468 83.9001 42.3311 80.7524 46.3684 80.7524Z" fill="black"/>
<path d="M30.8478 29.5652C24.5124 29.5652 19.3583 34.5046 19.3583 40.576C19.3583 46.6474 24.5124 51.5868 30.8478 51.5868C37.1832 51.5868 42.3373 46.6474 42.3373 40.576C42.3373 34.5046 37.1832 29.5652 30.8478 29.5652ZM30.8478 48.2179C26.4509 48.2179 22.8739 44.7899 22.8739 40.5762C22.8739 36.3625 26.4511 32.9346 30.8478 32.9346C35.2444 32.9346 38.8217 36.3625 38.8217 40.5762C38.8217 44.7899 35.2447 48.2179 30.8478 48.2179Z" fill="black"/>
<path d="M27.5569 78.3263C33.8923 78.3263 39.0465 73.3869 39.0465 67.3155C39.0465 61.2441 33.8923 56.3047 27.5569 56.3047C21.2216 56.3047 16.0674 61.2441 16.0674 67.3155C16.0674 73.3869 21.2216 78.3263 27.5569 78.3263ZM27.5569 59.6736C31.9538 59.6736 35.5308 63.1016 35.5308 67.3153C35.5308 71.5289 31.9536 74.9569 27.5569 74.9569C23.1603 74.9569 19.583 71.5289 19.583 67.3153C19.583 63.1016 23.1601 59.6736 27.5569 59.6736Z" fill="black"/>
<path d="M39.009 110.159C39.9626 110.328 40.8793 109.72 41.0539 108.805C41.2285 107.89 40.5954 107.012 39.6404 106.845C32.9028 105.666 26.8757 102.463 22.2105 97.5819C8.62178 83.3644 2.57167 68.03 4.22799 52.0043C7.96554 15.8373 47.763 -2.16458 84.4654 4.87035C89.4238 5.82067 91.355 9.6938 91.5015 12.7215C91.6466 15.7101 90.1197 19.6855 85.3389 21.0542C79.162 22.8226 74.2781 25.4035 70.823 28.7253C62.904 36.3388 62.218 49.1848 69.7796 57.8378C73.5134 62.1105 75.9019 67.2917 76.7039 72.8476C72.7233 81.5182 68.6527 91.3371 65.5025 100.425C60.4412 104.432 54.0374 106.86 47.4131 107.274C46.4442 107.335 45.7102 108.137 45.7734 109.065C45.8344 109.956 46.6073 110.64 47.5261 110.64C47.5645 110.64 47.6032 110.639 47.6423 110.636C53.3463 110.279 58.9049 108.576 63.7377 105.752C62.7153 109.166 64.3843 112.741 67.741 114.287C71.3255 115.938 75.6649 114.63 77.621 111.313C81.0058 105.573 84.6735 98.6074 88.2269 91.168C88.6311 90.3221 88.2428 89.3224 87.3604 88.9351C86.4773 88.5477 85.4345 88.9201 85.0305 89.7657C81.5179 97.1201 77.8973 103.998 74.5606 109.655C73.5113 111.434 71.1851 112.134 69.2637 111.25C67.4457 110.413 66.5497 108.467 67.1333 106.623C71.671 92.2784 79.2386 74.8174 86.1712 61.3158L95.6192 65.1916C93.4164 70.9447 90.9069 76.935 88.3464 82.6147C87.9618 83.4689 88.3726 84.4601 89.264 84.8286C90.1567 85.1977 91.1898 84.8035 91.5744 83.9493C96.3973 73.2234 101.78 59.8262 104.921 48.5554C106.038 48.1711 106.845 47.3971 107.273 46.4394L108.794 43.0334C109.12 42.3037 109.192 41.5304 109.05 40.8031C111.976 39.0132 116.071 35.8204 118.193 31.069C120.815 25.2 119.073 15.2569 117.801 9.85237C117.557 8.81693 116.804 7.94905 115.785 7.53128C114.767 7.11351 113.592 7.18965 112.642 7.73567C107.683 10.5848 98.9731 16.2404 96.3516 22.109C94.2301 26.8583 94.6456 31.9005 95.3134 35.165C94.6482 35.5785 94.1256 36.1708 93.8066 36.885L92.2853 40.291C91.854 41.2561 91.8332 42.3464 92.3106 43.3818C87.5938 50.7891 82.911 59.7793 79.1337 67.667C77.8069 63.2778 75.5545 59.1991 72.4751 55.675C69.5265 52.3007 68.0314 48.3459 68.0314 43.92C68.0314 34.3687 74.1931 27.7619 86.3453 24.2827C91.8796 22.6984 95.282 18.0991 95.0136 12.5656C94.7916 7.98903 91.6571 2.8134 85.1549 1.56705C46.4641 -5.84905 4.68337 13.4205 0.729264 51.6723C-1.02971 68.6917 5.32532 84.9037 19.6181 99.8576C24.8055 105.285 31.5107 108.848 39.009 110.159ZM95.0068 45.6164C97.3105 46.5613 99.0692 47.283 101.373 48.2279C100.224 52.2783 98.667 56.9852 96.8124 62.0161L87.7445 58.2962C90.2636 53.5365 92.7425 49.2081 95.0068 45.6164ZM105.562 41.7073L104.041 45.1133C103.918 45.3882 103.596 45.4754 103.355 45.3763L95.7913 42.2734C95.5461 42.1727 95.3954 41.8884 95.5168 41.6166L97.0381 38.2104C97.1567 37.9456 97.4703 37.8432 97.7241 37.9476L105.288 41.0504C105.531 41.1505 105.681 41.4403 105.562 41.7073ZM99.5832 23.4346C100.353 21.7114 103.336 17.0212 114.387 10.6605C117.214 22.7145 115.731 28.0195 114.961 29.743C113.146 33.8066 109.495 36.5654 106.959 38.0847C106.865 38.0373 106.768 37.9932 106.671 37.9533L99.1069 34.8503H99.1067C99.009 34.8103 98.9096 34.7739 98.8088 34.7416C98.2055 31.9338 97.7684 27.4978 99.5832 23.4346Z" fill="black"/>
</g>
<defs>
<clipPath id="clip0">
<rect width="120" height="115" fill="white"/>
</clipPath>
</defs>
</svg>
