<svg width="120" height="115" viewBox="0 0 120 115" fill="none" xmlns="http://www.w3.org/2000/svg">
<path d="M105 5.39062H82.5V50.3125H105V5.39062Z" fill="#E6AF89"/>
<path d="M108.75 19.7656C108.75 18.8125 108.355 17.8984 107.652 17.2245C106.948 16.5505 105.995 16.1719 105 16.1719H82.5V8.98438H77.9123C76.0475 8.9844 74.2591 9.69434 72.9406 10.958L67.5 16.1719H5.625V37.7344H61.875L71.8273 42.5033C75.1468 44.0938 78.8072 44.9218 82.5185 44.9219H105C105.995 44.9219 106.948 44.5432 107.652 43.8693C108.355 43.1953 108.75 42.2812 108.75 41.3281C108.75 40.375 108.355 39.4609 107.652 38.787C106.948 38.113 105.995 37.7344 105 37.7344C105.995 37.7344 106.948 37.3557 107.652 36.6818C108.355 36.0078 108.75 35.0937 108.75 34.1406C108.75 33.1875 108.355 32.2734 107.652 31.5995C106.948 30.9255 105.995 30.5469 105 30.5469C105.995 30.5469 106.948 30.1682 107.652 29.4943C108.355 28.8203 108.75 27.9062 108.75 26.9531C108.75 26 108.355 25.0859 107.652 24.412C106.948 23.738 105.995 23.3594 105 23.3594C105.995 23.3594 106.948 22.9807 107.652 22.3068C108.355 21.6328 108.75 20.7187 108.75 19.7656Z" fill="#FDC9A6"/>
<path d="M105 37.7344C105.493 37.7338 105.981 37.8264 106.436 38.0068C106.891 38.1872 107.305 38.4518 107.653 38.7855C107.884 39.0084 108.085 39.259 108.248 39.5312H93.75C93.2527 39.5312 92.7758 39.3419 92.4242 39.005C92.0725 38.668 91.875 38.2109 91.875 37.7344C91.875 37.2578 92.0725 36.8008 92.4242 36.4638C92.7758 36.1268 93.2527 35.9375 93.75 35.9375H108.248C107.919 36.484 107.446 36.9378 106.876 37.2533C106.305 37.5687 105.658 37.7347 105 37.7344Z" fill="#FDC9A6"/>
<path d="M105 30.5469C105.493 30.5463 105.981 30.6389 106.436 30.8193C106.891 30.9997 107.305 31.2643 107.653 31.598C107.884 31.8209 108.085 32.0715 108.248 32.3438H93.75C93.2527 32.3438 92.7758 32.1544 92.4242 31.8175C92.0725 31.4805 91.875 31.0234 91.875 30.5469C91.875 30.0703 92.0725 29.6133 92.4242 29.2763C92.7758 28.9393 93.2527 28.75 93.75 28.75H108.248C107.919 29.2965 107.446 29.7503 106.876 30.0658C106.305 30.3812 105.658 30.5472 105 30.5469Z" fill="#FDC9A6"/>
<path d="M107.653 24.4105C107.884 24.6334 108.085 24.884 108.248 25.1562H93.75C93.2527 25.1562 92.7758 24.9669 92.4242 24.63C92.0725 24.293 91.875 23.8359 91.875 23.3594C91.875 22.8828 92.0725 22.4258 92.4242 22.0888C92.7758 21.7518 93.2527 21.5625 93.75 21.5625H108.248C107.919 22.109 107.446 22.5628 106.876 22.8783C106.305 23.1937 105.658 23.3597 105 23.3594C105.493 23.3588 105.981 23.4514 106.436 23.6318C106.891 23.8122 107.305 24.0768 107.653 24.4105Z" fill="#FDC9A6"/>
<path d="M91.875 23.3594C91.875 22.8828 92.0725 22.4258 92.4242 22.0888C92.7758 21.7518 93.2527 21.5625 93.75 21.5625H108.248C107.919 22.109 107.446 22.5628 106.876 22.8783C106.305 23.1937 105.658 23.3597 105 23.3594H91.875Z" fill="#F6BB92"/>
<path d="M37.5 12.5781C38.4946 12.5781 39.4484 12.9568 40.1516 13.6307C40.8549 14.3047 41.25 15.2188 41.25 16.1719V37.7344H48.75V42.1309C48.75 43.918 48.0092 45.6319 46.6905 46.8955L41.25 52.1094V104.219H18.75V57.5L13.7738 47.9624C12.1141 44.7812 11.25 41.2733 11.25 37.7166V16.1719C11.25 15.2188 11.6451 14.3047 12.3483 13.6307C13.0516 12.9568 14.0054 12.5781 15 12.5781C15.9946 12.5781 16.9484 12.9568 17.6516 13.6307C18.3549 14.3047 18.75 15.2188 18.75 16.1719C18.75 15.2188 19.1451 14.3047 19.8484 13.6307C20.5516 12.9568 21.5054 12.5781 22.5 12.5781C23.4946 12.5781 24.4484 12.9568 25.1516 13.6307C25.8549 14.3047 26.25 15.2188 26.25 16.1719C26.25 15.2188 26.6451 14.3047 27.3484 13.6307C28.0516 12.9568 29.0054 12.5781 30 12.5781C30.9946 12.5781 31.9484 12.9568 32.6516 13.6307C33.3549 14.3047 33.75 15.2188 33.75 16.1719C33.75 15.2188 34.1451 14.3047 34.8484 13.6307C35.5516 12.9568 36.5054 12.5781 37.5 12.5781Z" fill="#F6BB92"/>
<path d="M54.8815 50.3125C55.7578 50.3126 56.5981 50.6462 57.2178 51.2399L60.0001 53.9062L62.7823 51.2399C63.402 50.6462 64.2423 50.3126 65.1186 50.3125C65.812 50.3126 66.4879 50.5217 67.0504 50.9103C67.613 51.2988 68.0337 51.8471 68.2531 52.4775C68.5823 53.4237 68.6007 54.4439 68.3059 55.4005C68.0112 56.357 67.4174 57.2039 66.6048 57.827L60.0001 62.8906L53.3954 57.827C52.5827 57.2039 51.9889 56.357 51.6942 55.4005C51.3994 54.4439 51.4179 53.4237 51.747 52.4775C51.9664 51.8471 52.3872 51.2988 52.9497 50.9103C53.5123 50.5217 54.1881 50.3126 54.8815 50.3125Z" fill="#E82F3E"/>
<path d="M91.875 30.5469C91.875 30.0703 92.0725 29.6133 92.4242 29.2763C92.7758 28.9393 93.2527 28.75 93.75 28.75H108.248C107.919 29.2965 107.446 29.7503 106.876 30.0658C106.305 30.3812 105.658 30.5472 105 30.5469H91.875Z" fill="#F6BB92"/>
<path d="M91.875 37.7344C91.875 37.2578 92.0725 36.8008 92.4242 36.4638C92.7758 36.1268 93.2527 35.9375 93.75 35.9375H108.248C107.919 36.484 107.446 36.9378 106.876 37.2533C106.305 37.5687 105.658 37.7347 105 37.7344H91.875Z" fill="#F6BB92"/>
<path d="M33.75 28.7503C34.2473 28.7503 34.7242 28.561 35.0758 28.224C35.4275 27.887 35.625 27.43 35.625 26.9534V13.0591C35.0547 13.3745 34.5812 13.8282 34.252 14.3747C33.9229 14.9212 33.7497 15.5412 33.75 16.1722V28.7503Z" fill="#E6AF89"/>
<path d="M26.25 28.7503C26.7473 28.7503 27.2242 28.561 27.5758 28.224C27.9275 27.887 28.125 27.43 28.125 26.9534V13.0591C27.5547 13.3745 27.0812 13.8282 26.752 14.3747C26.4229 14.9212 26.2497 15.5412 26.25 16.1722V28.7503Z" fill="#E6AF89"/>
<path d="M18.75 28.7503C19.2473 28.7503 19.7242 28.561 20.0758 28.224C20.4275 27.887 20.625 27.43 20.625 26.9534V13.0591C20.0547 13.3745 19.5812 13.8282 19.252 14.3747C18.9229 14.9212 18.7497 15.5412 18.75 16.1722V28.7503Z" fill="#E6AF89"/>
<path d="M15 89.8438C15 90.7969 15.3951 91.711 16.0984 92.3849C16.8016 93.0589 17.7554 93.4375 18.75 93.4375H41.25V100.625H45.8377C47.7024 100.625 49.4909 99.915 50.8095 98.6514L56.25 93.4375H114.375V71.875H61.875L51.9227 67.1061C48.6032 65.5156 44.9428 64.6875 41.2315 64.6875H18.75C17.7554 64.6875 16.8016 65.0661 16.0984 65.7401C15.3951 66.414 15 67.3281 15 68.2812C15 69.2344 15.3951 70.1485 16.0984 70.8224C16.8016 71.4964 17.7554 71.875 18.75 71.875C17.7554 71.875 16.8016 72.2536 16.0984 72.9276C15.3951 73.6015 15 74.5156 15 75.4688C15 76.4219 15.3951 77.336 16.0984 78.0099C16.8016 78.6839 17.7554 79.0625 18.75 79.0625C17.7554 79.0625 16.8016 79.4411 16.0984 80.1151C15.3951 80.789 15 81.7031 15 82.6562C15 83.6094 15.3951 84.5235 16.0984 85.1974C16.8016 85.8714 17.7554 86.25 18.75 86.25C17.7554 86.25 16.8016 86.6286 16.0984 87.3026C15.3951 87.9765 15 88.8906 15 89.8438Z" fill="#FDC9A6"/>
<path d="M82.5 48.5156V52.1094L77.5238 61.647C75.8641 64.8282 75 68.3361 75 71.8927V93.4375C75 94.3906 75.3951 95.3047 76.0983 95.9787C76.8016 96.6526 77.7554 97.0312 78.75 97.0312C79.7446 97.0312 80.6984 96.6526 81.4017 95.9787C82.1049 95.3047 82.5 94.3906 82.5 93.4375C82.5 94.3906 82.8951 95.3047 83.5983 95.9787C84.3016 96.6526 85.2554 97.0312 86.25 97.0312C87.2446 97.0312 88.1984 96.6526 88.9017 95.9787C89.6049 95.3047 90 94.3906 90 93.4375C90 94.3906 90.3951 95.3047 91.0983 95.9787C91.8016 96.6526 92.7554 97.0312 93.75 97.0312C94.7446 97.0312 95.6984 96.6526 96.4017 95.9787C97.1049 95.3047 97.5 94.3906 97.5 93.4375C97.5 94.3906 97.8951 95.3047 98.5983 95.9787C99.3016 96.6526 100.255 97.0312 101.25 97.0312C102.245 97.0312 103.198 96.6526 103.902 95.9787C104.605 95.3047 105 94.3906 105 93.4375V71.875H112.5V67.4785C112.5 65.6914 111.759 63.9775 110.441 62.7139L105 57.5V48.5156H82.5Z" fill="#E6AF89"/>
<path d="M97.5 80.8594C97.9973 80.8594 98.4742 81.0487 98.8258 81.3857C99.1775 81.7226 99.375 82.1797 99.375 82.6562V96.5506C98.8047 96.2352 98.3312 95.7814 98.002 95.2349C97.6728 94.6884 97.4997 94.0685 97.5 93.4375V80.8594Z" fill="#C99978"/>
<path d="M90 80.8594C90.4973 80.8594 90.9742 81.0487 91.3258 81.3857C91.6775 81.7226 91.875 82.1797 91.875 82.6562V96.5506C91.3047 96.2352 90.8312 95.7814 90.502 95.2349C90.1728 94.6884 89.9997 94.0685 90 93.4375V80.8594Z" fill="#C99978"/>
<path d="M82.5 80.8594C82.9973 80.8594 83.4742 81.0487 83.8258 81.3857C84.1775 81.7226 84.375 82.1797 84.375 82.6562V96.5506C83.8047 96.2352 83.3312 95.7814 83.002 95.2349C82.6728 94.6884 82.4997 94.0685 82.5 93.4375V80.8594Z" fill="#C99978"/>
<path d="M31.8751 86.25C31.8751 86.7266 31.6775 87.1836 31.3259 87.5206C30.9743 87.8576 30.4974 88.0469 30.0001 88.0469H15.5016C15.8307 87.5003 16.3042 87.0465 16.8745 86.7311C17.4448 86.4156 18.0917 86.2497 18.7501 86.25H31.8751Z" fill="#E6AF89"/>
<path d="M31.8751 79.0625C31.8751 79.5391 31.6775 79.9961 31.3259 80.3331C30.9743 80.6701 30.4974 80.8594 30.0001 80.8594H15.5016C15.8307 80.3128 16.3042 79.859 16.8745 79.5436C17.4448 79.2281 18.0917 79.0622 18.7501 79.0625H31.8751Z" fill="#E6AF89"/>
<path d="M31.8751 71.875C31.8751 72.3516 31.6775 72.8086 31.3259 73.1456C30.9743 73.4826 30.4974 73.6719 30.0001 73.6719H15.5016C15.8307 73.1253 16.3042 72.6715 16.8745 72.3561C17.4448 72.0406 18.0917 71.8747 18.7501 71.875H31.8751Z" fill="#E6AF89"/>
<path d="M114.375 70.0781V67.4785C114.378 66.3572 114.149 65.2465 113.701 64.2106C113.254 63.1747 112.596 62.2341 111.766 61.4435L106.875 56.7559V46.4097C107.746 46.115 108.528 45.6191 109.152 44.9659C109.775 44.3126 110.221 43.5221 110.45 42.6644C110.679 41.8066 110.683 40.908 110.463 40.0481C110.244 39.1883 109.806 38.3936 109.189 37.7344C110.114 36.747 110.625 35.4672 110.625 34.1406C110.625 32.8141 110.114 31.5342 109.189 30.5469C110.114 29.5595 110.625 28.2797 110.625 26.9531C110.625 25.6266 110.114 24.3467 109.189 23.3594C109.806 22.7002 110.244 21.9055 110.463 21.0456C110.683 20.1857 110.679 19.2871 110.45 18.4294C110.221 17.5716 109.775 16.7812 109.152 16.1279C108.528 15.4746 107.746 14.9787 106.875 14.6841V5.39062C106.875 4.91406 106.677 4.45702 106.326 4.12004C105.974 3.78306 105.497 3.59375 105 3.59375H82.5C82.0027 3.59375 81.5258 3.78306 81.1742 4.12004C80.8225 4.45702 80.625 4.91406 80.625 5.39062V7.1875H77.9126C76.7425 7.18443 75.5834 7.4038 74.5023 7.83291C73.4213 8.26202 72.4398 8.89234 71.6147 9.6874L66.7235 14.375H42.8025C42.495 13.5401 41.9776 12.7908 41.2959 12.1932C40.6142 11.5957 39.7894 11.1684 38.8943 10.9491C37.9993 10.7298 37.0616 10.7253 36.1644 10.9361C35.2671 11.1468 34.4378 11.5662 33.75 12.1572C32.7197 11.2713 31.3842 10.7813 30 10.7813C28.6158 10.7813 27.2803 11.2713 26.25 12.1572C25.2197 11.2713 23.8842 10.7813 22.5 10.7813C21.1158 10.7813 19.7803 11.2713 18.75 12.1572C18.0622 11.5662 17.2329 11.1468 16.3356 10.9361C15.4384 10.7253 14.5007 10.7298 13.6057 10.9491C12.7106 11.1684 11.8858 11.5957 11.2041 12.1932C10.5224 12.7908 10.005 13.5401 9.6975 14.375H5.625C5.12772 14.375 4.65081 14.5643 4.29917 14.9013C3.94754 15.2383 3.75 15.6953 3.75 16.1719V37.7344C3.75 38.2109 3.94754 38.668 4.29917 39.005C4.65081 39.3419 5.12772 39.5312 5.625 39.5312H9.375V43.125C9.37497 43.404 9.44278 43.6792 9.57305 43.9287L16.875 57.9243V63.1997C16.0038 63.4944 15.2219 63.9903 14.5984 64.6435C13.9748 65.2968 13.529 66.0873 13.3001 66.945C13.0713 67.8028 13.0667 68.7013 13.2865 69.5612C13.5064 70.4211 13.9441 71.2158 14.5608 71.875C13.6363 72.8624 13.125 74.1422 13.125 75.4688C13.125 76.7953 13.6363 78.0751 14.5608 79.0625C13.6363 80.0499 13.125 81.3297 13.125 82.6562C13.125 83.9828 13.6363 85.2626 14.5608 86.25C13.9441 86.9092 13.5064 87.7039 13.2865 88.5638C13.0667 89.4237 13.0713 90.3222 13.3001 91.18C13.529 92.0377 13.9748 92.8282 14.5984 93.4815C15.2219 94.1347 16.0038 94.6306 16.875 94.9253V104.219C16.875 104.695 17.0725 105.152 17.4242 105.489C17.7758 105.826 18.2527 106.016 18.75 106.016H41.25C41.7473 106.016 42.2242 105.826 42.5758 105.489C42.9275 105.152 43.125 104.695 43.125 104.219V102.422H45.8374C47.0075 102.425 48.1666 102.206 49.2477 101.776C50.3287 101.347 51.3102 100.717 52.1353 99.922L57.0265 95.2344H73.4475C73.7555 96.0691 74.2733 96.8182 74.9551 97.4156C75.6369 98.013 76.4617 98.4403 77.3568 98.6597C78.2518 98.8791 79.1894 98.8839 80.0868 98.6736C80.9842 98.4633 81.8137 98.0444 82.5021 97.454C83.5325 98.3391 84.8677 98.8285 86.2514 98.8282C87.6352 98.8278 88.9701 98.3378 90 97.4522C91.0303 98.3381 92.3658 98.8281 93.75 98.8281C95.1342 98.8281 96.4697 98.3381 97.5 97.4522C98.1878 98.0432 99.0171 98.4626 99.9144 98.6733C100.812 98.884 101.749 98.8796 102.644 98.6603C103.539 98.441 104.364 98.0137 105.046 97.4161C105.728 96.8186 106.245 96.0692 106.552 95.2344H114.375C114.872 95.2344 115.349 95.0451 115.701 94.7081C116.052 94.3711 116.25 93.9141 116.25 93.4375V71.875C116.25 71.3984 116.052 70.9414 115.701 70.6044C115.349 70.2674 114.872 70.0781 114.375 70.0781ZM84.375 7.1875H103.125V14.375H84.375V7.1875ZM67.5 17.9688C67.7462 17.9688 67.9901 17.9223 68.2175 17.832C68.445 17.7417 68.6517 17.6093 68.8259 17.4425L74.2664 12.2284C74.7441 11.7682 75.3124 11.4033 75.9382 11.1549C76.5641 10.9065 77.2352 10.7795 77.9126 10.7812H80.625V16.1719C80.625 16.6484 80.8225 17.1055 81.1742 17.4425C81.5258 17.7794 82.0027 17.9688 82.5 17.9688H105C105.497 17.9688 105.974 18.1581 106.326 18.495C106.677 18.832 106.875 19.2891 106.875 19.7656C106.875 20.2422 106.677 20.6992 106.326 21.0362C105.974 21.3732 105.497 21.5625 105 21.5625H93.75C93.2527 21.5625 92.7758 21.7518 92.4242 22.0888C92.0725 22.4258 91.875 22.8828 91.875 23.3594C91.875 23.8359 92.0725 24.293 92.4242 24.63C92.7758 24.9669 93.2527 25.1562 93.75 25.1562H105C105.497 25.1562 105.974 25.3456 106.326 25.6825C106.677 26.0195 106.875 26.4766 106.875 26.9531C106.875 27.4297 106.677 27.8867 106.326 28.2237C105.974 28.5607 105.497 28.75 105 28.75H93.75C93.2527 28.75 92.7758 28.9393 92.4242 29.2763C92.0725 29.6133 91.875 30.0703 91.875 30.5469C91.875 31.0234 92.0725 31.4805 92.4242 31.8175C92.7758 32.1544 93.2527 32.3438 93.75 32.3438H105C105.497 32.3438 105.974 32.5331 106.326 32.87C106.677 33.207 106.875 33.6641 106.875 34.1406C106.875 34.6172 106.677 35.0742 106.326 35.4112C105.974 35.7482 105.497 35.9375 105 35.9375H93.75C93.2527 35.9375 92.7758 36.1268 92.4242 36.4638C92.0725 36.8008 91.875 37.2578 91.875 37.7344C91.875 38.2109 92.0725 38.668 92.4242 39.005C92.7758 39.3419 93.2527 39.5312 93.75 39.5312H105C105.497 39.5312 105.974 39.7206 106.326 40.0575C106.677 40.3945 106.875 40.8516 106.875 41.3281C106.875 41.8047 106.677 42.2617 106.326 42.5987C105.974 42.9357 105.497 43.125 105 43.125H77.3177L62.7136 36.1273C62.4532 36.0025 62.1661 35.9375 61.875 35.9375H43.125V17.9688H67.5ZM73.323 65.6807C73.1928 65.9302 73.125 66.2054 73.125 66.4844V70.0781H62.3177L47.7136 63.0804C47.4532 62.9556 47.1661 62.8906 46.875 62.8906H43.125V52.8535L48.0164 48.1659C48.846 47.3752 49.5037 46.4347 49.9515 45.3988C50.3993 44.3629 50.6282 43.2521 50.625 42.1309V39.5312H61.4323L76.0364 46.529C76.2968 46.6538 76.5839 46.7188 76.875 46.7188H80.625V51.6851L73.323 65.6807ZM7.5 35.9375V17.9688H9.375V35.9375H7.5ZM13.125 42.7007V16.1719C13.125 15.6953 13.3225 15.2383 13.6742 14.9013C14.0258 14.5643 14.5027 14.375 15 14.375C15.4973 14.375 15.9742 14.5643 16.3258 14.9013C16.6775 15.2383 16.875 15.6953 16.875 16.1719V26.9531C16.875 27.4297 17.0725 27.8867 17.4242 28.2237C17.7758 28.5607 18.2527 28.75 18.75 28.75C19.2473 28.75 19.7242 28.5607 20.0758 28.2237C20.4275 27.8867 20.625 27.4297 20.625 26.9531V16.1719C20.625 15.6953 20.8225 15.2383 21.1742 14.9013C21.5258 14.5643 22.0027 14.375 22.5 14.375C22.9973 14.375 23.4742 14.5643 23.8258 14.9013C24.1775 15.2383 24.375 15.6953 24.375 16.1719V26.9531C24.375 27.4297 24.5725 27.8867 24.9242 28.2237C25.2758 28.5607 25.7527 28.75 26.25 28.75C26.7473 28.75 27.2242 28.5607 27.5758 28.2237C27.9275 27.8867 28.125 27.4297 28.125 26.9531V16.1719C28.125 15.6953 28.3225 15.2383 28.6742 14.9013C29.0258 14.5643 29.5027 14.375 30 14.375C30.4973 14.375 30.9742 14.5643 31.3258 14.9013C31.6775 15.2383 31.875 15.6953 31.875 16.1719V26.9531C31.875 27.4297 32.0725 27.8867 32.4242 28.2237C32.7758 28.5607 33.2527 28.75 33.75 28.75C34.2473 28.75 34.7242 28.5607 35.0758 28.2237C35.4275 27.8867 35.625 27.4297 35.625 26.9531V16.1719C35.625 15.6953 35.8225 15.2383 36.1742 14.9013C36.5258 14.5643 37.0027 14.375 37.5 14.375C37.9973 14.375 38.4742 14.5643 38.8258 14.9013C39.1775 15.2383 39.375 15.6953 39.375 16.1719V37.7344C39.375 38.2109 39.5725 38.668 39.9242 39.005C40.2758 39.3419 40.7527 39.5312 41.25 39.5312H46.875V42.1309C46.8769 42.7801 46.7443 43.4231 46.4851 44.0229C46.2258 44.6226 45.845 45.1671 45.3647 45.6249L39.9241 50.8388C39.75 51.0056 39.6119 51.2037 39.5177 51.4217C39.4235 51.6397 39.375 51.8734 39.375 52.1094V62.8906H20.625V57.5C20.625 57.221 20.5572 56.9458 20.427 56.6963L13.125 42.7007ZM39.375 102.422H20.625V95.2344H39.375V102.422ZM56.25 91.6406C56.0038 91.6406 55.7599 91.6871 55.5325 91.7774C55.305 91.8677 55.0983 92 54.9241 92.1669L49.4836 97.381C49.0059 97.8413 48.4376 98.2062 47.8118 98.4546C47.1859 98.703 46.5148 98.8299 45.8374 98.8281H43.125V93.4375C43.125 92.9609 42.9275 92.5039 42.5758 92.1669C42.2242 91.8299 41.7473 91.6406 41.25 91.6406H18.75C18.2527 91.6406 17.7758 91.4513 17.4242 91.1143C17.0725 90.7774 16.875 90.3203 16.875 89.8438C16.875 89.3672 17.0725 88.9101 17.4242 88.5732C17.7758 88.2362 18.2527 88.0469 18.75 88.0469H30C30.4973 88.0469 30.9742 87.8576 31.3258 87.5206C31.6775 87.1836 31.875 86.7266 31.875 86.25C31.875 85.7734 31.6775 85.3164 31.3258 84.9794C30.9742 84.6424 30.4973 84.4531 30 84.4531H18.75C18.2527 84.4531 17.7758 84.2638 17.4242 83.9268C17.0725 83.5899 16.875 83.1328 16.875 82.6562C16.875 82.1797 17.0725 81.7226 17.4242 81.3857C17.7758 81.0487 18.2527 80.8594 18.75 80.8594H30C30.4973 80.8594 30.9742 80.6701 31.3258 80.3331C31.6775 79.9961 31.875 79.5391 31.875 79.0625C31.875 78.5859 31.6775 78.1289 31.3258 77.7919C30.9742 77.4549 30.4973 77.2656 30 77.2656H18.75C18.2527 77.2656 17.7758 77.0763 17.4242 76.7393C17.0725 76.4024 16.875 75.9453 16.875 75.4688C16.875 74.9922 17.0725 74.5351 17.4242 74.1982C17.7758 73.8612 18.2527 73.6719 18.75 73.6719H30C30.4973 73.6719 30.9742 73.4826 31.3258 73.1456C31.6775 72.8086 31.875 72.3516 31.875 71.875C31.875 71.3984 31.6775 70.9414 31.3258 70.6044C30.9742 70.2674 30.4973 70.0781 30 70.0781H18.75C18.2527 70.0781 17.7758 69.8888 17.4242 69.5518C17.0725 69.2149 16.875 68.7578 16.875 68.2812C16.875 67.8047 17.0725 67.3476 17.4242 67.0107C17.7758 66.6737 18.2527 66.4844 18.75 66.4844H46.4323L61.0364 73.4821C61.2968 73.6069 61.5839 73.6719 61.875 73.6719H73.125V91.6406H56.25ZM101.25 95.2344C100.753 95.2338 100.276 95.0444 99.9248 94.7075C99.5733 94.3706 99.3756 93.9139 99.375 93.4375V82.6562C99.375 82.1797 99.1775 81.7226 98.8258 81.3857C98.4742 81.0487 97.9973 80.8594 97.5 80.8594C97.0027 80.8594 96.5258 81.0487 96.1742 81.3857C95.8225 81.7226 95.625 82.1797 95.625 82.6562V93.4375C95.625 93.9141 95.4275 94.3711 95.0758 94.7081C94.7242 95.0451 94.2473 95.2344 93.75 95.2344C93.2527 95.2344 92.7758 95.0451 92.4242 94.7081C92.0725 94.3711 91.875 93.9141 91.875 93.4375V82.6562C91.875 82.1797 91.6775 81.7226 91.3258 81.3857C90.9742 81.0487 90.4973 80.8594 90 80.8594C89.5027 80.8594 89.0258 81.0487 88.6742 81.3857C88.3225 81.7226 88.125 82.1797 88.125 82.6562V93.4375C88.125 93.9141 87.9275 94.3711 87.5758 94.7081C87.2242 95.0451 86.7473 95.2344 86.25 95.2344C85.7527 95.2344 85.2758 95.0451 84.9242 94.7081C84.5725 94.3711 84.375 93.9141 84.375 93.4375V82.6562C84.375 82.1797 84.1775 81.7226 83.8258 81.3857C83.4742 81.0487 82.9973 80.8594 82.5 80.8594C82.0027 80.8594 81.5258 81.0487 81.1742 81.3857C80.8225 81.7226 80.625 82.1797 80.625 82.6562V93.4375C80.625 93.9141 80.4275 94.3711 80.0758 94.7081C79.7242 95.0451 79.2473 95.2344 78.75 95.2344C78.2527 95.2344 77.7758 95.0451 77.4242 94.7081C77.0725 94.3711 76.875 93.9141 76.875 93.4375V66.9087L84.177 52.913C84.3072 52.6635 84.375 52.3884 84.375 52.1094V46.7188H103.125V57.5C103.125 57.736 103.173 57.9696 103.268 58.1876C103.362 58.4057 103.5 58.6038 103.674 58.7706L109.115 63.9845C109.595 64.4422 109.976 64.9867 110.235 65.5865C110.494 66.1862 110.627 66.8293 110.625 67.4785V70.0781H105C104.503 70.0781 104.026 70.2674 103.674 70.6044C103.323 70.9414 103.125 71.3984 103.125 71.875V93.4375C103.124 93.9139 102.927 94.3706 102.575 94.7075C102.224 95.0444 101.747 95.2338 101.25 95.2344ZM112.5 91.6406H106.875V73.6719H112.5V91.6406Z" fill="black"/>
<path d="M65.1184 48.5156C64.438 48.5139 63.764 48.6414 63.1354 48.8909C62.5068 49.1405 61.936 49.507 61.4563 49.9693L59.9999 51.3653L58.5434 49.9693C57.9191 49.3712 57.1457 48.936 56.2965 48.7048C55.4473 48.4737 54.5506 48.4544 53.6915 48.6488C52.8323 48.8431 52.0393 49.2447 51.3876 49.8153C50.7359 50.386 50.2472 51.1068 49.9679 51.9093C49.521 53.2047 49.4976 54.6001 49.9008 55.9086C50.3039 57.2172 51.1145 58.3765 52.224 59.2315L58.828 64.2938C59.1604 64.5486 59.5734 64.6874 59.9991 64.6874C60.4248 64.6874 60.8379 64.5486 61.1703 64.2938L67.7759 59.2295C68.8851 58.3745 69.6954 57.2153 70.0986 55.907C70.5017 54.5987 70.4784 53.2036 70.0318 51.9084C69.6887 50.9198 69.0293 50.06 68.1473 49.4509C67.2653 48.8419 66.2055 48.5146 65.1184 48.5156ZM65.4334 56.4239L59.9999 60.5895L54.5666 56.4239C54.0547 56.0294 53.6808 55.4946 53.4948 54.8909C53.3088 54.2872 53.3196 53.6435 53.5257 53.0458C53.6029 52.8245 53.7378 52.6257 53.9176 52.4684C54.0974 52.3111 54.3162 52.2003 54.5532 52.1467C54.7902 52.0931 55.0375 52.0984 55.2718 52.1621C55.506 52.2257 55.7194 52.3457 55.8917 52.5105L58.674 55.1769C58.8481 55.3438 59.0548 55.4761 59.2823 55.5664C59.5098 55.6567 59.7536 55.7032 59.9999 55.7032C60.2461 55.7032 60.4899 55.6567 60.7174 55.5664C60.9449 55.4761 61.1516 55.3438 61.3257 55.1769L64.108 52.5105C64.2803 52.3457 64.4937 52.2257 64.7279 52.1621C64.9622 52.0984 65.2095 52.0931 65.4465 52.1467C65.6835 52.2003 65.9023 52.3111 66.0821 52.4684C66.2619 52.6257 66.3968 52.8245 66.474 53.0458C66.6801 53.6434 66.6909 54.2871 66.505 54.8908C66.319 55.4945 65.9451 56.0294 65.4334 56.4239Z" fill="black"/>
</svg>
