<svg width="120" height="115" viewBox="0 0 120 115" fill="none" xmlns="http://www.w3.org/2000/svg">
<g clip-path="url(#clip0)">
<path d="M90 5.74981V78.5832C89.9934 80.6976 88.2064 82.4102 86 82.4165C7.99999 82.4165 13.4 82.3379 12 82.589V2.08897C13.4 1.83597 7.75199 1.91647 86 1.91647C88.2064 1.92279 89.9934 3.63533 90 5.74981Z" fill="#FFDC00"/>
<path d="M90.0001 5.74959V78.5829C89.9935 80.6974 88.2065 82.41 86 82.4163H80C82.2064 82.41 83.9935 80.6974 84 78.5829V5.74959C83.9935 3.63512 82.2064 1.92257 80 1.91626H86C88.2065 1.92257 89.9935 3.63512 90.0001 5.74959Z" fill="#FEC108"/>
<path d="M118 78.5828V86.2494H79.7402C80.3497 84.8985 81.1073 83.6135 82.0003 82.4161H86.0003C88.2067 82.4098 89.9937 80.6972 90.0002 78.5828H118Z" fill="#F44335"/>
<path d="M90.0001 93.916V101.583C89.9935 103.697 88.2065 105.41 86.0001 105.416H82.0001C79.4444 102.078 78.0454 98.056 78.0001 93.916H90.0001Z" fill="#783E22"/>
<path d="M118 72.8327V78.5827H90V70.916H116C117.105 70.916 118 71.7741 118 72.8327Z" fill="#37474F"/>
<path d="M112 72.8327V78.5827H90V70.916H110C111.105 70.916 112 71.7741 112 72.8327Z" fill="#607D8B"/>
<path d="M98.0002 9.5835H108V32.5835H98.0002V9.5835Z" fill="#FFE0B2"/>
<path d="M90 9.5835H98V32.5835H90V9.5835Z" fill="#3F51B5"/>
<path d="M118 11.5002V30.6668C118 31.7254 117.105 32.5835 116 32.5835H108V9.5835H116C117.105 9.5835 118 10.4416 118 11.5002Z" fill="#F44335"/>
<path d="M118 42.1659V61.3326C118.061 62.3223 117.282 63.1756 116.25 63.2492H90V40.2493H116.25C117.282 40.3229 118.061 41.1762 118 42.1659Z" fill="#DFC49C"/>
<path d="M112 42.1659V61.3326C112.074 62.3062 111.322 63.158 110.308 63.2492H90V40.2493H110.308C111.322 40.3405 112.074 41.1923 112 42.1659Z" fill="#FFE0B2"/>
<path d="M104 55.5834C106.209 55.5834 108 53.8672 108 51.7501C108 49.633 106.209 47.9167 104 47.9167C101.791 47.9167 100 49.633 100 51.7501C100 53.8672 101.791 55.5834 104 55.5834Z" fill="#F44335"/>
<path d="M12.0001 2.08936V82.5894C6.23091 83.5239 2.00604 88.3096 2.00011 93.9169L2.00012 13.4169C1.99779 7.80671 6.22656 3.01657 12.0001 2.08936Z" fill="#F44335"/>
<path d="M82.0007 105.416C10.0406 105.416 14.0486 105.476 12.8606 105.301C7.23744 104.789 2.75299 100.58 2.10169 95.2027C1.45038 89.8256 4.80944 84.7439 10.1606 83.0106C12.7246 82.1635 10.0686 82.4165 82.0007 82.4165C76.6673 89.2313 76.6673 98.6017 82.0007 105.416Z" fill="#DFC49C"/>
<path d="M76.0007 105.416C9.41864 105.416 14.0146 105.47 12.8606 105.301C7.23744 104.789 2.75299 100.579 2.10169 95.2022C1.45038 89.8251 4.80944 84.7433 10.1606 83.0101C12.8826 82.1112 11.7606 82.416 76.0007 82.416C70.6673 89.2308 70.6673 98.6011 76.0007 105.416Z" fill="#FFE0B2"/>
<path d="M75.8801 45.5209C73.9043 49.9912 70.662 53.8421 66.5201 56.6375C61.8713 55.1756 56.898 54.9373 52.1201 55.9475C49.0049 56.7456 46.1458 58.2737 43.8001 60.3942C41.2651 59.7267 38.846 58.7064 36.6201 57.3659C37.029 56.0918 37.3431 54.7916 37.5601 53.475C37.6306 51.5633 37.4492 49.6507 37.0201 47.7825C36.5601 43.8342 39.4001 40.7675 39.7401 36.9534C40.1181 32.8172 34.5781 33.2753 31.4401 32.0467C28.602 30.7261 26.6477 28.1257 26.2401 25.1275C27.3896 22.5976 28.9563 20.2614 30.8801 18.2084C35.0025 18.2512 39.1143 17.8005 43.1201 16.8667C47.3796 16.1173 50.9873 13.4187 52.7801 9.64087C56.3278 9.86161 59.7946 10.7541 62.9801 12.2667V12.2859L62.9601 12.305C60.7194 14.8398 57.8523 16.7967 54.6201 17.9975C47.6741 21.0872 47.6041 27.9642 55.5001 29.6317C59.1601 30.4175 62.4401 32.3725 62.4601 36.3209C62.4601 40.3957 59.6261 43.6042 59.5601 46.9009C59.5297 48.0518 60.0631 49.15 61.0016 49.8687C61.9401 50.5875 63.1754 50.8439 64.3401 50.5617C68.5681 50.002 70.5721 46.6287 75.8801 45.5209Z" fill="#00BCD4"/>
<path d="M37.0202 47.7822C37.4442 51.4411 38.3362 51.9165 36.6202 57.3464C25.3305 50.5383 20.9205 36.8497 26.2402 25.1272C26.6478 28.1253 28.6021 30.7258 31.4402 32.0464C34.5762 33.273 40.1182 32.813 39.7402 36.953C39.4002 40.7672 36.5602 43.8339 37.0202 47.7822Z" fill="#60A917"/>
<path d="M52.7803 9.64096C50.9874 13.4188 47.3798 16.1174 43.1203 16.8668C39.1145 17.8006 35.0027 18.2513 30.8803 18.2085C36.4101 12.2676 44.492 9.10588 52.7803 9.64096Z" fill="#549414"/>
<path d="M66.5202 56.6182V56.6373C59.9148 61.084 51.5786 62.4623 43.8002 60.394C46.1459 58.2735 49.005 56.7454 52.1202 55.9473C56.8973 54.9425 61.8674 55.1741 66.5202 56.6182Z" fill="#549414"/>
<path d="M78.0004 35.4581C78.0009 38.9142 77.2801 42.3355 75.8804 45.5206C73.5777 46.0856 71.4066 47.0609 69.4804 48.3956C64.0444 52.298 59.4484 50.5289 59.5604 46.9006C59.6264 43.5906 62.4604 40.407 62.4604 36.3206C62.4404 32.3723 59.1604 30.4173 55.5004 29.6315C47.6004 27.9621 47.6704 21.0831 54.6204 17.9973C56.8414 17.1144 58.9165 15.9264 60.7804 14.4706C61.5823 13.8086 62.3187 13.0772 62.9804 12.2856C72.139 16.685 77.9437 25.6405 78.0004 35.4581Z" fill="#549414"/>
<path d="M36 93.916V111.166C35.9979 111.83 35.637 112.446 35.0462 112.794C34.4554 113.141 33.719 113.171 33.1 112.872L28.9 110.859C28.3326 110.591 27.6673 110.591 27.1 110.859L22.9 112.872C22.3172 113.158 21.6248 113.15 21.0492 112.851C20.4735 112.552 20.0885 112.001 20.02 111.377C19.954 111.185 20 109.652 20 93.916H36Z" fill="#F44335"/>
<path d="M30.0002 93.916C30.0002 113.098 30.0162 110.974 29.9722 111.373L33.1002 112.872C33.7192 113.171 34.4556 113.141 35.0464 112.794C35.6372 112.446 35.9981 111.83 36.0002 111.166V93.916H30.0002Z" fill="#C81E1E"/>
<path d="M118 86.2495V91.9995C118 93.0581 117.105 93.9162 116 93.9162H78.0001C77.9995 91.2706 78.593 88.6559 79.7401 86.2495H118Z" fill="#FEC108"/>
<path d="M112 86.2495V91.9995C112 93.0581 111.105 93.9162 110 93.9162H78.0001C77.9995 91.2706 78.593 88.6559 79.7401 86.2495H112Z" fill="#FFDC00"/>
<path d="M112 78.5828H118V86.2494H112V78.5828Z" fill="#C81E1E"/>
<path d="M0 13.4167V93.9167C0.00881728 101.323 6.27167 107.325 14 107.333H18V111.167C17.9986 112.498 18.7182 113.735 19.9007 114.433C21.0833 115.132 22.5594 115.193 23.8 114.594L28 112.575L32.21 114.594C33.4498 115.188 34.9224 115.125 36.1019 114.427C37.2814 113.729 37.9996 112.495 38 111.167V107.333H86C89.3137 107.333 92 104.759 92 101.583V95.8333H116C118.209 95.8333 120 94.1171 120 92V72.8333C120 70.7162 118.209 69 116 69H92V65.1667H116C118.209 65.1667 120 63.4504 120 61.3333V42.1667C120 40.0496 118.209 38.3333 116 38.3333H92V34.5H116C118.209 34.5 120 32.7838 120 30.6667V11.5C120 9.38291 118.209 7.66667 116 7.66667H92V5.75C92 2.57436 89.3137 0 86 0H14C6.27167 0.00844989 0.00881728 6.01035 0 13.4167ZM4 13.4167C4.00522 9.6107 6.3601 6.16839 10 4.646V81.0539C7.71707 81.697 5.64888 82.9001 4 84.5442V13.4167ZM29.8 109.146C28.6724 108.61 27.3476 108.61 26.22 109.146L22 111.167V95.8333H34V111.167L29.8 109.146ZM38 95.8333H46C47.1046 95.8333 48 94.9752 48 93.9167C48 92.8581 47.1046 92 46 92H12C10.8954 92 10 92.8581 10 93.9167C10 94.9752 10.8954 95.8333 12 95.8333H18V103.5H14C8.47715 103.5 4 99.2094 4 93.9167C4 88.6239 8.47715 84.3333 14 84.3333H78.46C75.1808 90.3358 75.1808 97.4976 78.46 103.5H38V95.8333ZM91.632 80.5H116V84.3333H86C88.5336 84.3233 90.7875 82.7892 91.632 80.5ZM88 101.583C88 102.642 87.1046 103.5 86 103.5H83.078C81.4944 101.194 80.4813 98.5717 80.116 95.8333H88V101.583ZM80.116 92C80.2787 90.6905 80.6016 89.4039 81.078 88.1667H116V92H80.116ZM116 72.8333V76.6667H92V72.8333H116ZM116 42.1667V61.3333H92V42.1667H116ZM100 30.6667V11.5H106V30.6667H100ZM116 30.6667H110V11.5H116V30.6667ZM96 11.5V30.6667H92V11.5H96ZM88 5.75V78.5833C88 79.6419 87.1046 80.5 86 80.5H14V3.83333H86C87.1046 3.83333 88 4.69145 88 5.75Z" fill="black"/>
<path d="M104 57.5C107.314 57.5 110 54.9256 110 51.75C110 48.5744 107.314 46 104 46C100.686 46 98.0002 48.5744 98.0002 51.75C98.0002 54.9256 100.686 57.5 104 57.5ZM104 49.8333C105.105 49.8333 106 50.6915 106 51.75C106 52.8085 105.105 53.6667 104 53.6667C102.896 53.6667 102 52.8085 102 51.75C102 50.6915 102.896 49.8333 104 49.8333Z" fill="black"/>
<path d="M35.3081 58.7932C35.348 58.8197 35.3894 58.844 35.4321 58.8661C48.3781 66.7805 65.5193 63.6377 74.5026 51.7026C83.4859 39.7675 81.1892 23.188 69.2676 13.9125C57.346 4.63701 39.9429 5.88911 29.6001 16.7665C29.4992 16.8523 29.408 16.948 29.3281 17.0521C23.7 23.1032 21.121 31.2138 22.2715 39.2445C23.4221 47.2752 28.1865 54.4196 35.3081 58.7932ZM26.5081 30.6182C27.5524 32.038 28.9926 33.1472 30.6641 33.8191C33.9241 35.1147 37.9141 34.718 37.7381 36.7918C37.5287 38.224 37.1064 39.6201 36.4841 40.9376C34.6561 45.4168 34.7581 46.7757 35.3101 49.8194C35.7286 51.234 35.7569 52.7286 35.3921 54.1568C28.0384 48.5391 24.6066 39.4353 26.5161 30.6106L26.5081 30.6182ZM48.7081 59.3126C52.467 57.448 56.7522 56.7921 60.9301 57.442C57.0879 59.0473 52.8824 59.6885 48.7101 59.305L48.7081 59.3126ZM66.0821 54.521C61.3807 53.2237 56.4155 53.0735 51.6381 54.084C48.5816 54.8559 45.7486 56.2848 43.3541 58.2623C41.8296 57.7912 40.3561 57.1801 38.9541 56.4376C39.7603 54.0845 39.8683 51.5629 39.2661 49.1543C38.8261 46.7106 38.6921 46.0704 40.2241 42.3233C40.9953 40.6644 41.5049 38.9048 41.7361 37.1023C41.9609 34.8706 40.6247 32.7638 38.4541 31.9273C34.3061 30.187 30.0541 31.6839 28.3661 25.3666C29.2788 23.4793 30.4439 21.7139 31.8321 20.1149C35.8034 20.0953 39.7586 19.6283 43.6161 18.7234C47.9479 17.8961 51.7061 15.3382 53.9481 11.6912C55.8482 11.9091 57.7155 12.3381 59.5121 12.9696C57.7854 14.3266 55.861 15.4346 53.8001 16.2586C50.7403 17.4506 48.4437 19.9525 47.6001 23.0129C46.7501 27.5707 50.8801 30.6106 55.0741 31.5057C65.4281 33.7079 57.6741 41.5835 57.5581 46.8601C57.4981 48.4007 58.1203 49.894 59.2712 50.9713C60.422 52.0486 61.9943 52.6097 63.6001 52.5161C66.3405 52.3216 68.9527 51.3262 71.0841 49.6641C69.6657 51.5012 67.9823 53.1358 66.0841 54.5191L66.0821 54.521ZM36.4341 16.0247C40.1423 13.4583 44.519 11.9246 49.0801 11.5934C46.0261 14.7195 41.2181 15.5475 36.4341 16.0247ZM74.3521 43.9371C69.2401 45.4111 67.4161 48.2401 64.0821 48.6502C63.3615 48.7841 62.6155 48.6198 62.0281 48.1979C60.0781 46.5189 64.4541 41.5547 64.4541 36.3146C64.4401 32.0289 61.3341 28.9124 55.9361 27.7643C55.7361 27.7222 50.9741 26.6699 51.5361 23.6914C52.1606 21.8808 53.5992 20.434 55.4561 19.7488C58.4362 18.5859 61.1464 16.8688 63.4301 14.6965C74.0976 20.528 78.7348 32.9428 74.3521 43.9371Z" fill="black"/>
<path d="M68 67.084H34C32.8955 67.084 32 67.9421 32 69.0007C32 70.0592 32.8955 70.9173 34 70.9173H68C69.1046 70.9173 70 70.0592 70 69.0007C70 67.9421 69.1046 67.084 68 67.084Z" fill="black"/>
</g>
<defs>
<clipPath id="clip0">
<rect width="120" height="115" fill="white"/>
</clipPath>
</defs>
</svg>
