<svg width="120" height="115" viewBox="0 0 120 115" fill="none" xmlns="http://www.w3.org/2000/svg">
<path d="M88.125 68.9843V86.0321C88.1249 88.4727 87.1131 90.8132 85.3124 92.539C83.5116 94.2647 81.0693 95.2342 78.5227 95.2344H15.2273C12.6807 95.2342 10.2384 94.2647 8.43762 92.539C6.63686 90.8132 5.62514 88.4727 5.625 86.0321V83.8444C5.62477 58.194 11.3556 32.8408 22.432 9.48975L24.375 5.39063H69.7148C71.7716 5.39059 73.7713 6.0388 75.4057 7.23535C77.0402 8.43191 78.2186 10.1104 78.7594 12.0121L81.518 21.7062C85.903 37.1142 88.1249 53.0136 88.125 68.9843Z" fill="#EEDC9A"/>
<path d="M81.5179 21.7062L78.7593 12.0121C78.2876 10.3537 77.3293 8.85984 75.9983 7.70765C74.6673 6.55546 73.0193 5.79334 71.2499 5.51169V5.39062H54.3749V19.7656H62.9572C54.8056 40.2264 50.6261 61.943 50.6249 83.8444V86.0321C50.625 88.4727 51.6367 90.8133 53.4374 92.5391C55.2382 94.2648 57.6806 95.2343 60.2273 95.2344H78.5226C81.0693 95.2343 83.5117 94.2648 85.3124 92.5391C87.1132 90.8133 88.1249 88.4727 88.1249 86.0321V68.9843C88.1249 53.0136 85.903 37.1142 81.5179 21.7062Z" fill="#E88604"/>
<path d="M60 21.5625C60 22.9922 60.5926 24.3633 61.6475 25.3742C62.7024 26.3852 64.1332 26.9531 65.625 26.9531H15C13.5082 26.9531 12.0774 26.3852 11.0225 25.3742C9.96763 24.3633 9.375 22.9922 9.375 21.5625V14.375C9.375 11.9922 10.3627 9.70698 12.1209 8.02209C13.879 6.33719 16.2636 5.39063 18.75 5.39062H69.375C66.8886 5.39062 64.504 6.33719 62.7459 8.02209C60.9877 9.70698 60 11.9922 60 14.375V21.5625Z" fill="#ECE9C0"/>
<path d="M59.9999 16.1719H71.2499V21.5625C71.2499 22.9922 70.6573 24.3633 69.6024 25.3742C68.5475 26.3852 67.1168 26.9531 65.6249 26.9531C64.1331 26.9531 62.7024 26.3852 61.6475 25.3742C60.5926 24.3633 59.9999 22.9922 59.9999 21.5625V16.1719Z" fill="#EEBE33"/>
<path d="M24.375 62.8906C24.375 66.4533 25.0663 69.9849 26.4138 73.3053L32.8512 89.169C34.2205 92.5434 36.6217 95.4427 39.7399 97.487C42.8582 99.5312 46.5482 100.625 50.3263 100.625H88.4237C92.2018 100.625 95.8918 99.5312 99.0101 97.487C102.128 95.4427 104.529 92.5434 105.899 89.169L112.336 73.3053C113.684 69.9849 114.375 66.4533 114.375 62.8906H24.375Z" fill="#379EC3"/>
<path d="M114.375 62.8906C114.375 66.1272 109.999 69.0786 102.809 71.309C94.5727 73.8628 82.6453 75.4688 69.375 75.4688C56.1047 75.4688 44.1773 73.8628 35.9414 71.309C28.7508 69.0786 24.375 66.1272 24.375 62.8906C24.375 55.9435 44.5219 50.3125 69.375 50.3125C94.2281 50.3125 114.375 55.9435 114.375 62.8906Z" fill="#8ACCE7"/>
<path d="M103.125 70.0781C103.121 70.5065 103.013 70.928 102.809 71.309C94.5726 73.8628 82.6453 75.4688 69.3749 75.4688C56.1046 75.4688 44.1773 73.8628 35.9413 71.309C35.7371 70.928 35.6287 70.5065 35.6249 70.0781C35.6249 65.1165 50.7351 61.0938 69.3749 61.0938C88.0148 61.0938 103.125 65.1165 103.125 70.0781Z" fill="#EEDC9A"/>
<path d="M85.3735 36.8218L100.298 13.4183C101.049 12.2391 102.257 11.3924 103.658 11.0627C105.058 10.733 106.538 10.9469 107.774 11.6579C108.393 12.0137 108.932 12.4834 109.361 13.0398C109.789 13.5963 110.098 14.2285 110.27 14.9001C110.442 15.5716 110.474 16.2692 110.364 16.9526C110.253 17.6359 110.002 18.2916 109.626 18.8816L94.7022 42.2851C93.9502 43.4643 92.7425 44.311 91.3421 44.6407C89.9417 44.9705 88.462 44.7565 87.2255 44.0455C86.6067 43.6897 86.0676 43.22 85.6392 42.6636C85.2108 42.1071 84.9016 41.4749 84.7294 40.8033C84.5572 40.1318 84.5255 39.4342 84.6361 38.7508C84.7466 38.0675 84.9973 37.4119 85.3735 36.8218Z" fill="#A6B2BC"/>
<path d="M76.8749 95.2338L91.898 93.925C92.6088 93.8631 93.3254 93.9438 94.0018 94.162C94.6783 94.3803 95.2999 94.7312 95.827 95.1925C96.3541 95.6538 96.7751 96.2152 97.0631 96.8411C97.3511 97.467 97.4999 98.1435 97.4999 98.8276C97.4999 99.5116 97.3511 100.188 97.0631 100.814C96.7751 101.44 96.3541 102.001 95.827 102.463C95.2999 102.924 94.6783 103.275 94.0018 103.493C93.3254 103.711 92.6088 103.792 91.898 103.73L76.8749 102.421V95.2338Z" fill="#966342"/>
<path d="M78.75 88.0469H24.375C18.1618 88.0469 13.125 92.8738 13.125 98.8281V98.8281C13.125 104.782 18.1618 109.609 24.375 109.609H78.75C84.9632 109.609 90 104.782 90 98.8281C90 92.8738 84.9632 88.0469 78.75 88.0469Z" fill="#723024"/>
<path d="M24.375 109.609C30.5882 109.609 35.625 104.782 35.625 98.8281C35.625 92.8738 30.5882 88.0469 24.375 88.0469C18.1618 88.0469 13.125 92.8738 13.125 98.8281C13.125 104.782 18.1618 109.609 24.375 109.609Z" fill="#984E3C"/>
<path d="M22.5154 102.747L11.2269 103.73C10.516 103.792 9.79952 103.711 9.12303 103.493C8.44654 103.275 7.82494 102.924 7.29787 102.463C6.77079 102.001 6.34981 101.44 6.06178 100.814C5.77376 100.188 5.625 99.5116 5.625 98.8276C5.625 98.1435 5.77376 97.467 6.06179 96.8411C6.34982 96.2152 6.77079 95.6538 7.29787 95.1925C7.82494 94.7312 8.44655 94.3803 9.12303 94.162C9.79952 93.9438 10.516 93.8631 11.2269 93.925L22.5154 94.9085C23.5359 94.9974 24.4849 95.4487 25.1759 96.1739C25.8669 96.899 26.25 97.8456 26.25 98.8276C26.25 99.8096 25.8669 100.756 25.1759 101.481C24.4849 102.206 23.5359 102.658 22.5154 102.747Z" fill="#AD7D4D"/>
<path d="M8.19446 89.0995C7.73556 88.1367 7.49881 87.0904 7.50038 86.032V83.8439C7.49564 65.133 10.5767 46.539 16.6296 28.75H57.688C55.965 33.9349 54.4735 39.2329 53.2464 44.5326L56.9074 45.3111C58.1965 39.7434 59.7864 34.1794 61.6312 28.75H65.6254C67.6138 28.7479 69.5202 27.9899 70.9262 26.6425C72.3322 25.295 73.1231 23.4681 73.1254 21.5625V16.1719C73.1254 15.9359 73.0769 15.7022 72.9827 15.4842C72.8884 15.2662 72.7503 15.0681 72.5762 14.9013C72.4021 14.7344 72.1954 14.6021 71.9679 14.5118C71.7404 14.4215 71.4966 14.375 71.2504 14.375H61.8754C61.8776 12.4694 62.6685 10.6425 64.0745 9.29503C65.4806 7.94758 67.3869 7.18964 69.3754 7.1875H69.7148C71.3594 7.19011 72.9577 7.70958 74.2647 8.66624C75.5716 9.6229 76.5151 10.964 76.9504 12.4838L79.7096 22.1792C80.364 24.4783 80.9788 26.8244 81.537 29.1524L85.1918 28.3476C84.6223 25.9727 83.9951 23.5792 83.3276 21.2336L80.5684 11.5382C79.9153 9.25846 78.5001 7.24689 76.5396 5.8119C74.5791 4.37691 72.1817 3.59771 69.7148 3.59375H18.7504C15.7677 3.59698 12.9082 4.7339 10.7992 6.75507C8.6901 8.77625 7.50375 11.5166 7.50038 14.375V21.5625C7.50239 23.099 8.01724 24.5946 8.96965 25.8306C9.92206 27.0666 11.2621 27.9782 12.7938 28.4321C6.79595 46.3408 3.74491 65.0354 3.75038 83.8439V86.032C3.748 87.6041 4.09968 89.1582 4.78138 90.5881L8.19446 89.0995ZM69.3754 17.9687V21.5625C69.3754 22.5156 68.9803 23.4297 68.277 24.1037C67.5738 24.7776 66.6199 25.1562 65.6254 25.1562C64.6308 25.1562 63.677 24.7776 62.9737 24.1037C62.2705 23.4297 61.8754 22.5156 61.8754 21.5625V17.9687H69.3754ZM11.2504 21.5625V14.375C11.2526 12.4694 12.0435 10.6425 13.4495 9.29503C14.8556 7.94758 16.7619 7.18964 18.7504 7.1875H60.9969C59.146 9.16102 58.123 11.7214 58.1254 14.375V21.5625C58.1238 22.8246 58.4711 24.0646 59.1319 25.1562H15.0004C14.0062 25.1552 13.053 24.7762 12.35 24.1025C11.647 23.4287 11.2515 22.5153 11.2504 21.5625Z" fill="black"/>
<path d="M97.9267 51.3212L97.073 54.8206C108.46 57.372 112.5 60.7623 112.5 62.8903C112.5 64.7197 109.79 66.8427 104.781 68.7186C103.905 66.0461 100.383 63.8364 94.2724 62.1372L93.2273 65.5886C98.4352 67.0367 100.962 68.7845 101.225 69.8904C93.7759 72.0628 82.8972 73.6715 69.3748 73.6715C55.8518 73.6715 44.9728 72.0626 37.5232 69.8901C37.898 68.1943 43.2454 65.313 54.6311 63.8078L54.1186 60.2478C48.406 61.003 43.5512 62.1743 40.0792 63.6352C36.6578 65.0746 34.6112 66.7802 33.9698 68.7188C28.9595 66.8429 26.2498 64.7198 26.2498 62.8903C26.2498 62.1328 26.894 59.4415 35.1834 56.6148C41.4979 54.4616 50.3523 52.9572 60.1155 52.3789L59.8841 48.792C49.7807 49.3905 40.562 50.9663 33.9263 53.229C24.4822 56.4496 22.4998 60.2605 22.4998 62.8903C22.4969 66.676 23.2316 70.429 24.6661 73.9563L28.4606 83.3072L31.9556 82.0047L28.1611 72.6538C27.7328 71.5975 27.3743 70.5164 27.0876 69.4169C29.4923 70.957 32.8209 72.3329 37.03 73.5093C45.6953 75.9315 57.1822 77.2653 69.3748 77.2653C81.5675 77.2653 93.0544 75.9315 101.72 73.5093C105.929 72.3329 109.257 70.957 111.662 69.4169C111.375 70.5164 111.017 71.5975 110.589 72.6538L104.151 88.5174C103.541 90.0215 102.7 91.4296 101.655 92.6947L104.595 94.9256C105.872 93.3794 106.901 91.6583 107.646 89.8198L114.084 73.9562C115.518 70.429 116.253 66.676 116.25 62.8903C116.25 56.3966 104.77 52.8546 97.9267 51.3212Z" fill="black"/>
<path d="M83.0424 37.4134C73.8324 40.6233 66.2494 47.0828 61.8432 55.4718L56.4479 65.8106L59.8019 67.418L65.1975 57.0787C68.9412 49.952 75.2353 44.3539 82.9299 41.3068C83.0238 41.6567 83.1453 41.9993 83.2935 42.3316C78.1215 46.5046 73.4738 52.1927 70.1032 58.51L64.5836 68.7859L67.9177 70.4308L73.4397 60.1505C76.5683 54.2869 80.8528 49.0228 85.6079 45.1628C85.8177 45.3147 86.0356 45.4559 86.2609 45.5858C86.5106 45.7281 86.7688 45.8561 87.0344 45.969C86.2838 47.3163 85.5012 48.7179 84.6864 50.1738C82.6415 53.8317 80.5347 57.6238 78.366 61.5499L74.114 69.2361L77.4273 70.9194L81.6819 63.2283C83.839 59.2996 85.9423 55.5138 87.9918 51.871C88.961 50.1374 89.8929 48.4704 90.772 46.8899C91.1546 53.046 89.7186 59.1808 86.6288 64.5904L83.9957 69.2174L87.2879 70.9381L89.9208 66.3116C93.6009 59.8709 95.1622 52.514 94.3994 45.2074C95.1624 44.6704 95.8088 43.9959 96.3022 43.2216L111.226 19.818C112.241 18.2259 112.554 16.3127 112.097 14.4993C111.64 12.6859 110.45 11.1207 108.789 10.148C107.128 9.17517 105.132 8.87445 103.239 9.31192C101.347 9.74939 99.7132 10.8892 98.6976 12.4808L83.7737 35.8844C83.4675 36.3644 83.222 36.8777 83.0424 37.4134ZM86.9735 37.7582L101.897 14.3548C102.143 13.9687 102.466 13.6329 102.847 13.3664C103.228 13.1 103.661 12.9081 104.119 12.8019C104.578 12.6956 105.054 12.677 105.52 12.7471C105.986 12.8172 106.433 12.9746 106.836 13.2104C107.239 13.4462 107.589 13.7557 107.867 14.1213C108.144 14.4869 108.344 14.9013 108.455 15.3409C108.565 15.7805 108.584 16.2367 108.511 16.6834C108.437 17.1301 108.273 17.5585 108.026 17.9441L93.1024 41.3476C92.8566 41.7336 92.5339 42.0695 92.1527 42.3359C91.7715 42.6024 91.3392 42.7942 90.8805 42.9005C90.4219 43.0068 89.9459 43.0254 89.4797 42.9553C89.0136 42.8852 88.5664 42.7277 88.1638 42.4919C87.7612 42.2561 87.411 41.9466 87.1332 41.5811C86.8555 41.2155 86.6556 40.8011 86.5451 40.3615C86.4345 39.9219 86.4155 39.4657 86.489 39.019C86.5625 38.5723 86.7271 38.1439 86.9735 37.7582Z" fill="black"/>
<path d="M97.0927 93.8675C96.3725 93.2385 95.5238 92.7598 94.6004 92.4616C93.677 92.1634 92.6991 92.0523 91.7285 92.1354L89.9578 92.2896C88.7869 90.4463 87.141 88.9226 85.1782 87.8649C83.2154 86.8072 81.0017 86.2511 78.7499 86.25H24.3749C22.1223 86.2506 19.9077 86.8065 17.944 87.8642C15.9803 88.922 14.3336 90.446 13.162 92.2898L11.3966 92.136C10.4528 92.0538 9.50135 92.1557 8.59979 92.4357C7.69822 92.7157 6.86525 93.168 6.15119 93.7652C5.43713 94.3624 4.85681 95.0921 4.44528 95.9102C4.03376 96.7284 3.79957 97.618 3.75688 98.5253C3.71418 99.4326 3.86385 100.339 4.19686 101.189C4.52987 102.039 5.0393 102.816 5.69436 103.473C6.34943 104.129 7.13655 104.651 8.00815 105.008C8.87975 105.365 9.81775 105.548 10.7655 105.548C10.9752 105.548 11.186 105.539 11.3965 105.52L13.1618 105.366C14.339 107.205 15.9871 108.725 17.9495 109.783C19.912 110.84 22.1237 111.399 24.3749 111.406H78.7499C80.4741 111.411 82.1821 111.088 83.7751 110.456C85.368 109.824 86.8141 108.895 88.0297 107.723C88.7703 107.014 89.4202 106.223 89.9659 105.367L91.7309 105.521C91.9422 105.539 92.157 105.548 92.3694 105.548C93.7826 105.547 95.1625 105.137 96.328 104.371C97.4936 103.605 98.3905 102.519 98.9011 101.257C99.4118 99.9938 99.5123 98.6125 99.1896 97.294C98.8669 95.9754 98.136 94.7811 97.0927 93.8675ZM11.057 101.941C10.6184 101.979 10.1764 101.932 9.75744 101.802C9.33851 101.672 8.95139 101.462 8.61939 101.185C8.2874 100.908 8.01741 100.569 7.8257 100.189C7.63398 99.8089 7.52451 99.3958 7.50388 98.9743C7.48326 98.5527 7.5519 98.1316 7.70567 97.7361C7.85944 97.3407 8.09516 96.9792 8.39863 96.6734C8.70209 96.3676 9.06701 96.1239 9.47141 95.9569C9.8758 95.7899 10.3113 95.7031 10.7516 95.7017C10.8528 95.7017 10.9546 95.7061 11.0571 95.7151L22.3455 96.6985C22.9001 96.7468 23.4157 96.9921 23.7912 97.3861C24.1667 97.7801 24.3749 98.2945 24.3749 98.8281C24.3749 99.3617 24.1667 99.8761 23.7912 100.27C23.4157 100.664 22.9001 100.909 22.3455 100.958H22.3456L11.057 101.941ZM17.5588 104.983L22.6851 104.537H22.6852C24.1716 104.407 25.5538 103.75 26.5603 102.693C27.5668 101.637 28.1248 100.258 28.1248 98.8281C28.1248 97.3977 27.5668 96.0189 26.5603 94.9627C25.5537 93.9064 24.1715 93.249 22.6851 93.1195L17.549 92.672C17.6143 92.6057 17.6793 92.5393 17.7468 92.4748C18.8371 91.4302 20.1793 90.6594 21.6546 90.2307C23.1299 89.802 24.6928 89.7285 26.2048 90.0169C27.7169 90.3052 29.1313 90.9465 30.323 91.8839C31.5146 92.8212 32.4466 94.0257 33.0365 95.3907C33.6264 96.7557 33.8559 98.2391 33.7047 99.7094C33.5535 101.18 33.0263 102.592 32.1697 103.82C31.3132 105.048 30.1537 106.055 28.7941 106.752C27.4344 107.448 25.9166 107.813 24.3749 107.812C23.0981 107.808 21.8355 107.555 20.6638 107.068C19.4921 106.582 18.4358 105.873 17.5588 104.983ZM85.378 105.181C84.5098 106.019 83.4769 106.682 82.3392 107.134C81.2014 107.585 79.9814 107.816 78.7499 107.812H33.5479C34.7988 106.643 35.7928 105.246 36.4715 103.703C37.1503 102.16 37.4999 100.503 37.4999 98.8281C37.4999 97.1536 37.1503 95.4961 36.4715 93.9531C35.7928 92.4101 34.7988 91.0129 33.5479 89.8437H78.7499C80.6042 89.8437 82.4169 90.3706 83.9586 91.3579C85.5004 92.3451 86.702 93.7484 87.4115 95.3902C88.121 97.032 88.3065 98.8386 87.9445 100.581C87.5826 102.324 86.6894 103.925 85.378 105.181ZM92.3694 101.955C92.2683 101.955 92.1661 101.95 92.0682 101.942L91.4852 101.891C92.0067 99.8796 92.0047 97.7762 91.4796 95.7656L92.0671 95.7144C92.5059 95.6762 92.9482 95.7236 93.3674 95.8536C93.7865 95.9837 94.1739 96.1938 94.506 96.4712C94.8381 96.7486 95.1082 97.0876 95.2999 97.4678C95.4916 97.848 95.6009 98.2614 95.6214 98.6832C95.6418 99.1049 95.5729 99.5263 95.4187 99.9218C95.2646 100.317 95.0285 100.679 94.7246 100.985C94.4207 101.29 94.0554 101.534 93.6506 101.701C93.2458 101.867 92.81 101.954 92.3694 101.955L92.3694 101.955Z" fill="black"/>
</svg>
