<svg width="120" height="115" viewBox="0 0 120 115" fill="none" xmlns="http://www.w3.org/2000/svg">
<path d="M76.875 50.3125H103.125V75.4688H76.875V50.3125Z" fill="#3397E8"/>
<path d="M90 75.4688H116.25V100.625H90V75.4688Z" fill="#FFB632"/>
<path d="M90 68.2812C93.1066 68.2812 95.625 65.8678 95.625 62.8906C95.625 59.9135 93.1066 57.5 90 57.5C86.8934 57.5 84.375 59.9135 84.375 62.8906C84.375 65.8678 86.8934 68.2812 90 68.2812Z" fill="#E9EEF2"/>
<path d="M63.75 75.4688H90V100.625H63.75V75.4688Z" fill="#35A872"/>
<path d="M71.25 82.6562H82.5V93.4375H71.25V82.6562Z" fill="#E9EEF2"/>
<path d="M103.125 50.3125H76.875L90 32.3438L103.125 50.3125Z" fill="#EB423F"/>
<path d="M108.75 93.4375H97.5L103.125 82.6562L108.75 93.4375Z" fill="#E9EEF2"/>
<path d="M13.1251 86.25C10.7472 86.2497 8.45816 85.3835 6.72149 83.8268C4.98481 82.2701 3.93023 80.1391 3.77122 77.8653C3.79935 77.0231 3.85951 76.201 3.95169 75.3991C5.90638 58.1154 21.8579 50.3125 41.2501 50.3125C60.6423 50.3125 76.5939 58.1154 78.5486 75.3991C78.64 76.201 78.7001 77.0231 78.729 77.8653C78.57 80.1391 77.5155 82.2701 75.7788 83.8268C74.0421 85.3835 71.7531 86.2497 69.3751 86.25H13.1251Z" fill="#95573A"/>
<path d="M41.25 106.016C51.6053 106.016 60 94.7528 60 80.8594C60 66.966 51.6053 55.7031 41.25 55.7031C30.8947 55.7031 22.5 66.966 22.5 80.8594C22.5 94.7528 30.8947 106.016 41.25 106.016Z" fill="#A36F58"/>
<path d="M63.75 26.9531C69.9632 26.9531 75 22.1262 75 16.1719C75 10.2176 69.9632 5.39062 63.75 5.39062C57.5368 5.39062 52.5 10.2176 52.5 16.1719C52.5 22.1262 57.5368 26.9531 63.75 26.9531Z" fill="#95573A"/>
<path d="M18.75 26.9531C24.9632 26.9531 30 22.1262 30 16.1719C30 10.2176 24.9632 5.39062 18.75 5.39062C12.5368 5.39062 7.5 10.2176 7.5 16.1719C7.5 22.1262 12.5368 26.9531 18.75 26.9531Z" fill="#95573A"/>
<path d="M41.25 61.0938C56.783 61.0938 69.375 49.8309 69.375 35.9375C69.375 22.0441 56.783 10.7812 41.25 10.7812C25.717 10.7812 13.125 22.0441 13.125 35.9375C13.125 49.8309 25.717 61.0938 41.25 61.0938Z" fill="#AD6643"/>
<path d="M22.5 109.609C29.7487 109.609 35.625 103.173 35.625 95.2344C35.625 87.2953 29.7487 80.8594 22.5 80.8594C15.2513 80.8594 9.375 87.2953 9.375 95.2344C9.375 103.173 15.2513 109.609 22.5 109.609Z" fill="#7A4830"/>
<path d="M60 109.609C67.2487 109.609 73.125 103.173 73.125 95.2344C73.125 87.2953 67.2487 80.8594 60 80.8594C52.7513 80.8594 46.875 87.2953 46.875 95.2344C46.875 103.173 52.7513 109.609 60 109.609Z" fill="#7A4830"/>
<path d="M41.2288 53.9065C49.4999 53.9065 56.2288 48.6671 56.2288 42.2269C56.2288 41.7503 56.0313 41.2933 55.6796 40.9563C55.328 40.6193 54.8511 40.43 54.3538 40.43C53.8565 40.43 53.3796 40.6193 53.028 40.9563C52.6763 41.2933 52.4788 41.7503 52.4788 42.2269C52.4788 46.2263 48.4173 49.5547 43.1038 50.1982V44.4954C43.3021 44.4006 43.4924 44.291 43.6729 44.1677L46.855 41.9915C47.4389 41.5854 47.9135 41.0517 48.2393 40.4348C48.5651 39.8179 48.7328 39.1354 48.7286 38.444C48.7286 36.0717 46.7917 34.1416 44.4109 34.1416H38.0465C35.6657 34.1416 33.7288 36.0717 33.7288 38.444C33.7245 39.1354 33.8922 39.8179 34.2181 40.4348C34.5439 41.0517 35.0184 41.5854 35.6024 41.9915L38.7845 44.1677C38.965 44.2911 39.1553 44.4007 39.3538 44.4954V50.1982C34.0403 49.5547 29.9788 46.2263 29.9788 42.2269C29.9788 41.7503 29.7812 41.2933 29.4296 40.9563C29.078 40.6193 28.6011 40.43 28.1038 40.43C27.6065 40.43 27.1296 40.6193 26.778 40.9563C26.4263 41.2933 26.2288 41.7503 26.2288 42.2269C26.2288 48.6671 32.9577 53.9065 41.2288 53.9065ZM37.7811 39.0657C37.6837 38.9917 37.6057 38.8968 37.5533 38.7888C37.5009 38.6807 37.4755 38.5624 37.4793 38.4433C37.4793 38.0592 37.7394 37.7347 38.0469 37.7347H44.4116C44.7193 37.7347 44.9793 38.0592 44.9793 38.4433C44.9829 38.5624 44.9575 38.6807 44.9051 38.7888C44.8526 38.8968 44.7746 38.9917 44.6772 39.0657L41.4951 41.2417C41.4188 41.298 41.3253 41.3285 41.2292 41.3285C41.133 41.3285 41.0395 41.298 40.9633 41.2417L37.7811 39.0657Z" fill="black"/>
<path d="M52.4788 34.1406C53.5143 34.1406 54.3538 33.3361 54.3538 32.3438C54.3538 31.3514 53.5143 30.5469 52.4788 30.5469C51.4433 30.5469 50.6038 31.3514 50.6038 32.3438C50.6038 33.3361 51.4433 34.1406 52.4788 34.1406Z" fill="black"/>
<path d="M29.9788 34.1406C31.0143 34.1406 31.8538 33.3361 31.8538 32.3438C31.8538 31.3514 31.0143 30.5469 29.9788 30.5469C28.9433 30.5469 28.1038 31.3514 28.1038 32.3438C28.1038 33.3361 28.9433 34.1406 29.9788 34.1406Z" fill="black"/>
<path d="M90 70.0781C91.4834 70.0781 92.9334 69.6566 94.1668 68.8668C95.4001 68.077 96.3614 66.9545 96.9291 65.6412C97.4968 64.3278 97.6453 62.8827 97.3559 61.4884C97.0665 60.0942 96.3522 58.8135 95.3033 57.8083C94.2544 56.8031 92.918 56.1186 91.4632 55.8412C90.0083 55.5639 88.5003 55.7062 87.1299 56.2502C85.7594 56.7942 84.5881 57.7155 83.764 58.8975C82.9399 60.0794 82.5 61.4691 82.5 62.8906C82.5022 64.7962 83.2931 66.6231 84.6992 67.9706C86.1052 69.3181 88.0116 70.076 90 70.0781ZM90 59.2969C90.7417 59.2969 91.4667 59.5076 92.0834 59.9025C92.7001 60.2974 93.1807 60.8587 93.4645 61.5154C93.7484 62.172 93.8226 62.8946 93.6779 63.5917C93.5332 64.2889 93.1761 64.9292 92.6517 65.4318C92.1272 65.9344 91.459 66.2767 90.7316 66.4153C90.0042 66.554 89.2502 66.4828 88.5649 66.2108C87.8797 65.9388 87.294 65.4782 86.882 64.8872C86.4699 64.2962 86.25 63.6014 86.25 62.8906C86.2512 61.9379 86.6466 61.0244 87.3496 60.3507C88.0527 59.677 89.0058 59.298 90 59.2969Z" fill="black"/>
<path d="M116.25 73.6726H105V50.3132C105 49.9445 104.882 49.5848 104.66 49.2833L91.5353 31.3146C91.3624 31.0779 91.1325 30.8846 90.8651 30.7512C90.5977 30.6178 90.3007 30.5481 89.9992 30.5481C89.6977 30.5481 89.4007 30.6178 89.1333 30.7512C88.8659 30.8846 88.636 31.0779 88.4631 31.3146L75.3381 49.2833C75.1174 49.585 74.9993 49.9447 75.0001 50.3132V61.5578C72.4326 58.2497 69.0069 55.505 64.7772 53.3879C68.9533 48.6836 71.229 42.5711 71.229 35.9382C71.2389 33.0073 70.775 30.0927 69.854 27.2979C71.6802 26.3741 73.2533 25.0503 74.4452 23.4342C75.6371 21.8182 76.4143 19.9553 76.7136 17.9972C77.0129 16.0391 76.8258 14.0409 76.1676 12.1651C75.5093 10.2893 74.3985 8.58885 72.9255 7.20191C71.4524 5.81497 69.6586 4.7807 67.6899 4.18319C65.7212 3.58568 63.6332 3.44178 61.5955 3.76319C59.5579 4.08459 57.6281 4.86224 55.9631 6.03292C54.2981 7.2036 52.9449 8.73426 52.0134 10.5005C48.5207 9.46919 44.8836 8.95809 41.2291 8.98506C37.5747 8.95809 33.9378 9.46928 30.4455 10.5007C29.514 8.73448 28.1607 7.20379 26.4957 6.0331C24.8307 4.8624 22.901 4.08473 20.8634 3.76329C18.8257 3.44186 16.7377 3.58573 14.769 4.18322C12.8003 4.78071 11.0065 5.81495 9.53339 7.20187C8.06029 8.5888 6.94947 10.2893 6.29122 12.165C5.63297 14.0408 5.44587 16.039 5.74512 17.9971C6.04437 19.9553 6.82154 21.8181 8.01344 23.4342C9.20535 25.0503 10.7784 26.3741 12.6046 27.2979C11.6834 30.0927 11.2194 33.0073 11.2291 35.9382C11.2291 42.5711 13.5058 48.6839 17.6812 53.3879C8.55272 57.9569 3.17054 65.4505 2.0664 75.2062C2.06405 75.2287 2.06171 75.2511 2.06007 75.2736L1.87983 77.7402C1.87386 77.8213 1.87386 77.9026 1.87983 77.9837C2.02975 80.087 2.81852 82.1023 4.14894 83.7813C5.47935 85.4602 7.29328 86.7295 9.36718 87.4326C8.13009 89.8622 7.49136 92.5316 7.50015 95.2351C7.50015 104.152 14.2291 111.407 22.5001 111.407C26.9533 111.407 30.9571 109.302 33.7068 105.969C36.0205 107.179 38.6142 107.813 41.2501 107.813C43.8861 107.813 46.4798 107.179 48.7935 105.969C51.5432 109.302 55.547 111.407 60.0001 111.407C65.8773 111.407 70.9729 107.742 73.4319 102.423H116.25C116.747 102.423 117.224 102.233 117.576 101.896C117.928 101.559 118.125 101.102 118.125 100.626V75.4694C118.125 74.9929 117.928 74.5358 117.576 74.1988C117.224 73.8619 116.747 73.6726 116.25 73.6726ZM90.0001 35.4777L99.524 48.5163H80.4763L90.0001 35.4777ZM78.7501 52.1101H101.25V73.6726H80.1758C79.8803 71.8364 79.4029 70.0313 78.7501 68.2819V52.1101ZM76.6595 75.5593L76.8283 77.8622C76.6936 79.3834 76.0581 80.8242 75.0133 81.9767C73.9686 83.1292 72.5687 83.9337 71.0158 84.2741C68.6652 81.5305 65.447 79.6669 61.8355 79.1894C61.4941 71.8809 58.9234 65.1372 54.7234 60.4159C57.3715 59.3437 59.827 57.8791 62.0001 56.0755C70.5887 60.0183 75.6494 66.7303 76.6595 75.5593ZM63.729 7.18818C65.7892 7.18755 67.7922 7.83725 69.4284 9.03685C71.0647 10.2365 72.243 11.9192 72.7813 13.8249C73.3197 15.7306 73.188 17.7532 72.4067 19.58C71.6253 21.4068 70.2379 22.9361 68.4587 23.9315C67.1499 21.303 65.3733 18.9131 63.2087 16.8688C60.9751 14.7693 58.3792 13.056 55.536 11.8048C56.3501 10.4067 57.5384 9.24198 58.9785 8.4305C60.4186 7.61903 62.0584 7.19019 63.729 7.18818ZM9.35405 16.1726C9.35349 14.1821 10.0427 12.2478 11.3134 10.6734C12.5842 9.09891 14.3645 7.97343 16.375 7.47362C18.3854 6.97381 20.5121 7.12796 22.4213 7.91188C24.3304 8.6958 25.9139 10.0651 26.923 11.8048C24.0797 13.0559 21.4838 14.7692 19.2503 16.8688C17.0856 18.9129 15.3091 21.3028 14.0003 23.9312C12.5876 23.138 11.4157 22.0048 10.6007 20.6439C9.78574 19.283 9.35599 17.7417 9.35405 16.1726ZM14.9791 35.9382C14.9791 29.487 17.4297 23.6249 21.8798 19.4312C26.6366 14.9484 33.3283 12.5788 41.2291 12.5788C49.1298 12.5788 55.8215 14.9484 60.5786 19.4314C65.0284 23.6249 67.479 29.487 67.479 35.9382C67.479 42.3894 65.0284 48.2515 60.5786 52.445C55.8215 56.9279 49.1305 59.2976 41.2291 59.2976C33.3276 59.2976 26.6366 56.9279 21.8798 52.4452C17.4297 48.2515 14.9791 42.3894 14.9791 35.9382ZM5.63007 77.8631L5.79835 75.56C6.80874 66.7301 11.8687 60.0181 20.4578 56.0749C22.6404 57.8862 25.108 59.3557 27.7691 60.4291C23.5816 65.1518 21.0081 71.9152 20.6648 79.1885C17.05 79.6665 13.8283 81.5339 11.4777 84.2809C9.91737 83.9464 8.50898 83.1438 7.45732 81.9896C6.40567 80.8354 5.76556 79.3899 5.63007 77.8631ZM22.5001 107.813C16.2967 107.813 11.2501 102.171 11.2501 95.2351C11.2501 88.2993 16.2967 82.6569 22.5001 82.6569C28.7036 82.6569 33.7501 88.2993 33.7501 95.2351C33.7501 102.171 28.7036 107.813 22.5001 107.813ZM41.2501 104.219C39.3177 104.213 37.4147 103.764 35.7001 102.91C36.8938 100.514 37.509 97.8904 37.5001 95.2351C37.5001 87.0193 31.7868 80.2197 24.4192 79.2002C24.7797 72.1924 27.4068 65.7865 31.6253 61.7085C34.7571 62.5119 37.9871 62.9097 41.2291 62.8913C44.482 62.9101 47.7228 62.5097 50.8644 61.7009C55.0963 65.7778 57.7234 72.1582 58.0818 79.2006C50.714 80.2192 45.0001 87.0188 45.0001 95.2351C44.9913 97.8904 45.6065 100.514 46.8001 102.91C45.0856 103.764 43.1826 104.213 41.2501 104.219ZM60.0001 107.813C53.7967 107.813 48.7501 102.171 48.7501 95.2351C48.7501 88.2993 53.7967 82.6569 60.0001 82.6569C66.2036 82.6569 71.2501 88.2993 71.2501 95.2351C71.2501 102.171 66.2036 107.813 60.0001 107.813ZM73.1268 87.42C74.8936 86.8122 76.4749 85.7929 77.7285 84.4538H80.6251V91.6413H74.6221C74.3153 90.1784 73.8127 88.7596 73.1268 87.42ZM88.1251 98.8288H74.6221C74.873 97.646 74.9997 96.4421 75.0001 95.2351H82.5001C82.9974 95.2351 83.4743 95.0457 83.826 94.7088C84.1776 94.3718 84.3751 93.9147 84.3751 93.4382V82.6569C84.3751 82.1804 84.1776 81.7233 83.826 81.3863C83.4743 81.0494 82.9974 80.8601 82.5001 80.8601H79.9588C80.3026 79.9332 80.5113 78.9653 80.579 77.9837C80.5847 77.9026 80.5847 77.8213 80.579 77.7402L80.5443 77.2663H88.1251V98.8288ZM114.375 98.8288H91.8751V77.2663H114.375V98.8288Z" fill="black"/>
<path d="M97.5001 95.2343H108.75C109.07 95.2342 109.384 95.1559 109.663 95.0068C109.942 94.8576 110.177 94.6425 110.345 94.382C110.513 94.1214 110.609 93.8241 110.623 93.5181C110.637 93.2121 110.57 92.9077 110.427 92.6337L104.802 81.8525C104.646 81.5541 104.407 81.3031 104.111 81.1277C103.815 80.9523 103.473 80.8594 103.125 80.8594C102.777 80.8594 102.436 80.9523 102.139 81.1277C101.843 81.3031 101.604 81.5541 101.448 81.8525L95.8231 92.6337C95.6802 92.9077 95.6127 93.2121 95.627 93.5181C95.6414 93.8241 95.7371 94.1214 95.9051 94.382C96.0731 94.6425 96.3079 94.8576 96.587 95.0068C96.8662 95.1559 97.1805 95.2342 97.5001 95.2343ZM103.125 86.6742L105.716 91.6405H100.534L103.125 86.6742Z" fill="black"/>
</svg>
