<svg width="120" height="115" viewBox="0 0 120 115" fill="none" xmlns="http://www.w3.org/2000/svg">
<path d="M94.4802 99.1056L86.2433 91.2122L85.4148 92.0062" fill="#394D5C"/>
<path d="M85.4149 92.0061L82.0764 97.3383C81.618 98.0703 81.7385 99.0074 82.3685 99.6112L85.7161 102.819C86.3461 103.423 87.3239 103.538 88.0877 103.099L93.6518 99.8996L94.4805 99.1056L86.2439 91.2122L85.4149 92.0061Z" fill="#394D5C"/>
<path d="M90.6684 95.4531L89.8399 96.2473L84.2758 99.4467C83.6076 99.831 82.7756 99.7908 82.1559 99.3705C82.2187 99.4554 82.2895 99.5363 82.3685 99.6118L85.7161 102.82C86.3461 103.423 87.3239 103.539 88.0877 103.1L93.6518 99.9002L94.4803 99.1062L90.6684 95.4531Z" fill="#2C4252"/>
<path d="M71.687 78.8504L68.3485 84.1826C67.8901 84.9146 68.0106 85.8517 68.6406 86.4554L71.9881 89.6633C72.6181 90.267 73.5959 90.3822 74.3598 89.9431L79.9238 86.7438L80.7523 85.9498L72.5157 78.0564L71.687 78.8504Z" fill="#394D5C"/>
<path d="M76.9405 82.2974L76.1119 83.0916L70.5479 86.2909C69.8797 86.6752 69.0476 86.635 68.428 86.2148C68.4908 86.2997 68.5615 86.3805 68.6405 86.456L71.9881 89.6639C72.6181 90.2676 73.5959 90.3828 74.3598 89.9437L79.9238 86.7444L80.7523 85.9504L76.9405 82.2974Z" fill="#2C4252"/>
<path d="M57.959 65.6937L54.6206 71.0259C54.1622 71.7579 54.2826 72.6949 54.9126 73.2987L58.26 76.5066C58.89 77.1103 59.8678 77.2255 60.6316 76.7864L66.1957 73.5871L67.0242 72.7931L58.7876 64.8997L57.959 65.6937Z" fill="#394D5C"/>
<path d="M63.2125 69.1406L62.384 69.9348L56.8199 73.1342C56.1517 73.5185 55.3197 73.4783 54.7 73.058C54.7628 73.1429 54.8336 73.2238 54.9126 73.2993L58.2599 76.5071C58.8899 77.1109 59.8677 77.2261 60.6316 76.787L66.1956 73.5877L67.0242 72.7937L63.2125 69.1406Z" fill="#2C4252"/>
<path d="M37.3675 45.9603L34.0291 51.2925C33.5706 52.0245 33.6911 52.9615 34.3211 53.5653L37.6687 56.7734C38.2987 57.3771 39.2765 57.4924 40.0403 57.0532L45.6044 53.8539L46.4331 53.0597L38.1965 45.1663L37.3675 45.9603Z" fill="#394D5C"/>
<path d="M42.6211 49.4072L41.7923 50.2012L36.2283 53.4006C35.5601 53.7849 34.728 53.7447 34.1083 53.3244C34.1712 53.4093 34.2419 53.4902 34.3209 53.5656L37.6685 56.7737C38.2985 57.3775 39.2763 57.4927 40.0402 57.0536L45.6042 53.8543L46.4327 53.06L42.6211 49.4072Z" fill="#2C4252"/>
<path d="M23.6404 32.8045L20.3019 38.1367C19.8435 38.8687 19.964 39.8058 20.594 40.4095L23.9413 43.6174C24.5713 44.2211 25.5491 44.3364 26.313 43.8972L31.877 40.6979L32.7056 39.9037L24.4689 32.0103L23.6404 32.8045Z" fill="#394D5C"/>
<path d="M28.8932 36.2515L28.0644 37.0457L22.5003 40.245C21.8321 40.6293 21.0001 40.5891 20.3804 40.1689C20.4432 40.2538 20.514 40.3346 20.593 40.4101L23.9403 43.618C24.5703 44.2217 25.5482 44.337 26.312 43.8979L31.876 40.6985L32.7046 39.9043L28.8932 36.2515Z" fill="#2C4252"/>
<path d="M95.0242 101.215L20.593 29.8851C19.963 29.2813 19.8428 28.3443 20.301 27.6123L23.6394 22.28L24.6501 21.3115L104.255 97.6309L100.515 101.215C98.999 102.668 96.5406 102.668 95.0242 101.215Z" fill="#D0E2ED"/>
<path d="M100.443 93.9771L96.7036 97.5611C95.1872 99.0144 92.7288 99.0144 91.2124 97.5611L95.024 101.214C96.5405 102.667 98.9988 102.667 100.515 101.214L104.255 97.6299L100.443 93.9771Z" fill="#AABFCF"/>
<path d="M68.9414 31.4881L73.9597 28.0368C76.2038 26.4935 79.3644 27.6258 80.0016 30.2014L81.2966 35.4347L75.0319 41.4383L66.7953 33.5449L68.9414 31.4881Z" fill="#394D5C"/>
<path d="M108.583 84.0015V84.0006L97.7752 71.1229C97.3163 70.5762 96.9406 69.9699 96.6589 69.3224L82.8054 37.4755C82.436 36.7383 81.934 36.0467 81.2965 35.4356C80.1718 34.3577 78.7875 33.6805 77.3368 33.4022L64.0578 31.0209C60.9793 30.4688 58.1471 29.0378 55.9325 26.9155L54.2274 25.2814C50.5554 21.7625 48.9617 16.7178 49.98 11.8377L50.6879 8.44562C50.9424 7.22554 50.5439 5.96436 49.6259 5.08479L48.3497 3.86179C45.3172 0.955574 40.4002 0.955574 37.3674 3.86179L23.6396 17.0176C22.1232 18.4708 22.1232 20.8268 23.6396 22.28L103.261 98.5838L108.066 93.9793C110.915 91.2488 111.087 86.9248 108.583 84.0015Z" fill="#118DF0"/>
<path d="M52.5607 49.9965L79.0336 47.69L76.2133 40.6628L45.604 43.3296L52.5607 49.9965Z" fill="#D0E2ED"/>
<path d="M66.1959 63.0629L84.8332 61.4392L81.8901 54.4226L59.2392 56.396L66.1959 63.0629Z" fill="#D0E2ED"/>
<path d="M103.261 98.5842L108.066 93.9797C110.915 91.2494 111.087 86.9254 108.582 84.0021V84.0012L105.368 80.1703L105.354 80.166C99.4693 74.526 89.9274 74.526 84.042 80.166L103.261 98.5842Z" fill="#394D5C"/>
<path d="M103.261 98.5842L108.066 93.9797C110.915 91.2494 111.087 86.9254 108.582 84.0021V84.0012L105.368 80.1703L105.354 80.166C99.4693 74.526 89.9274 74.526 84.042 80.166L103.261 98.5842Z" fill="#D0E2ED"/>
<path d="M108.583 84.0021V84.0012L105.441 80.2583C107.678 83.1704 107.423 87.2897 104.673 89.925L99.4494 94.9313L103.261 98.5841L108.066 93.9797C110.915 91.2493 111.087 86.9254 108.583 84.0021Z" fill="#AABFCF"/>
<path d="M37.3675 14.3857L31.8763 9.12329L23.6396 17.0167C22.1232 18.47 22.1232 20.8259 23.6396 22.2791L37.3675 35.4349C43.4328 29.6223 43.4326 20.1981 37.3675 14.3857Z" fill="#D0E2ED"/>
<path d="M112.418 104.747H100.77V105.87" fill="#394D5C"/>
<path d="M100.77 105.87L102.343 111.903C102.56 112.731 103.336 113.312 104.227 113.312H108.961C109.852 113.312 110.628 112.731 110.844 111.903L112.418 105.87V104.747H100.77V105.87Z" fill="#394D5C"/>
<path d="M107.027 104.747V105.87L105.454 111.903C105.265 112.628 104.647 113.163 103.898 113.286C104.006 113.303 104.115 113.313 104.227 113.313H108.961C109.852 113.313 110.628 112.732 110.844 111.903L112.418 105.871V104.748H107.027V104.747Z" fill="#2C4252"/>
<path d="M81.3554 105.87L82.9293 111.903C83.1454 112.731 83.9219 113.312 84.8127 113.312H89.5466C90.4375 113.312 91.214 112.731 91.4301 111.903L93.0039 105.87V104.747H81.3554V105.87Z" fill="#394D5C"/>
<path d="M87.6132 104.747V105.87L86.0394 111.903C85.8505 112.628 85.2325 113.163 84.4843 113.286C84.5914 113.303 84.7011 113.313 84.8127 113.313H89.5466C90.4375 113.313 91.214 112.732 91.43 111.903L93.0039 105.871V104.748H87.6132V104.747Z" fill="#2C4252"/>
<path d="M61.9415 105.87L63.5153 111.903C63.7314 112.731 64.5079 113.312 65.3988 113.312H70.1327C71.0235 113.312 71.8 112.731 72.0161 111.903L73.5899 105.87V104.747H61.9415V105.87Z" fill="#394D5C"/>
<path d="M68.1993 104.747V105.87L66.6255 111.903C66.4366 112.628 65.8185 113.163 65.0704 113.286C65.1775 113.303 65.2872 113.313 65.3988 113.313H70.1327C71.0235 113.313 71.8 112.732 72.0161 111.903L73.59 105.871V104.748H68.1993V104.747Z" fill="#2C4252"/>
<path d="M32.8201 105.87L34.3939 111.903C34.61 112.731 35.3865 113.312 36.2773 113.312H41.0114C41.9023 113.312 42.6788 112.731 42.8949 111.903L44.4687 105.87V104.747H32.8203V105.87H32.8201Z" fill="#394D5C"/>
<path d="M39.0779 104.747V105.87L37.5041 111.903C37.3152 112.628 36.6971 113.163 35.949 113.286C36.0561 113.303 36.1658 113.313 36.2774 113.313H41.0115C41.9023 113.313 42.6788 112.732 42.8949 111.903L44.4687 105.871V104.748H39.0779V104.747Z" fill="#2C4252"/>
<path d="M13.4063 105.87L14.9801 111.903C15.1962 112.731 15.9727 113.312 16.8635 113.312H21.5975C22.4883 113.312 23.2648 112.731 23.4809 111.903L25.0547 105.87V104.747H13.4063V105.87Z" fill="#394D5C"/>
<path d="M19.6641 104.747V105.87L18.0903 111.903C17.9011 112.628 17.2833 113.163 16.5352 113.286C16.6423 113.303 16.752 113.313 16.8636 113.313H21.5975C22.4883 113.313 23.2648 112.732 23.4809 111.903L25.0548 105.871V104.748H19.6641V104.747Z" fill="#2C4252"/>
<path d="M114.359 105.871H9.09769C8.20683 105.871 7.43035 105.29 7.21425 104.462L5.64043 98.4288V97.0593L118.242 97.0811V102.15C118.242 104.205 116.504 105.871 114.359 105.871Z" fill="#D0E2ED"/>
<path d="M112.852 97.0815V102.15C112.852 104.205 111.113 105.871 108.969 105.871H114.359C116.504 105.871 118.242 104.205 118.242 102.15V97.0815H112.852Z" fill="#AABFCF"/>
<path d="M44.4689 74.2416L45.4708 68.4006C45.9189 65.7886 48.9893 64.4475 51.3403 65.8369L56.1173 68.66V77.1503H44.4689V74.2416Z" fill="#394D5C"/>
<path d="M111.248 84.5115L111.248 84.5109L94.1038 82.7284C93.3758 82.6527 92.6629 82.4788 91.986 82.2118L58.6918 69.0804C57.8868 68.8096 57.0215 68.6606 56.1198 68.6606C54.5291 68.6606 53.0507 69.1197 51.8195 69.9061L40.6729 77.2205C38.0886 78.9163 35.03 79.8237 31.8981 79.8237H29.4868C24.2938 79.8237 19.4446 77.3366 16.5641 73.196L14.5618 70.3178C13.8416 69.2826 12.6294 68.6609 11.3312 68.6609H9.5263C5.23747 68.6609 1.76075 71.9927 1.76075 76.1029V94.7079C1.76075 96.7631 3.49911 98.429 5.64364 98.429H118.245V91.9171C118.245 88.0557 115.176 84.8817 111.248 84.5115Z" fill="#118DF0"/>
<path d="M46.5412 98.4291L63.5587 78.8589L56.3796 75.8013L36.7031 98.4291H46.5412Z" fill="#D0E2ED"/>
<path d="M65.8244 98.4285L77.8047 84.6509L70.5468 81.6838L55.9863 98.4285H65.8244Z" fill="#D0E2ED"/>
<path d="M118.242 98.4278V91.9159C118.242 88.0544 115.173 84.8806 111.246 84.5105L111.245 84.5098L106.145 83.9795L106.133 83.9853C97.8098 83.9853 91.0626 90.4514 91.0626 98.4275H118.242V98.4278Z" fill="#394D5C"/>
<path d="M118.242 98.4278V91.9159C118.242 88.0544 115.173 84.8806 111.246 84.5105L111.245 84.5098L106.145 83.9795L106.133 83.9853C97.8098 83.9853 91.0626 90.4514 91.0626 98.4275H118.242V98.4278Z" fill="#D0E2ED"/>
<path d="M111.246 84.5115L111.245 84.5109L106.262 83.9929C109.992 84.5363 112.851 87.6219 112.851 91.3487V98.4288H118.242V91.9169C118.242 88.0554 115.173 84.8817 111.246 84.5115Z" fill="#AABFCF"/>
<path d="M9.52336 83.5439H1.75781V94.707C1.75781 96.7622 3.49617 98.4281 5.6407 98.4281H25.0547C25.0547 90.2079 18.101 83.5439 9.52336 83.5439Z" fill="#D0E2ED"/>
<path d="M114.359 107.555H56.0763C55.1055 107.555 54.3185 106.801 54.3185 105.871C54.3185 104.94 55.1055 104.186 56.0763 104.186H114.359C115.531 104.186 116.484 103.273 116.484 102.15V100.113H7.89183L8.91956 104.053C8.93995 104.132 9.01331 104.186 9.09768 104.186H49.045C50.0158 104.186 50.8028 104.94 50.8028 105.871C50.8028 106.802 50.0158 107.556 49.045 107.556H9.09768C7.39706 107.556 5.92143 106.451 5.50893 104.87L3.93534 98.8375C3.80386 98.3342 3.92198 97.8012 4.25503 97.3921C4.58808 96.9831 5.09925 96.7441 5.64065 96.7441H118.242C119.213 96.7441 120 97.4982 120 98.4287V102.15C120 105.13 117.47 107.555 114.359 107.555Z" fill="black"/>
<path d="M21.5973 114.998H16.8634C15.1628 114.998 13.6872 113.894 13.2747 112.313L11.7011 106.28C11.5698 105.777 11.6877 105.244 12.0208 104.835C12.3538 104.426 12.865 104.187 13.4064 104.187H25.0548C25.5962 104.187 26.1072 104.426 26.4405 104.835C26.7735 105.244 26.8916 105.777 26.7601 106.28L25.1863 112.313C24.7736 113.894 23.298 114.998 21.5973 114.998ZM15.6576 107.556L16.6851 111.496C16.7055 111.574 16.7788 111.629 16.8632 111.629H21.5973C21.6817 111.629 21.7548 111.574 21.7755 111.496L22.8032 107.556H15.6576Z" fill="black"/>
<path d="M108.961 114.998H104.227C102.526 114.998 101.05 113.894 100.638 112.313L99.0644 106.28C98.9331 105.777 99.051 105.244 99.384 104.835C99.7171 104.426 100.228 104.187 100.77 104.187H112.418C112.959 104.187 113.47 104.426 113.804 104.835C114.137 105.244 114.255 105.777 114.123 106.28L112.55 112.313C112.137 113.894 110.661 114.998 108.961 114.998ZM103.021 107.556L104.049 111.496C104.069 111.574 104.142 111.629 104.227 111.629H108.961C109.045 111.629 109.118 111.574 109.139 111.496L110.167 107.556H103.021Z" fill="black"/>
<path d="M89.5467 114.998H84.8125C83.1121 114.998 81.6363 113.894 81.224 112.313L79.6502 106.28C79.5187 105.777 79.6368 105.244 79.9699 104.835C80.3029 104.426 80.8141 104.187 81.3555 104.187H93.0039C93.5453 104.187 94.0563 104.426 94.3896 104.835C94.7226 105.244 94.8407 105.777 94.7093 106.28L93.1354 112.313C92.7229 113.894 91.2473 114.998 89.5467 114.998ZM83.6069 107.556L84.6346 111.496C84.655 111.574 84.7284 111.629 84.8128 111.629H89.5469C89.6313 111.629 89.7046 111.574 89.725 111.496L90.7528 107.556H83.6069Z" fill="black"/>
<path d="M70.1324 114.998H65.3985C63.6979 114.998 62.2222 113.894 61.8097 112.313L60.2359 106.28C60.1044 105.777 60.2226 105.244 60.5556 104.835C60.8887 104.426 61.3998 104.187 61.9412 104.187H73.5897C74.1311 104.187 74.642 104.426 74.9753 104.835C75.3083 105.244 75.4265 105.777 75.295 106.28L73.7212 112.313C73.3089 113.894 71.833 114.998 70.1324 114.998ZM64.1926 107.556L65.2204 111.496C65.2408 111.574 65.3141 111.629 65.3985 111.629H70.1324C70.2168 111.629 70.2901 111.574 70.3105 111.496L71.3383 107.556H64.1926Z" fill="black"/>
<path d="M41.0114 114.998H36.2775C34.5769 114.998 33.1012 113.894 32.6887 112.313L31.1149 106.28C30.9834 105.777 31.1016 105.244 31.4346 104.835C31.7677 104.426 32.2788 104.187 32.8202 104.187H44.4687C45.0101 104.187 45.521 104.426 45.8543 104.835C46.1873 105.244 46.3055 105.777 46.174 106.28L44.6002 112.313C44.1879 113.894 42.712 114.998 41.0114 114.998ZM35.0716 107.556L36.0994 111.496C36.1198 111.574 36.1931 111.629 36.2775 111.629H41.0114C41.0958 111.629 41.1691 111.574 41.1895 111.496L42.2173 107.556H35.0716Z" fill="black"/>
<path d="M118.242 100.112H5.6407C2.53031 100.112 0 97.687 0 94.7062V76.1009C0 71.0685 4.27219 66.9744 9.52336 66.9744H11.3283C13.2183 66.9744 14.9728 67.8742 16.0214 69.3813L18.0237 72.2596C19.9214 74.9875 22.793 76.9322 26.1096 77.7354C27.0509 77.9634 27.6211 78.8796 27.3832 79.7814C27.1453 80.6832 26.1893 81.2303 25.2483 81.0019C21.0848 79.9936 17.4804 77.5526 15.0984 74.1284L13.0962 71.2503C12.701 70.6827 12.0401 70.3435 11.328 70.3435H9.52312C6.2107 70.3437 3.51562 72.9265 3.51562 76.1009V94.7062C3.51562 95.829 4.46883 96.7425 5.6407 96.7425H116.484V91.9154C116.484 88.94 114.158 86.477 111.074 86.1863C111.052 86.1843 111.031 86.1818 111.01 86.1794L93.9115 84.4016C93.0187 84.3088 92.145 84.0959 91.3144 83.7682L58.0662 70.6548C57.438 70.4482 56.7825 70.3435 56.1171 70.3435C54.9277 70.3435 53.7778 70.6764 52.7916 71.3062L41.6632 78.6089C39.0166 80.3456 35.9243 81.3411 32.7206 81.4875C31.7494 81.5374 30.9272 80.8146 30.8808 79.8851C30.8346 78.9559 31.5832 78.1666 32.5528 78.1222C35.1052 78.0052 37.5687 77.2123 39.6769 75.8287L50.8235 68.5143C52.4072 67.5026 54.2313 66.9744 56.1169 66.9744C57.1943 66.9744 58.2558 67.1478 59.2713 67.4894C59.3004 67.4991 59.3295 67.5096 59.358 67.5211L92.652 80.6526C93.1758 80.8593 93.7273 80.9938 94.2905 81.0522L111.434 82.8347C111.446 82.8358 111.457 82.8372 111.468 82.8385C116.336 83.3217 120 87.2155 120 91.9157V98.4273C120 99.3576 119.213 100.112 118.242 100.112Z" fill="black"/>
<path d="M44.471 75.9258C44.3761 75.9258 44.2803 75.9186 44.1837 75.9031C43.2258 75.7521 42.5768 74.8858 42.7343 73.9676L43.7363 68.1267C44.0419 66.3446 45.2482 64.8339 46.9629 64.0848C48.6776 63.3357 50.6588 63.4543 52.2631 64.4024L57.0401 67.2255C57.8663 67.7138 58.1232 68.7517 57.6136 69.5435C57.1041 70.3355 56.0213 70.5814 55.1946 70.0931L50.4176 67.27C49.8047 66.9077 49.0767 66.8641 48.421 67.1505C47.7654 67.4367 47.3222 67.9919 47.2055 68.6731L46.2035 74.5141C46.0617 75.3398 45.3162 75.9258 44.471 75.9258Z" fill="black"/>
<path d="M91.0626 100.112C90.0918 100.112 89.3048 99.3578 89.3048 98.4273C89.3048 89.535 96.8538 82.3005 106.133 82.3005C107.103 82.3005 107.891 83.0546 107.891 83.9851C107.891 84.9154 107.103 85.6697 106.133 85.6697C98.7923 85.6697 92.8204 91.3925 92.8204 98.4273C92.8204 99.3576 92.0334 100.112 91.0626 100.112Z" fill="black"/>
<path d="M81.3955 86.7351C79.015 86.7351 76.625 86.2665 74.3868 85.3133L47.6378 73.92C46.7507 73.5419 46.3511 72.5467 46.7453 71.6966C47.1395 70.8462 48.1783 70.4632 49.0654 70.8412L75.8143 82.2346C80.2979 84.144 85.5472 83.6114 89.5138 80.8445L90.028 80.4858C90.8129 79.9384 91.9124 80.1048 92.4838 80.8566C93.0549 81.609 92.8817 82.6624 92.0968 83.21L91.5828 83.5685C88.584 85.6603 85.0007 86.7351 81.3955 86.7351Z" fill="black"/>
<path d="M59.9999 74.0658C59.5501 74.0658 59.1001 73.9014 58.757 73.5726C58.0705 72.9145 58.0705 71.848 58.757 71.1901L60.6983 69.3297C61.3848 68.672 62.4979 68.672 63.1841 69.3297C63.8706 69.9878 63.8706 71.0542 63.1841 71.7121L61.2428 73.5726C60.8997 73.9014 60.4497 74.0658 59.9999 74.0658Z" fill="black"/>
<path d="M71.1087 78.2994C70.6589 78.2994 70.2089 78.135 69.8658 77.8062C69.1793 77.1481 69.1793 76.0816 69.8658 75.4238L71.8071 73.5633C72.4936 72.9057 73.6067 72.9057 74.2931 73.5633C74.9796 74.2214 74.9796 75.2879 74.2931 75.9457L72.3518 77.8062C72.0084 78.1348 71.5587 78.2994 71.1087 78.2994Z" fill="black"/>
<path d="M81.3557 82.3322C80.9059 82.3322 80.4559 82.1678 80.1128 81.839C79.4263 81.1809 79.4263 80.1144 80.1128 79.4565L82.0541 77.596C82.7406 76.9384 83.8536 76.9384 84.5399 77.596C85.2264 78.2542 85.2264 79.3206 84.5399 79.9785L82.5986 81.839C82.2554 82.1676 81.8054 82.3322 81.3557 82.3322Z" fill="black"/>
<path d="M25.0547 100.111C24.0839 100.111 23.2969 99.3575 23.2969 98.4269C23.2969 91.1487 17.118 85.2273 9.52336 85.2273H1.75781C0.787031 85.2273 0 84.4733 0 83.5427C0 82.6122 0.787031 81.8582 1.75781 81.8582H9.52336C19.0566 81.8582 26.8125 89.2909 26.8125 98.4269C26.8125 99.3573 26.0255 100.111 25.0547 100.111Z" fill="black"/>
<path d="M36.7021 100.113C36.3053 100.113 35.9064 99.9851 35.5778 99.7226C34.832 99.1271 34.7312 98.0647 35.3528 97.35L55.0293 74.7222C55.6509 74.0077 56.7593 73.9111 57.505 74.5066C58.2508 75.102 58.3516 76.1644 57.73 76.8794L38.0535 99.5072C37.7057 99.9065 37.2058 100.113 36.7021 100.113Z" fill="black"/>
<path d="M55.9851 100.112C55.5883 100.112 55.1894 99.984 54.8608 99.7215C54.1151 99.126 54.0143 98.0636 54.6356 97.3489L69.1962 80.6043C69.8177 79.8898 70.9261 79.7932 71.6719 80.3887C72.4176 80.9841 72.5184 82.0465 71.8971 82.7612L57.3365 99.5058C56.9887 99.9054 56.4888 100.112 55.9851 100.112Z" fill="black"/>
<path d="M46.5404 100.112C46.1436 100.112 45.7447 99.9841 45.4161 99.7215C44.6703 99.1261 44.5695 98.0637 45.1911 97.349L62.2086 77.7788C62.8301 77.0641 63.9385 76.9675 64.6843 77.5631C65.43 78.1586 65.5308 79.221 64.9093 79.9359L47.8918 99.5061C47.544 99.9055 47.0441 100.112 46.5404 100.112Z" fill="black"/>
<path d="M65.8232 100.112C65.4264 100.112 65.0275 99.9846 64.6989 99.7221C63.9531 99.1266 63.8523 98.0642 64.4739 97.3495L76.4542 83.572C77.0758 82.8573 78.1839 82.7607 78.9299 83.3564C79.6757 83.9518 79.7765 85.0142 79.1549 85.7289L67.1746 99.5064C66.8268 99.906 66.3269 100.112 65.8232 100.112Z" fill="black"/>
<path d="M63.4525 72.643C63.0028 72.643 62.5528 72.4786 62.2096 72.1498L19.3499 31.076C18.1476 29.9235 17.9186 28.1426 18.7935 26.7453L22.1322 21.4131C22.6317 20.6153 23.7112 20.3567 24.5439 20.8352C25.3764 21.314 25.6464 22.3486 25.1467 23.1464L21.8083 28.4786C21.7649 28.548 21.7762 28.6365 21.836 28.6936L64.6956 69.7674C65.3821 70.4255 65.3821 71.4919 64.6956 72.1498C64.3523 72.4786 63.9025 72.643 63.4525 72.643Z" fill="black"/>
<path d="M25.3127 45.8483C24.3571 45.8483 23.4117 45.4931 22.6975 44.8088L19.3499 41.6004C18.1476 40.4482 17.9186 38.6673 18.7935 37.27L22.1322 31.938C22.4106 31.4932 22.8876 31.1959 23.4248 31.1327C23.9624 31.0694 24.4999 31.2466 24.8826 31.6134L33.1193 39.5069C33.502 39.8739 33.6872 40.3891 33.6211 40.9039C33.555 41.419 33.2451 41.8758 32.7808 42.1429L27.2168 45.3422C26.6243 45.6823 25.9661 45.8483 25.3127 45.8483ZM23.9885 35.5214L21.8083 39.0033C21.7649 39.0727 21.7762 39.1612 21.836 39.2182L25.1835 42.4266C25.2431 42.4836 25.3352 42.4946 25.4076 42.4528L29.0414 40.3633L23.9885 35.5214Z" fill="black"/>
<path d="M39.0407 59.0033C38.0849 59.0033 37.1394 58.6482 36.4253 57.9639L33.0779 54.756C31.8753 53.6037 31.6466 51.8228 32.5215 50.4253L35.8602 45.0931C36.1386 44.6483 36.6156 44.351 37.1528 44.2878C37.6902 44.2243 38.2278 44.4017 38.6106 44.7685L46.8474 52.662C47.2302 53.029 47.4153 53.5442 47.3492 54.059C47.2831 54.5741 46.9731 55.0309 46.509 55.298L40.9449 58.4973C40.352 58.8374 39.6939 59.0033 39.0407 59.0033ZM37.7162 48.6765L35.536 52.1586C35.4927 52.228 35.5039 52.3163 35.5637 52.3736L38.9113 55.5814C38.9708 55.6387 39.0634 55.6495 39.1358 55.6079L42.7691 53.5186L37.7162 48.6765Z" fill="black"/>
<path d="M108.792 85.9389C108.257 85.9389 107.73 85.7066 107.384 85.2657C107.332 85.199 107.279 85.1336 107.223 85.0687C107.21 85.0537 107.197 85.038 107.185 85.0225L96.4052 72.1775C95.8419 71.5061 95.3812 70.7631 95.0359 69.9691L81.2017 38.1665C80.9099 37.5951 80.5239 37.0767 80.0533 36.6261C79.2123 35.82 78.1534 35.2762 76.9914 35.0534L63.7342 32.6759C60.2927 32.0587 57.1651 30.4783 54.6892 28.1058L52.9841 26.4717C48.8873 22.5456 47.1198 16.951 48.2561 11.5065L48.9641 8.11463C49.1038 7.44552 48.8866 6.75777 48.3829 6.27508L47.1067 5.05186C44.7644 2.80734 40.9527 2.80711 38.6104 5.05208L24.8826 18.2079C24.0541 19.0017 24.0541 20.2939 24.8826 21.0876L83.3596 77.1281C84.0461 77.7862 84.0461 78.8527 83.3596 79.5105C82.6731 80.1682 81.5601 80.1682 80.8736 79.5105L22.3966 23.4701C20.1972 21.3623 20.1972 17.933 22.3966 15.8252L36.1244 2.66943C39.8376 -0.888833 45.8795 -0.888833 49.5925 2.66943L50.8687 3.89265C52.2053 5.17337 52.7819 6.99878 52.4113 8.77499L51.7033 12.167C50.7981 16.5047 52.2062 20.9614 55.4699 24.0891L57.175 25.7231C59.1475 27.6134 61.6391 28.8724 64.3809 29.364L77.6596 31.7453C79.5262 32.1034 81.2059 32.9656 82.5391 34.2432C83.301 34.9734 83.9237 35.8153 84.3897 36.7451C84.403 36.7719 84.4157 36.7988 84.4277 36.8262L98.2811 68.6729C98.4991 69.1738 98.7897 69.6423 99.145 70.0662L109.952 82.9437C109.959 82.9518 109.966 82.9599 109.972 82.9682C110.049 83.0587 110.124 83.1499 110.196 83.2427C110.779 83.987 110.622 85.0429 109.846 85.6013C109.529 85.8293 109.159 85.9389 108.792 85.9389Z" fill="black"/>
<path d="M81.2948 37.1212C80.4989 37.1212 79.7775 36.5997 79.5858 35.825L78.2908 30.5916C78.1247 29.9198 77.6423 29.3958 76.9676 29.1539C76.2926 28.9127 75.57 29.0043 74.9843 29.407L69.9661 32.8582C69.1772 33.4008 68.0792 33.2276 67.5131 32.4718C66.9471 31.716 67.1276 30.6635 67.9163 30.1211L72.9345 26.6697C74.4656 25.6168 76.433 25.3652 78.1985 25.9981C79.9636 26.6304 81.2768 28.0571 81.7115 29.8143L83.0064 35.0477C83.2305 35.9528 82.6462 36.8607 81.7017 37.0754C81.5655 37.1062 81.4291 37.1212 81.2948 37.1212Z" fill="black"/>
<path d="M105.354 81.8502C104.904 81.8502 104.454 81.6858 104.111 81.357C99.2168 76.6662 91.2757 76.3738 86.0337 80.6915C85.2975 81.2977 84.1877 81.2177 83.5547 80.5115C82.9221 79.8058 83.006 78.7425 83.7422 78.1361C90.3712 72.6773 100.41 73.0457 106.597 78.9743C107.283 79.6324 107.283 80.6989 106.597 81.3568C106.254 81.6858 105.804 81.8502 105.354 81.8502Z" fill="black"/>
<path d="M96.2779 70.1267C96.187 70.1267 96.0949 70.1199 96.0023 70.106L95.3744 70.0112C89.2907 69.093 84.138 65.1006 81.9271 59.5918L71.4191 33.4095C71.0706 32.5412 71.5225 31.5666 72.4288 31.2326C73.3351 30.8986 74.3521 31.3319 74.7004 32.2002L85.2083 58.3825C86.9697 62.7712 91.0745 65.9516 95.9212 66.683L96.5491 66.7777C97.5081 66.9226 98.1632 67.7849 98.012 68.704C97.8756 69.5341 97.128 70.1267 96.2779 70.1267Z" fill="black"/>
<path d="M84.042 42.3821H81.2966C80.3258 42.3821 79.5387 41.6281 79.5387 40.6975C79.5387 39.767 80.3258 39.0129 81.2966 39.0129H84.042C85.0128 39.0129 85.7998 39.767 85.7998 40.6975C85.7998 41.6278 85.0128 42.3821 84.042 42.3821Z" fill="black"/>
<path d="M88.7724 52.9045H86.0269C85.0561 52.9045 84.2691 52.1505 84.2691 51.22C84.2691 50.2894 85.0561 49.5354 86.0269 49.5354H88.7724C89.7432 49.5354 90.5302 50.2894 90.5302 51.22C90.5302 52.1505 89.7432 52.9045 88.7724 52.9045Z" fill="black"/>
<path d="M93.043 62.699H90.2973C89.3266 62.699 88.5395 61.945 88.5395 61.0144C88.5395 60.0838 89.3266 59.3298 90.2973 59.3298H93.043C94.0138 59.3298 94.8009 60.0838 94.8009 61.0144C94.8009 61.9447 94.0138 62.699 93.043 62.699Z" fill="black"/>
<path d="M37.3671 37.1193C36.9173 37.1193 36.4673 36.9549 36.1242 36.6261C35.4377 35.968 35.4377 34.9015 36.1242 34.2436C38.7258 31.7505 40.1583 28.4361 40.1583 24.9102C40.1583 21.3845 38.7255 18.0697 36.1242 15.5768L30.633 10.314C29.9466 9.6561 29.9466 8.58943 30.633 7.93177C31.3195 7.27412 32.4326 7.27389 33.1188 7.932L38.61 13.1946C41.8755 16.3239 43.6739 20.4845 43.6739 24.9102C43.6739 29.3357 41.8755 33.4966 38.61 36.6261C38.2666 36.9547 37.8169 37.1193 37.3671 37.1193Z" fill="black"/>
<path d="M45.6016 45.0135C44.7028 45.0135 43.9359 44.3561 43.8532 43.4815C43.7653 42.555 44.4778 41.7358 45.4446 41.6516L76.054 38.9848C77.0187 38.8959 77.8758 39.5832 77.9637 40.5099C78.0516 41.4364 77.3391 42.2558 76.3723 42.34L45.7629 45.0068C45.7088 45.0115 45.6551 45.0135 45.6016 45.0135Z" fill="black"/>
<path d="M59.2369 58.0808C58.3381 58.0808 57.5715 57.4233 57.4885 56.5487C57.4006 55.6222 58.1131 54.803 59.0799 54.7188L81.7308 52.7454C82.6958 52.6591 83.5526 53.344 83.6405 54.2705C83.7284 55.197 83.0159 56.0164 82.0491 56.1006L59.3982 58.074C59.344 58.0785 59.2901 58.0808 59.2369 58.0808Z" fill="black"/>
<path d="M52.5587 51.6801C51.6599 51.6801 50.8932 51.0225 50.8103 50.1478C50.7224 49.2213 51.4349 48.4019 52.4017 48.3177L78.8746 46.0112C79.8411 45.9252 80.6964 46.6096 80.7842 47.5363C80.8721 48.4628 80.1596 49.282 79.1928 49.3662L52.72 51.6727C52.6658 51.6776 52.6119 51.6801 52.5587 51.6801Z" fill="black"/>
<path d="M66.1936 64.7477C65.2946 64.7477 64.5279 64.0901 64.445 63.2155C64.3571 62.2889 65.0696 61.4698 66.0364 61.3856L84.6734 59.7619C85.642 59.6731 86.4951 60.3604 86.583 61.287C86.6709 62.2135 85.9584 63.0326 84.9916 63.1169L66.3546 64.7406C66.3007 64.7453 66.2468 64.7477 66.1936 64.7477Z" fill="black"/>
</svg>
