<svg width="287" height="269" viewBox="0 0 287 269" fill="none" xmlns="http://www.w3.org/2000/svg">
<path d="M80.7188 63.0469H98.6562V79.8594H80.7188V63.0469Z" fill="#268C56"/>
<path d="M179.375 142.906H197.312V159.719H179.375V142.906Z" fill="#268C56"/>
<path d="M206.281 142.906H224.219V159.719H206.281V142.906Z" fill="#116035"/>
<path d="M129.935 242.504L123.051 248.237L129.939 242.508L129.935 242.504Z" fill="#33B575"/>
<path d="M243.053 85.1974L222.335 99.7402L213.636 105.835L222.963 120.378C223.695 121.546 224.118 122.861 224.196 124.214C224.274 125.567 224.005 126.918 223.412 128.153L200.99 174.388C200.099 176.245 198.522 177.738 196.55 178.591L157.357 195.277L164.128 203.726C165.472 205.41 166.094 207.506 165.87 209.6C165.645 211.693 164.592 213.631 162.917 215.032L135.025 238.275L129.939 242.52L156.953 260.594L197.313 226.969L183.859 210.156L233.188 189.141L255.609 142.906L242.156 121.891L278.031 96.6719L273.547 71.4532L244.102 63.5681L246.506 77.0854C246.785 78.6045 246.611 80.1664 246.001 81.5982C245.392 83.0299 244.371 84.2756 243.053 85.1974Z" fill="#116035"/>
<path d="M179.375 25.2188L156.953 16.8125L143.5 33.625H107.625L102.75 8.40625L35.875 33.625L40.3594 71.4531H22.4219L8.96875 96.6719L44.8438 117.688L52.7318 119.394L49.373 91.2919C49.1615 89.4664 49.5897 87.626 50.5929 86.0488C51.5961 84.4715 53.1197 83.2432 54.9336 82.5494L104.8 63.7614L121.84 57.3306C123.353 56.7821 124.994 56.6225 126.594 56.8683C127.622 56.991 128.613 57.3054 129.509 57.793C130.673 58.3925 131.68 59.2282 132.456 60.2389C133.231 61.2497 133.757 62.41 133.993 63.6353L137.536 81.9609H161.438L170.406 70.7386L172.2 68.5109C173.385 67.0373 175.053 65.9682 176.948 65.4672C178.843 64.9662 180.861 65.0609 182.693 65.7369L205.115 74.1431C206.781 74.7708 208.208 75.8502 209.215 77.243C210.221 78.6359 210.761 80.2786 210.766 81.9609V96.6298L222.326 99.736L243.053 85.1973C244.371 84.2756 245.392 83.0299 246.001 81.5981C246.611 80.1664 246.785 78.6044 246.506 77.0853L244.102 63.5681L179.375 46.2344V25.2188Z" fill="#48D88D"/>
<path d="M243.053 85.197L222.326 99.7356L222.335 99.7398L243.053 85.197Z" fill="#48D88D"/>
<path d="M164.128 203.725L157.357 195.277L196.55 178.591C198.522 177.737 200.099 176.245 200.99 174.388L223.412 128.153C224.005 126.918 224.274 125.567 224.196 124.214C224.118 122.861 223.695 121.546 222.963 120.377L213.636 105.835L222.326 99.7358L210.766 96.6297V81.9608C210.761 80.2785 210.221 78.6357 209.215 77.2429C208.208 75.8501 206.781 74.7707 205.115 74.143L182.693 65.7367C180.861 65.0608 178.843 64.9661 176.948 65.467C175.053 65.968 173.385 67.0371 172.2 68.5108L170.406 70.7384L161.438 81.9608H137.536L133.993 63.6351C133.757 62.4099 133.231 61.2495 132.456 60.2388C131.68 59.228 130.673 58.3924 129.509 57.7928C128.613 57.3052 127.622 56.9908 126.594 56.8681C124.994 56.6223 123.353 56.7819 121.84 57.3305L104.8 63.7612L54.9336 82.5492C53.1197 83.243 51.5961 84.4714 50.5929 86.0486C49.5897 87.6258 49.1615 89.4662 49.373 91.2917L52.7318 119.394L103.141 130.297L107.625 151.312L125.563 159.719L121.078 184.937L143.5 214.359L125.563 239.578L129.935 242.52L162.917 215.032C164.592 213.631 165.645 211.693 165.87 209.599C166.094 207.506 165.472 205.41 164.128 203.725Z" fill="#33B575"/>
<path d="M162.917 215.032L129.935 242.504L129.939 242.508L135.025 238.275L162.917 215.032Z" fill="#33B575"/>
<path d="M222.335 99.7405L222.326 99.7363L213.636 105.835L222.335 99.7405Z" fill="#33B575"/>
<path d="M248.3 33.625C248.3 33.8015 248.264 33.9739 248.264 34.1504H260.094V8.40625H236.147C239.972 11.5562 243.035 15.4357 245.131 19.7849C247.227 24.1341 248.307 28.8527 248.3 33.625Z" fill="#F8DC32"/>
<path d="M215.25 34.1504H248.264C248.264 33.9739 248.3 33.8015 248.3 33.625C248.307 28.8527 247.227 24.1341 245.131 19.7849C243.035 15.4357 239.972 11.5562 236.147 8.40625H215.25V34.1504Z" fill="#D6AE03"/>
<path d="M89.6875 84.0625C88.4982 84.0625 87.3575 83.6197 86.5166 82.8314C85.6756 82.0432 85.2031 80.9741 85.2031 79.8594V63.0469C85.2031 61.9321 85.6756 60.8631 86.5166 60.0748C87.3575 59.2866 88.4982 58.8438 89.6875 58.8438C90.8768 58.8438 92.0175 59.2866 92.8584 60.0748C93.6994 60.8631 94.1719 61.9321 94.1719 63.0469V79.8594C94.1719 80.9741 93.6994 82.0432 92.8584 82.8314C92.0175 83.6197 90.8768 84.0625 89.6875 84.0625Z" fill="#192B54"/>
<path d="M188.344 163.922C187.154 163.922 186.014 163.479 185.173 162.691C184.332 161.903 183.859 160.833 183.859 159.719V142.906C183.859 141.792 184.332 140.722 185.173 139.934C186.014 139.146 187.154 138.703 188.344 138.703C189.533 138.703 190.674 139.146 191.515 139.934C192.356 140.722 192.828 141.792 192.828 142.906V159.719C192.828 160.833 192.356 161.903 191.515 162.691C190.674 163.479 189.533 163.922 188.344 163.922Z" fill="#192B54"/>
<path d="M215.25 163.922C214.061 163.922 212.92 163.479 212.079 162.691C211.238 161.903 210.766 160.833 210.766 159.719V142.906C210.766 141.792 211.238 140.722 212.079 139.934C212.92 139.146 214.061 138.703 215.25 138.703C216.439 138.703 217.58 139.146 218.421 139.934C219.262 140.722 219.734 141.792 219.734 142.906V159.719C219.734 160.833 219.262 161.903 218.421 162.691C217.58 163.479 216.439 163.922 215.25 163.922Z" fill="#192B54"/>
<path d="M249.493 159.719C248.742 159.719 248.003 159.542 247.344 159.205C246.685 158.868 246.126 158.381 245.72 157.789C245.314 157.197 245.073 156.519 245.019 155.817C244.965 155.115 245.1 154.412 245.412 153.771L250.551 143.171L238.309 124.051C237.739 123.159 237.542 122.101 237.755 121.081C237.969 120.061 238.578 119.152 239.466 118.528L273.161 94.8434L269.574 74.7651L178.142 50.2735C177.205 50.0224 176.382 49.4925 175.795 48.7638C175.209 48.035 174.891 47.1471 174.891 46.2343V28.0641L158.478 21.9108L147.087 36.1468C146.67 36.6688 146.128 37.0925 145.505 37.3843C144.883 37.6761 144.196 37.828 143.5 37.828H107.625C106.574 37.828 105.557 37.482 104.75 36.8506C103.944 36.2191 103.399 35.3423 103.212 34.373L99.3199 14.2317L40.7092 36.3359L44.8169 70.9907C44.8862 71.5781 44.8226 72.1726 44.6302 72.7354C44.4379 73.2982 44.121 73.8167 43.7004 74.257C43.2797 74.6972 42.7648 75.0494 42.1891 75.2905C41.6134 75.5316 40.9899 75.6562 40.3594 75.6561H25.1932L14.7985 95.1334L46.5792 113.753L54.8125 115.531C55.3864 115.655 55.9286 115.884 56.4082 116.204C56.8878 116.524 57.2954 116.93 57.6077 117.398C57.92 117.866 58.1309 118.387 58.2284 118.931C58.3259 119.476 58.308 120.033 58.1758 120.571C58.0436 121.109 57.7996 121.617 57.4579 122.066C57.1161 122.516 56.6833 122.898 56.184 123.191C55.6847 123.483 55.1288 123.681 54.548 123.772C53.9672 123.864 53.3729 123.847 52.799 123.723L43.8303 121.785C43.3462 121.681 42.884 121.502 42.4626 121.256L6.58756 100.24C5.63561 99.6859 4.93963 98.8175 4.63668 97.8062C4.33373 96.7949 4.44578 95.7139 4.95076 94.7761L18.4039 69.5574C18.7792 68.8612 19.3538 68.2766 20.0634 67.8691C20.7731 67.4616 21.5897 67.2472 22.4219 67.2499H35.3503L31.4175 34.0872C31.3097 33.1747 31.5235 32.2543 32.0264 31.4664C32.5293 30.6786 33.2935 30.0667 34.2023 29.7244L101.078 4.50563C101.696 4.27292 102.361 4.17204 103.025 4.2103C103.69 4.24857 104.337 4.42502 104.919 4.72686C105.502 5.02869 106.006 5.44834 106.394 5.95533C106.782 6.46232 107.045 7.04394 107.163 7.65797L111.369 29.4218H141.258L153.366 14.2905C153.957 13.551 154.792 13.0147 155.741 12.7647C156.69 12.5148 157.701 12.565 158.617 12.9077L181.039 21.3139C181.872 21.6258 182.585 22.1645 183.088 22.8606C183.591 23.5567 183.86 24.378 183.859 25.2186V43.0651L274.78 67.4138C275.597 67.6336 276.33 68.0663 276.895 68.6616C277.459 69.2569 277.831 69.9903 277.968 70.7763L282.453 95.9951C282.588 96.7542 282.498 97.5336 282.192 98.2481C281.887 98.9626 281.379 99.5848 280.722 100.047L248.08 122.992L259.452 140.758C259.827 141.342 260.044 142.003 260.085 142.683C260.127 143.363 259.991 144.043 259.69 144.663L253.573 157.272C253.215 158.004 252.639 158.623 251.916 159.056C251.192 159.49 250.351 159.72 249.493 159.719Z" fill="#192B54"/>
<path d="M156.953 264.797C156.019 264.797 155.108 264.524 154.348 264.015L122.957 242.999C122.009 242.365 121.361 241.41 121.151 240.336C120.941 239.262 121.185 238.154 121.831 237.245L138.051 214.439L117.423 187.38C117.081 186.93 116.837 186.422 116.705 185.884C116.573 185.346 116.555 184.789 116.652 184.244L120.589 162.089L105.616 155.074C105.005 154.787 104.471 154.373 104.057 153.863C103.643 153.353 103.358 152.761 103.226 152.132L99.3065 133.777L70.7365 127.598C69.5775 127.348 68.5723 126.676 67.9419 125.73C67.3116 124.785 67.1079 123.643 67.3755 122.557C67.6431 121.471 68.3601 120.528 69.3689 119.938C70.3776 119.347 71.5955 119.156 72.7545 119.407L104.145 126.195C104.986 126.376 105.753 126.781 106.354 127.361C106.956 127.941 107.366 128.672 107.535 129.465L111.571 148.467L127.549 155.953C128.407 156.355 129.104 157.004 129.539 157.805C129.974 158.606 130.124 159.517 129.966 160.404L125.787 183.904L147.128 211.909C147.657 212.603 147.948 213.432 147.962 214.285C147.976 215.137 147.714 215.974 147.209 216.684L131.679 238.515L156.626 255.218L191.227 226.389L180.272 212.678C179.87 212.175 179.593 211.594 179.462 210.978C179.331 210.361 179.349 209.725 179.515 209.116C179.681 208.507 179.991 207.941 180.422 207.459C180.852 206.977 181.392 206.592 182.003 206.331L229.797 185.967L237.259 170.588C237.774 169.607 238.675 168.853 239.773 168.485C240.87 168.116 242.078 168.163 243.139 168.615C244.2 169.067 245.032 169.889 245.458 170.906C245.884 171.923 245.871 173.056 245.421 174.064L237.268 190.877C236.819 191.81 236.022 192.557 235.026 192.978L190.792 211.838L200.896 224.447C201.572 225.29 201.885 226.341 201.772 227.391C201.66 228.44 201.131 229.412 200.29 230.113L159.931 263.738C159.11 264.42 158.05 264.797 156.953 264.797Z" fill="#192B54"/>
<path d="M215.25 86.1641C214.061 86.1641 212.92 85.7212 212.079 84.933C211.238 84.1448 210.766 83.0757 210.766 81.9609V8.40625C210.766 7.29151 211.238 6.22243 212.079 5.43419C212.92 4.64595 214.061 4.20313 215.25 4.20312C216.439 4.20313 217.58 4.64595 218.421 5.43419C219.262 6.22243 219.734 7.29151 219.734 8.40625V81.9609C219.734 83.0757 219.262 84.1448 218.421 84.933C217.58 85.7212 216.439 86.1641 215.25 86.1641Z" fill="#192B54"/>
<path d="M260.094 37.8281H215.25C214.061 37.8281 212.92 37.3853 212.079 36.5971C211.238 35.8088 210.766 34.7397 210.766 33.625V8.40625C210.766 7.29151 211.238 6.22243 212.079 5.43419C212.92 4.64595 214.061 4.20313 215.25 4.20312H228.703C229.892 4.20313 231.033 4.64595 231.874 5.43419C232.715 6.22243 233.187 7.29151 233.187 8.40625C233.187 9.52099 232.715 10.5901 231.874 11.3783C231.033 12.1665 229.892 12.6094 228.703 12.6094H219.734V29.4219H255.609V12.6094H246.641C245.451 12.6094 244.311 12.1665 243.47 11.3783C242.629 10.5901 242.156 9.52099 242.156 8.40625C242.156 7.29151 242.629 6.22243 243.47 5.43419C244.311 4.64595 245.451 4.20313 246.641 4.20312H260.094C261.283 4.20313 262.424 4.64595 263.265 5.43419C264.106 6.22243 264.578 7.29151 264.578 8.40625V33.625C264.578 34.7397 264.106 35.8088 263.265 36.5971C262.424 37.3853 261.283 37.8281 260.094 37.8281Z" fill="#192B54"/>
<path d="M143.5 96.6719H139.016C137.826 96.6719 136.686 96.2291 135.845 95.4408C135.004 94.6526 134.531 93.5835 134.531 92.4688C134.531 91.354 135.004 90.2849 135.845 89.4967C136.686 88.7084 137.826 88.2656 139.016 88.2656H143.5C144.689 88.2656 145.83 88.7084 146.671 89.4967C147.512 90.2849 147.984 91.354 147.984 92.4688C147.984 93.5835 147.512 94.6526 146.671 95.4408C145.83 96.2291 144.689 96.6719 143.5 96.6719Z" fill="#192B54"/>
<path d="M161.438 96.6719H156.953C155.764 96.6719 154.623 96.2291 153.782 95.4408C152.941 94.6526 152.469 93.5835 152.469 92.4688C152.469 91.354 152.941 90.2849 153.782 89.4967C154.623 88.7084 155.764 88.2656 156.953 88.2656H161.438C162.627 88.2656 163.767 88.7084 164.608 89.4967C165.449 90.2849 165.922 91.354 165.922 92.4688C165.922 93.5835 165.449 94.6526 164.608 95.4408C163.767 96.2291 162.627 96.6719 161.438 96.6719Z" fill="#192B54"/>
</svg>
