<svg width="120" height="115" viewBox="0 0 120 115" fill="none" xmlns="http://www.w3.org/2000/svg">
<g clip-path="url(#clip0)">
<path d="M84.3862 113.315H9.09745C7.78988 113.315 6.7298 112.3 6.7298 111.046V3.95357C6.7298 2.70048 7.78988 1.68457 9.09745 1.68457H84.3862C89.6165 1.68457 93.8564 5.74798 93.8564 10.7604V104.24C93.8564 109.252 89.6165 113.315 84.3862 113.315Z" fill="#E28086"/>
<path d="M9.09745 1.68457C7.78987 1.68457 6.7298 2.70048 6.7298 3.95357V111.047C6.7298 112.3 7.78987 113.316 9.09745 113.316H18.5678V1.68457H9.09745Z" fill="#9DC6FB"/>
<path d="M84.3863 1.68457H79.1776C84.4079 1.68457 88.6477 5.74798 88.6477 10.7604V104.24C88.6477 109.252 84.4076 113.315 79.1776 113.315H84.3863C89.6166 113.315 93.8565 109.252 93.8565 104.24V10.7604C93.8565 5.74798 89.6166 1.68457 84.3863 1.68457Z" fill="#DD636E"/>
<path d="M78.2302 15.7527V42.9798H30.8787V15.7527H78.2302Z" fill="#F9F6F9"/>
<path d="M111.771 107.114L108.535 113.315L105.3 107.114C104.314 105.224 103.8 103.139 103.8 101.026V15.7517H113.27V101.026C113.271 103.139 112.757 105.224 111.771 107.114Z" fill="#818181"/>
<path d="M109.482 15.7517V101.026C109.482 103.139 108.969 105.224 107.982 107.114L106.641 109.685L108.535 113.315L111.771 107.114C112.757 105.224 113.27 103.139 113.27 101.026V15.7517H109.482Z" fill="#595959"/>
<path d="M103.8 1.68457H113.27V15.7519H103.8V1.68457Z" fill="#9DC6FB"/>
<path d="M109.482 1.68457H113.271V15.7519H109.482V1.68457Z" fill="#80B4FB"/>
<path d="M38.4553 25.8315H70.6542C71.625 25.8315 72.412 25.0773 72.412 24.147C72.412 23.2166 71.625 22.4624 70.6542 22.4624H38.4553C37.4845 22.4624 36.6975 23.2166 36.6975 24.147C36.6975 25.0773 37.4845 25.8315 38.4553 25.8315Z" fill="black"/>
<path d="M38.4553 36.2678H70.6542C71.625 36.2678 72.412 35.5136 72.412 34.5832C72.412 33.6529 71.625 32.8987 70.6542 32.8987H38.4553C37.4845 32.8987 36.6975 33.6529 36.6975 34.5832C36.6975 35.5136 37.4845 36.2678 38.4553 36.2678Z" fill="black"/>
<path d="M66.3924 90.3025H42.7168C41.746 90.3025 40.959 91.0567 40.959 91.9871C40.959 92.9174 41.746 93.6716 42.7168 93.6716H66.3924C67.3631 93.6716 68.1502 92.9174 68.1502 91.9871C68.1502 91.0567 67.3634 90.3025 66.3924 90.3025Z" fill="black"/>
<path d="M66.3924 97.5637H42.7168C41.746 97.5637 40.959 98.318 40.959 99.2483C40.959 100.179 41.746 100.933 42.7168 100.933H66.3924C67.3631 100.933 68.1502 100.179 68.1502 99.2483C68.1502 98.318 67.3634 97.5637 66.3924 97.5637Z" fill="black"/>
<path d="M84.3862 0H9.09745C6.82261 0 4.97198 1.77352 4.97198 3.95357V30.8038C4.97198 31.7342 5.75902 32.4884 6.7298 32.4884C7.70058 32.4884 8.48761 31.7342 8.48761 30.8038V3.95357C8.48761 3.63126 8.76113 3.36914 9.09745 3.36914H16.81V111.631H9.09745C8.76113 111.631 8.48761 111.369 8.48761 111.046V38.6699C8.48761 37.7395 7.70058 36.9853 6.7298 36.9853C5.75902 36.9853 4.97198 37.7395 4.97198 38.6699V111.046C4.97198 113.226 6.82261 115 9.09745 115H84.3862C90.5774 115 95.6142 110.173 95.6142 104.24V90.936C95.6142 90.0057 94.8271 89.2515 93.8564 89.2515C92.8856 89.2515 92.0985 90.0057 92.0985 90.936V104.24C92.0985 108.315 88.6387 111.631 84.3862 111.631H20.3257V3.36914H84.3862C88.6389 3.36914 92.0985 6.68482 92.0985 10.7604V83.0733C92.0985 84.0037 92.8856 84.7579 93.8564 84.7579C94.8271 84.7579 95.6142 84.0037 95.6142 83.0733V10.7604C95.6142 4.82708 90.5772 0 84.3862 0V0Z" fill="black"/>
<path d="M79.9882 42.9789V15.7517C79.9882 14.8214 79.2012 14.0671 78.2304 14.0671H30.8789C29.9081 14.0671 29.1211 14.8214 29.1211 15.7517V42.9789C29.1211 43.9092 29.9081 44.6634 30.8789 44.6634H78.2304C79.2012 44.6634 79.9882 43.9092 79.9882 42.9789ZM76.4726 41.2943H32.6367V17.4363H76.4726V41.2943Z" fill="black"/>
<path d="M113.27 0H103.8C102.829 0 102.042 0.754238 102.042 1.68457V15.7519V101.026C102.042 103.389 102.625 105.754 103.728 107.868L106.963 114.069C107.261 114.64 107.87 115 108.535 115C109.201 115 109.81 114.64 110.108 114.069L113.343 107.868C114.446 105.754 115.028 103.389 115.028 101.026V36.2904C115.028 35.36 114.241 34.6058 113.27 34.6058C112.3 34.6058 111.513 35.36 111.513 36.2904V101.026C111.513 102.868 111.058 104.713 110.199 106.361L108.535 109.548L106.872 106.361C106.012 104.713 105.558 102.868 105.558 101.026V17.4364H111.513V28.423C111.513 29.3533 112.3 30.1075 113.27 30.1075C114.241 30.1075 115.028 29.3533 115.028 28.423V1.68457C115.028 0.754238 114.241 0 113.27 0V0ZM105.558 14.0673V3.36914H111.513V14.0673H105.558Z" fill="black"/>
</g>
<defs>
<clipPath id="clip0">
<rect width="120" height="115" fill="white"/>
</clipPath>
</defs>
</svg>
