<svg width="120" height="115" viewBox="0 0 120 115" fill="none" xmlns="http://www.w3.org/2000/svg">
<g clip-path="url(#clip0)">
<path d="M55.7039 17.3081V45.5175C55.7196 60.5056 62.3778 74.7818 74.0198 84.7899C80.4728 90.325 90.159 90.5685 96.9058 85.365L97.5198 84.8934C110.479 74.894 118.01 59.8041 118 43.8596V17.3081C97.7863 10.8202 75.9173 10.8202 55.7039 17.3081Z" fill="#FDB62F"/>
<path d="M106 14.259V43.86C106.01 59.8037 98.4785 74.8927 85.5198 84.8919L84.9058 85.3634C83.3811 86.5373 81.6638 87.4609 79.8238 88.0966C85.6243 90.115 92.104 89.0784 96.9058 85.3634L97.5198 84.8919C110.479 74.8927 118.009 59.8037 118 43.86V17.3084C114.071 16.0511 110.063 15.0324 106 14.259Z" fill="#FFA83D"/>
<path d="M71.278 56.8633C81.0765 61.5838 92.6275 61.5838 102.426 56.8633L100.518 62.3756C98.572 68.0293 93.0642 71.8516 86.852 71.8592C80.6397 71.8516 75.132 68.0293 73.186 62.3756L71.278 56.8633Z" fill="#DE4C3C"/>
<path d="M66.0839 41.7194C64.9794 41.7174 64.0856 40.8578 64.0876 39.7991C64.0884 39.4239 64.2039 39.0574 64.4199 38.7447C67.9921 33.5795 74.5724 31.131 80.8459 32.6325L82.1459 32.9449C83.2154 33.2094 83.8586 34.2547 83.5826 35.2796C83.3094 36.2943 82.2364 36.9105 81.1739 36.6632L79.8719 36.3508C75.2429 35.2482 70.3904 37.0545 67.7519 40.8626C67.3809 41.3981 66.7546 41.7198 66.0839 41.7194Z" fill="#DE4C3C"/>
<path d="M110.214 42.4177C109.543 42.4177 108.916 42.0952 108.546 41.559C105.908 37.752 101.058 35.9458 96.4298 37.0472L95.1238 37.3596C94.0444 37.5841 92.9796 36.9274 92.7454 35.8929C92.5216 34.9048 93.1374 33.9202 94.1519 33.6432L95.4558 33.3289C101.728 31.8315 108.305 34.2793 111.878 39.4411C112.489 40.323 112.238 41.5125 111.318 42.0978C110.99 42.306 110.607 42.4172 110.214 42.4177Z" fill="#DE4C3C"/>
<path d="M55.7038 33.1287C37.9254 37.1614 19.3249 36.3535 1.99995 30.7961V58.9347C1.9922 73.9275 8.65443 88.2124 20.3159 98.2071C26.7689 103.742 36.4551 103.986 43.2019 98.7821L43.8159 98.3106C52.9318 91.2748 59.4593 81.628 62.4438 70.7816C58.0258 63.0354 55.7083 54.3498 55.7038 45.5219V33.1287Z" fill="#4398D1"/>
<path d="M55.7039 45.5177V33.1284C53.1519 33.7034 50.5819 34.173 47.9999 34.5544V42.3226C48.0002 52.9395 50.4279 63.4275 55.1119 73.0487L58.6779 80.3703C60.2549 77.2972 61.5161 74.0846 62.4439 70.7774C58.0259 63.031 55.7084 54.3456 55.7039 45.5177Z" fill="#3E8CC7"/>
<path d="M10.0001 60.1893C8.89556 60.1893 8.00006 59.3312 8.00006 58.2727C8.00006 57.2142 8.89556 56.356 10.0001 56.356C14.2045 56.3546 18.127 54.3299 20.442 50.9664L21.31 49.7071C21.9208 48.8243 23.1628 48.5832 24.084 49.1685C25.0053 49.7538 25.2568 50.9441 24.646 51.8269L23.776 53.0862C20.7205 57.5211 15.5455 60.1893 10.0001 60.1893Z" fill="#3570AB"/>
<path d="M48.9358 60.1897C43.3931 60.1931 38.2188 57.5292 35.1618 53.0981L34.2899 51.8389C33.6791 50.9565 33.9301 49.7667 34.8509 49.1814C35.7716 48.5961 37.0131 48.8366 37.6238 49.719L38.4958 50.9783C40.8113 54.3391 44.7333 56.361 48.9358 56.3603C50.0403 56.3603 50.9358 57.2184 50.9358 58.2769C50.9358 59.3354 50.0403 60.1936 48.9358 60.1936V60.1897Z" fill="#3570AB"/>
<path d="M19.532 85.658C20.9163 87.6645 23.647 88.3626 25.89 87.2833C29.9533 85.3264 34.7427 85.3264 38.806 87.2833C41.049 88.3626 43.7797 87.6645 45.164 85.658C46.6922 83.4598 46.0757 80.4909 43.786 79.0206C36.8665 74.5742 27.8295 74.5742 20.91 79.0206C18.6203 80.4909 18.0038 83.4598 19.532 85.658Z" fill="#3570AB"/>
<path d="M48.982 58.4111L45.076 67.1454C44.1548 69.2144 45.158 71.6071 47.317 72.49C47.8435 72.7051 48.4098 72.8163 48.982 72.8168C51.3293 72.8165 53.2318 70.9928 53.2315 68.7434C53.2315 68.1921 53.1145 67.6463 52.888 67.1396L48.982 58.4111Z" fill="#87CED9"/>
<path d="M79.8718 36.3508L81.1738 36.6632C82.2471 36.9131 83.3286 36.2818 83.5896 35.2533C83.8478 34.235 83.2048 33.2068 82.1458 32.9449L80.8458 32.6325C74.5723 31.131 67.9921 33.5795 64.4198 38.7447C63.8366 39.6436 64.1238 40.8255 65.0618 41.3844C65.9613 41.9206 67.1408 41.6916 67.7518 40.8626C70.3903 37.0545 75.2428 35.2482 79.8718 36.3508Z" fill="black"/>
<path d="M101.528 55.1491C92.289 59.5747 81.415 59.5747 72.176 55.1491C71.1903 54.6716 69.987 55.0504 69.4888 55.9951C69.2483 56.4508 69.2078 56.9798 69.3758 57.4644L71.2858 62.9768C74.109 71.2143 83.366 75.6988 91.9617 72.9932C96.909 71.4359 100.789 67.7176 102.414 62.9768L104.322 57.4644C104.67 56.4599 104.103 55.375 103.055 55.0411C102.549 54.8798 101.997 54.9189 101.522 55.1491H101.528ZM98.62 61.7712C96.4897 67.9996 89.4942 71.3938 82.9947 69.3523C79.249 68.1757 76.3115 65.3606 75.084 61.7712L74.57 60.2858C82.518 62.9691 91.184 62.9691 99.132 60.2858L98.62 61.7712Z" fill="black"/>
<path d="M95.1239 37.3586L96.4299 37.0462C101.058 35.9448 105.908 37.751 108.546 41.558C109.129 42.4569 110.363 42.7324 111.3 42.1733C112.238 41.6143 112.526 40.4322 111.942 39.5335C111.922 39.5019 111.9 39.4708 111.878 39.4401C108.303 34.2804 101.726 31.835 95.4556 33.3336L94.1516 33.6479C93.0991 33.9694 92.5181 35.0478 92.8536 36.0562C93.1601 36.9765 94.1329 37.5347 95.1239 37.3586Z" fill="black"/>
<path d="M118.634 15.4918C98.001 8.91385 75.7006 8.91385 55.0679 15.4918C54.2531 15.7537 53.7039 16.4851 53.7039 17.3088V31.5841C36.7482 35.1597 19.098 34.2596 2.63399 28.9794C1.5865 28.6437 0.453249 29.1857 0.10325 30.1895C0.0349999 30.3853 6.78929e-09 30.5901 6.78929e-09 30.7964V58.9349C-0.000249993 74.4723 6.90373 89.2745 18.984 99.6372C26.1684 105.796 36.9492 106.064 44.4579 100.272L45.0699 99.8001C53.3291 93.4598 59.5571 85.0176 63.0399 75.4412C65.7471 79.4252 68.9911 83.0497 72.6879 86.2205C79.8718 92.3788 90.6518 92.6473 98.1598 86.8549L98.7718 86.3834C112.236 76.0469 120.05 60.3933 120 43.8604V17.3088C119.999 16.4847 119.449 15.753 118.634 15.4918ZM42.5619 96.8158L41.9619 97.2873C35.9734 101.907 27.3747 101.691 21.648 96.7756C10.417 87.1417 3.99874 73.3798 3.99999 58.9349V33.4203C20.1182 38.1243 37.2152 38.8495 53.7039 35.5286V45.5259C53.7039 46.6465 53.7406 47.7672 53.8139 48.8878C53.8379 49.2596 53.8899 49.6276 53.9219 49.9994C53.9859 50.7431 54.0459 51.4887 54.1419 52.2304C54.2019 52.6808 54.2879 53.1255 54.3579 53.5721C54.4619 54.2314 54.5579 54.8927 54.6859 55.5482C54.7779 56.0235 54.8999 56.495 55.0059 56.9684C55.1459 57.5894 55.2759 58.2123 55.4379 58.8276C55.5679 59.3182 55.7239 59.8032 55.8659 60.29C56.0399 60.8803 56.2059 61.4726 56.3999 62.0572C56.5639 62.5517 56.7519 63.0385 56.9299 63.5272C57.1299 64.1022 57.3399 64.6677 57.5679 65.2312C57.7679 65.7218 57.9859 66.2029 58.1979 66.6859C58.4399 67.2379 58.6759 67.7899 58.9359 68.3323C59.1679 68.8172 59.4219 69.2906 59.6699 69.7717C59.8839 70.1857 60.0699 70.6074 60.3039 71.0176C57.3621 81.1886 51.1549 90.2144 42.5619 96.8158ZM116 43.8604C116.046 59.2318 108.782 73.7857 96.2658 83.3992L95.6538 83.8707C89.6678 88.4848 81.0763 88.2682 75.3518 83.359C70.8548 79.5041 67.0826 74.9374 64.1999 69.858C61.0191 64.268 58.9569 58.1575 58.1199 51.8414C57.8431 49.7433 57.7044 47.6309 57.7039 45.5164V18.7003C76.6733 12.9542 97.0303 12.9542 116 18.7003V43.8604Z" fill="black"/>
<path d="M23.776 53.0947L24.646 51.8355C25.2568 50.9526 25.0053 49.7624 24.084 49.1771C23.1628 48.5918 21.9208 48.8328 21.31 49.7157L20.442 50.9749C18.1253 54.3355 14.203 56.3571 10.0001 56.3569C8.89556 56.3569 8.00006 57.2151 8.00006 58.2736C8.00006 59.332 8.89556 60.1902 10.0001 60.1902C15.544 60.1919 20.7185 57.5268 23.776 53.0947Z" fill="black"/>
<path d="M44.8979 77.4343C37.3107 72.5372 27.3832 72.5372 19.7959 77.4343C16.5872 79.5007 15.7339 83.6687 17.8902 86.7438C19.1857 88.5914 21.3532 89.7026 23.6759 89.7105C24.7574 89.71 25.8239 89.4671 26.7899 89.0013C30.2902 87.3281 34.4077 87.3281 37.9079 89.0013C41.3521 90.67 45.5559 89.3473 47.2971 86.0466C48.8986 83.0108 47.8711 79.3069 44.9079 77.4343H44.8979ZM43.4979 84.6045C42.6686 85.801 41.0389 86.2176 39.6979 85.5763C35.0667 83.3596 29.6172 83.3596 24.9859 85.5763C23.6452 86.2203 22.0137 85.8032 21.1859 84.6045C20.2672 83.2854 20.6369 81.5024 22.0119 80.6198C28.2532 76.5924 36.4187 76.5924 42.6599 80.6198C44.0391 81.4986 44.4141 83.2823 43.4979 84.6045Z" fill="black"/>
<path d="M54.7258 66.3911L50.8198 57.6588L50.7998 57.6262C50.5208 56.8681 49.7746 56.3602 48.9358 56.3573C44.7333 56.3581 40.8113 54.3362 38.4958 50.9753L37.6238 49.7161C37.0131 48.8337 35.7716 48.5932 34.8509 49.1785C33.9301 49.7638 33.6791 50.9535 34.2899 51.8359L35.1618 53.0952C37.6766 56.7265 41.6448 59.2012 46.1278 59.9338L43.2378 66.3911C41.8773 69.4311 43.3461 72.9528 46.5183 74.2566C49.6906 75.5604 53.3653 74.1528 54.7258 71.1128C55.4006 69.6053 55.4006 67.8985 54.7258 66.3911ZM50.8598 69.9426C50.1181 70.9362 48.6763 71.1652 47.6398 70.4544C47.4338 70.313 47.2533 70.1403 47.1058 69.9426C46.6803 69.3415 46.6048 68.5737 46.9058 67.9071L48.9738 63.2822L51.0418 67.9071C51.3493 68.5708 51.2806 69.3389 50.8598 69.9426Z" fill="black"/>
</g>
<defs>
<clipPath id="clip0">
<rect width="120" height="115" fill="white"/>
</clipPath>
</defs>
</svg>
