<svg width="135" height="126" viewBox="0 0 135 126" fill="none" xmlns="http://www.w3.org/2000/svg">
<g clip-path="url(#clip0)">
<path d="M134.48 53.0178L124.731 31.1777C123.687 28.8278 121.228 27.2969 118.501 27.301H6.75C3.02168 27.301 0 30.1213 0 33.601V79.801C0 83.2807 3.02168 86.101 6.75 86.101H128.25C131.978 86.101 135 83.2807 135 79.801V55.4409C135.002 54.6098 134.824 53.7844 134.48 53.0178Z" fill="#FDC536"/>
<path d="M78.7498 37.7996H56.2498V86.0996H78.7498V37.7996Z" fill="#FEE8AF"/>
<path d="M134.48 53.0191L125.523 32.9558C115.036 57.3747 94.1465 76.6273 67.8508 86.1027H128.25C131.978 86.1027 135 83.2825 135 79.8027V55.4426C135.002 54.6111 134.824 53.7857 134.48 53.0191Z" fill="#FDD15E"/>
<path d="M130.5 52.5026H108V39.9026H124.773L130.5 52.5026Z" fill="#3CB2CA"/>
<path d="M26.9998 39.9006H13.4998V52.5006H26.9998V39.9006Z" fill="#3CB2CA"/>
<path d="M33.7502 71.4023C41.2066 71.4023 47.2502 77.0431 47.2502 84.0023C47.2502 90.9616 41.2066 96.6023 33.7502 96.6023C26.2938 96.6023 20.2502 90.9616 20.2502 84.0023C20.2502 77.0431 26.2938 71.4023 33.7502 71.4023Z" fill="#42210B"/>
<path d="M101.25 71.4023C108.707 71.4023 114.75 77.0431 114.75 84.0023C114.75 90.9616 108.707 96.6023 101.25 96.6023C93.7937 96.6023 87.7501 90.9616 87.7501 84.0023C87.7501 77.0431 93.7937 71.4023 101.25 71.4023Z" fill="#42210B"/>
<path d="M33.7501 79.8025C36.2363 79.8025 38.2502 81.6819 38.2502 84.0026C38.2502 86.323 36.2365 88.2027 33.7501 88.2027C31.2639 88.2027 29.25 86.3232 29.25 84.0026C29.25 81.6819 31.2639 79.8025 33.7501 79.8025Z" fill="#FDC536"/>
<path d="M101.25 79.8025C103.736 79.8025 105.75 81.6819 105.75 84.0026C105.75 86.323 103.737 88.2027 101.25 88.2027C98.764 88.2027 96.7501 86.3232 96.7501 84.0026C96.7501 81.6819 98.764 79.8025 101.25 79.8025Z" fill="#FDC536"/>
<path d="M56.2499 60.8999H0V65.1H56.2499V60.8999Z" fill="#E65848"/>
<path d="M135 60.8999H78.7501V65.1H135V60.8999Z" fill="#E65848"/>
<path d="M15.946 52.5023H27.0002V39.9023H24.9167C22.687 44.5328 19.6561 48.7895 15.946 52.5023Z" fill="#0B9FBD"/>
<path d="M45.0003 39.9006H31.5003V52.5006H45.0003V39.9006Z" fill="#3CB2CA"/>
<path d="M33.9455 52.5023H44.9997V39.9023H42.9161C40.6865 44.5328 37.6559 48.7895 33.9455 52.5023Z" fill="#0B9FBD"/>
<path d="M103.5 39.9006H89.9999V52.5006H103.5V39.9006Z" fill="#3CB2CA"/>
<path d="M92.4457 52.5023H103.5V39.9023H101.416C99.1867 44.5328 96.1561 48.7895 92.4457 52.5023Z" fill="#0B9FBD"/>
<path d="M122.2 39.9023C119.859 44.2914 117.155 48.5041 114.113 52.5023H130.5L124.774 39.9023H122.2Z" fill="#0B9FBD"/>
<path d="M56.2498 76.9113V86.1029H78.7498V49.8152C75.042 61.1067 67.0388 70.7437 56.2498 76.9113Z" fill="#FDF5C9"/>
<path d="M33.7501 77.7014C30.8993 77.712 28.3636 79.394 27.4141 81.9015C26.8606 83.2538 26.8606 84.749 27.4141 86.1016C28.6359 89.367 32.4608 91.0911 35.9597 89.951C37.8924 89.321 39.409 87.9057 40.084 86.1016C40.6375 84.7493 40.6375 83.254 40.084 81.9015C39.1343 79.394 36.5986 77.714 33.7501 77.7014ZM33.7501 86.1016C32.5082 86.1016 31.5002 85.1608 31.5002 84.0017C31.5002 82.8426 32.5082 81.9017 33.7501 81.9017C34.992 81.9017 36 82.8426 36 84.0017C36 85.1608 34.992 86.1016 33.7501 86.1016Z" fill="black"/>
<path d="M27.0002 35.7029H9.00008V56.7028H49.5001V35.7029H27.0002ZM27.0002 52.5027H13.5002V39.9027H27.0002V52.5027ZM45.0003 52.5027H31.5003V39.9027H45.0003V52.5027Z" fill="black"/>
<path d="M134.482 53.0178L124.733 31.1777C123.689 28.8258 121.228 27.2969 118.501 27.301H6.75C3.02168 27.301 0 30.1213 0 33.601V79.8009C0 83.2807 3.02168 86.1009 6.75 86.1009H18.1799C19.4152 94.127 27.3868 99.6984 35.9865 98.5457C42.8984 97.6196 48.3276 92.5523 49.3201 86.1009H85.6802C86.9155 94.127 94.8871 99.6984 103.487 98.5457C110.399 97.6196 115.828 92.5523 116.82 86.1009H128.25C131.978 86.1009 135 83.2807 135 79.8009V55.4409C135.002 54.6098 134.827 53.7844 134.482 53.0178ZM123.75 39.9013L129.375 52.5013H108V39.9013H123.75ZM44.7749 86.1014C43.5375 91.784 37.5996 95.4569 31.5112 94.302C25.4227 93.1471 21.4874 87.6051 22.7248 81.9225C23.9622 76.24 29.9001 72.567 35.9886 73.7219C41.2267 74.7152 44.9953 79.0117 44.9998 84.0015C45.0001 84.7068 44.9257 85.4104 44.7749 86.1014ZM54 81.9014H49.3201C48.0848 73.8753 40.1132 68.3039 31.5135 69.4566C24.6016 70.3827 19.1724 75.45 18.1799 81.9014H6.75C5.50811 81.9014 4.50009 80.9605 4.50009 79.8014V65.1015H54V81.9014ZM76.4999 60.9014V81.9014H58.4998V39.9013H76.4999V60.9014ZM112.275 86.1014C111.037 91.784 105.1 95.4569 99.0112 94.302C92.9227 93.1471 88.9874 87.6051 90.2248 81.9225C91.4622 76.24 97.4001 72.567 103.489 73.7219C108.727 74.7152 112.495 79.0117 112.5 84.0015C112.5 84.7068 112.426 85.4104 112.275 86.1014ZM130.5 79.8014C130.5 80.9605 129.492 81.9014 128.25 81.9014H116.82C115.585 73.8753 107.613 68.3039 99.0135 69.4566C92.1016 70.3827 86.6724 75.45 85.6799 81.9014H81V65.1013H130.5V79.8014ZM130.5 60.9014H81V35.7014H54V60.9014H4.50009V33.6013C4.50009 32.4422 5.50811 31.5014 6.75 31.5014H118.501C119.41 31.5014 120.229 32.0118 120.577 32.7929L121.876 35.7014H85.5001V56.7014H130.5V60.9014H130.5ZM103.5 39.9013V52.5013H89.9999V39.9013H103.5Z" fill="black"/>
<path d="M101.25 77.7014C98.3993 77.712 95.8635 79.394 94.9141 81.9015C94.3606 83.2538 94.3606 84.749 94.9141 86.1016C96.1359 89.367 99.9608 91.0911 103.46 89.951C105.392 89.321 106.909 87.9057 107.584 86.1016C108.137 84.7493 108.137 83.254 107.584 81.9015C106.634 79.394 104.099 77.714 101.25 77.7014ZM101.25 86.1016C100.008 86.1016 99.0002 85.1608 99.0002 84.0017C99.0002 82.8426 100.008 81.9017 101.25 81.9017C102.492 81.9017 103.5 82.8426 103.5 84.0017C103.5 85.1608 102.492 86.1016 101.25 86.1016Z" fill="black"/>
</g>
<defs>
<clipPath id="clip0">
<rect width="135" height="126" fill="white"/>
</clipPath>
</defs>
</svg>
