<svg width="120" height="115" viewBox="0 0 120 115" fill="none" xmlns="http://www.w3.org/2000/svg">
<g clip-path="url(#clip0)">
<path d="M72.4836 55.0421L62.5351 45.5103C53.0645 35.5339 34.2709 37.3437 30.9204 50.6052C30.1261 53.7398 27.0614 55.6798 23.6968 55.6125C5.95992 55.2599 -9.53463 76.4701 15.318 100.287C40.1684 124.102 62.3054 109.352 61.9329 92.2577C61.8626 89.0333 63.8893 86.094 67.1602 85.3351C81.1342 82.0902 82.8867 64.1226 72.4836 55.0421Z" fill="#FFDA8F"/>
<path d="M115.162 14.1523C116.535 15.4681 116.535 17.6013 115.162 18.9171C113.455 20.5531 102.13 31.4061 100.251 33.2069C98.8805 34.5205 96.6546 34.5205 95.2816 33.2069L85.3401 23.6796C83.9694 22.3638 83.9694 20.2307 85.3401 18.9171C87.2274 17.1084 98.5591 6.24888 100.251 4.62724C101.624 3.31143 103.85 3.31143 105.223 4.62724L115.162 14.1523Z" fill="#FFDA8F"/>
<path d="M95.2816 33.2065L85.3401 23.6792C85.3138 23.7043 43.3136 63.9299 43.2402 64.0002C40.3489 63.8452 37.4061 64.8265 35.1989 66.9439C31.0822 70.8891 31.0822 77.2863 35.1989 81.2338C39.3156 85.179 45.9933 85.179 50.11 81.2338C52.3172 79.1163 53.3411 76.2961 53.1818 73.5252C54.2584 72.4942 93.2889 35.1149 95.2816 33.2065Z" fill="#C1B0B5"/>
<path d="M21.1169 82.0268C20.2017 82.9036 20.2017 84.3252 21.1166 85.2025L31.0558 94.7298C31.9706 95.6067 33.4539 95.6069 34.3694 94.7303C35.2846 93.8534 35.2846 92.4319 34.3696 91.5546L24.4304 82.0272C23.5154 81.1502 22.0321 81.1502 21.1169 82.0268Z" fill="black"/>
<path d="M115.992 21.2985L116.819 20.5059C119.108 18.3112 119.109 14.7603 116.819 12.5657L106.88 3.04081C104.59 0.845909 100.884 0.846133 98.5941 3.04058L97.767 3.83321L94.4516 0.657742C93.5361 -0.218645 92.053 -0.218196 91.1378 0.658641C90.2231 1.5357 90.2235 2.9575 91.1387 3.83434L94.4532 7.00914L87.8257 13.3605L84.5126 10.1855C83.5974 9.3089 82.1143 9.3089 81.1988 10.1855C80.2839 11.0623 80.2839 12.4841 81.1988 13.3612L84.5119 16.5362L83.6829 17.3307C81.9891 18.9532 81.5533 21.3322 82.3736 23.347L62.5245 42.3595C56.9497 37.6589 49.0789 35.7761 41.8279 37.5531C35.0392 39.2163 30.2336 43.7813 28.6431 50.0758C28.1399 52.0619 26.1258 53.422 23.745 53.3681C14.3068 53.1842 5.58008 58.4501 1.88627 66.7517C-2.83965 77.3732 1.45187 90.1752 13.6608 101.876C23.6264 111.426 37.386 118.48 50.3351 113.187C58.9968 109.647 64.4728 101.275 64.2752 92.2114C64.2253 89.9289 65.6384 87.999 67.7115 87.518C71.0497 86.7429 73.9033 85.2119 76.1927 82.9681C77.0971 82.0814 77.0807 80.6598 76.1554 79.7926C75.2304 78.9257 73.7465 78.9421 72.8419 79.8283C71.1764 81.461 69.0789 82.5796 66.6084 83.1533C62.3802 84.1344 59.4943 87.8977 59.5901 92.3052C59.748 99.5483 55.2899 106.28 48.4967 109.057C39.2679 112.829 27.7783 109.054 16.9745 98.7002C6.18834 88.3636 2.25999 77.3608 6.19677 68.5132C9.0991 61.99 16.1109 57.697 23.6475 57.858C28.238 57.9532 32.1706 55.1857 33.1973 51.1343C34.7981 44.7984 40.0191 42.6318 42.9887 41.9041C48.556 40.5402 54.8056 41.9991 59.1972 45.5464L42.2764 61.7504C39.0062 61.8423 35.87 63.1242 33.5415 65.3579C28.5185 70.1719 28.5183 78.0066 33.5415 82.8235C38.5659 87.6383 46.7415 87.6386 51.7671 82.8226C54.0952 80.5888 55.4319 77.5847 55.5301 74.4519L72.4541 58.2449C73.7243 59.6813 74.7608 61.335 75.4956 63.1175C75.9703 64.2687 77.3288 64.837 78.5359 64.3807C79.7393 63.9251 80.3296 62.6205 79.8541 61.4671C78.8844 59.1148 77.4931 56.936 75.7777 55.062L95.6282 36.0503C97.7574 36.8467 100.231 36.4024 101.907 34.7958L102.737 34.0011L106.05 37.1761C106.965 38.053 108.448 38.0527 109.363 37.1761C110.278 36.2993 110.278 34.8775 109.363 34.0004L106.05 30.8254L112.678 24.474L115.991 27.6504C116.905 28.527 118.389 28.5283 119.304 27.6513C120.22 26.7747 120.22 25.3529 119.305 24.4756L115.992 21.2985ZM48.4529 79.6473C45.2553 82.7114 40.0524 82.7114 36.8558 79.6478C33.6589 76.5826 33.6587 71.5964 36.856 68.5321C40.0266 65.4904 45.2239 65.4385 48.4538 68.5339C51.6877 71.6298 51.6183 76.6102 48.4529 79.6473ZM54.4569 69.1309C53.8187 67.7356 52.9122 66.4541 51.7664 65.3573C50.6214 64.2601 49.2844 63.3916 47.8299 62.7802C47.8554 62.7557 85.2307 26.9595 85.3395 26.8555L91.9672 33.2071C90.4749 34.6361 54.889 68.7171 54.4569 69.1309ZM113.505 17.3302C111.322 19.4225 100.506 29.7876 98.5938 31.6203C98.1376 32.0575 97.3942 32.0566 96.9366 31.6187L86.9979 22.0941C86.541 21.6556 86.5403 20.9431 86.9965 20.5057C88.9096 18.6723 99.737 8.29621 101.908 6.21605C102.365 5.7773 103.107 5.77663 103.566 6.21605L113.505 15.7411C113.963 16.1797 113.964 16.891 113.505 17.3302Z" fill="black"/>
<path d="M79.1093 74.5485C80.4033 74.5485 81.4524 73.5431 81.4524 72.303C81.4524 71.0629 80.4033 70.0576 79.1093 70.0576C77.8153 70.0576 76.7663 71.0629 76.7663 72.303C76.7663 73.5431 77.8153 74.5485 79.1093 74.5485Z" fill="black"/>
</g>
<defs>
<clipPath id="clip0">
<rect width="120" height="115" fill="white"/>
</clipPath>
</defs>
</svg>
