<svg width="47" height="40" viewBox="0 0 47 40" fill="none" xmlns="http://www.w3.org/2000/svg">
<g clip-path="url(#clip0)">
<path d="M23.4874 0.0112401C10.5164 0.0135824 0.00350449 8.96454 0.00625677 20.0037C0.0071742 23.8262 1.29607 27.5683 3.7199 30.7864L0.0658894 38.855C-0.128697 39.2841 0.122311 39.7662 0.626528 39.9318C0.73928 39.9688 0.859004 39.9878 0.979829 39.9877C1.09194 39.9881 1.20322 39.9718 1.30863 39.9393L11.0945 36.9661C22.1048 42.8021 36.5893 39.9368 43.4465 30.5664C50.3037 21.1959 46.9371 8.86873 35.9268 3.03281C32.1945 1.05445 27.8845 0.00757038 23.4874 0.0112401Z" fill="#4CAF50"/>
<path d="M34.6844 23.415C34.6844 23.415 32.2869 22.4156 30.7857 21.7493C29.0869 21.0048 27.0906 22.3989 26.1512 23.1918C24.6891 22.7138 23.3537 21.9924 22.2231 21.0697C21.1388 20.1077 20.2911 18.9712 19.7296 17.7267C20.6613 16.9255 22.2955 15.2282 21.4246 13.7824C20.6515 12.5032 19.4674 10.4644 19.4674 10.4627C19.3013 10.1821 18.9638 10.005 18.5945 10.0046H16.6374C13.7871 10.4236 11.7147 12.5402 11.7445 15.0017C11.7445 17.6168 15.422 22.6405 17.9018 24.7526C20.3816 26.8646 26.2844 29.9928 29.359 29.9928C32.2513 30.0181 34.7383 28.2543 35.2306 25.8286V24.163C35.2308 23.8454 35.0191 23.5553 34.6844 23.415Z" fill="#FAFAFA"/>
</g>
<defs>
<clipPath id="clip0">
<rect width="47" height="40" fill="white"/>
</clipPath>
</defs>
</svg>
